<?xml version="1.0" encoding="utf-8"?>
<!-- Generator: Adobe Illustrator 26.1.0, SVG Export Plug-In . SVG Version: 6.00 Build 0)  -->
<svg version="1.1" id="圖層_1" xmlns="http://www.w3.org/2000/svg" xmlns:xlink="http://www.w3.org/1999/xlink" x="0px" y="0px"
	 viewBox="0 0 1920 1108" style="enable-background:new 0 0 1920 1108;" xml:space="preserve">
<style type="text/css">
	.st0{fill:#FFFFFF;}
	.st1{fill:#FBDAC8;}
	.st2{fill:#F8C5AB;}
	.st3{fill:#FAD9C7;}
	.st4{fill:#231815;}
	.st5{fill:#9C8A72;}
	.st6{fill:#BCA78E;}
	.st7{fill:#888888;}
	.st8{fill:#DAC397;}
	.st9{fill:#9A8A6D;}
	.st10{opacity:0.5;fill:none;stroke:#EEDBB8;stroke-width:2;stroke-miterlimit:10;enable-background:new    ;}
	.st11{fill:#C3AC7F;}
	.st12{fill:#AA9783;}
	.st13{fill:#EDE3D9;stroke:#AA9783;}
	.st14{fill:none;stroke:#EDE3D9;stroke-miterlimit:10;}
	.st15{fill:#EDE3D9;}
	.st16{fill:none;stroke:#383027;stroke-width:2;stroke-linecap:round;stroke-miterlimit:10;}
	.st17{fill:#4B3A38;}
	.st18{fill:#ED781B;}
	.st19{fill:none;stroke:#9C8A72;stroke-width:3;stroke-linecap:round;stroke-miterlimit:10;}
</style>
<path class="st0" d="M1135.3,272.9h-62.5v149.7h62.5V272.9z"/>
<path class="st1" d="M1103.6,286c-14.7,0-24.9-6.2-24.9-11.8c0-3.1,2.8-5.5,4.6-6.6l1.3-0.9v-17.5h37.9v17.5l1.3,0.9
	c1.7,1.2,4.6,3.6,4.6,6.6C1128.5,279.8,1118.3,286,1103.6,286z"/>
<path class="st2" d="M1119.8,252v16.2l2.5,1.7c2.1,1.4,3.4,3,3.4,4.3c0,3.6-8.8,9-22,9s-22-5.4-22-9c0-1.3,1.3-2.8,3.4-4.3l2.5-1.7
	V252L1119.8,252L1119.8,252z M1125.4,246.3h-43.6v18.9c-3.7,2.5-5.9,5.6-5.9,9c0,8.1,12.4,14.7,27.7,14.7s27.7-6.5,27.7-14.7
	c0-3.4-2.2-6.5-5.9-9V246.3L1125.4,246.3z"/>
<path class="st2" d="M1039.1,175.3c10-1.7,16.1-15.3,13.6-30.4c-2.6-15.1-12.8-25.9-22.8-24.2c-10,1.7-16.1,15.3-13.5,30.4
	C1018.9,166.2,1029.1,177,1039.1,175.3z"/>
<path class="st2" d="M1192.3,150.5c2.6-15.1-3.5-28.8-13.6-30.5c-10.1-1.7-20.4,9.1-23,24.3c-2.6,15.1,3.5,28.8,13.6,30.5
	C1179.4,176.5,1189.7,165.6,1192.3,150.5z"/>
<path class="st3" d="M1103.6,259.5c36.4,0,65.9-39.7,65.9-88.6c0-48.9-29.5-88.6-65.9-88.6s-65.9,39.7-65.9,88.6
	C1037.7,219.9,1067.2,259.5,1103.6,259.5z"/>
<path class="st2" d="M1169.6,169.2c2.3,39.6-21.3,89.8-65.9,90.7c-44.7-1-68.2-51.2-65.9-90.7c1.4,29.8,12.9,61.2,38.4,78.1
	c8.2,5.4,17.8,8.3,27.6,8.3c9.8,0,19.5-2.9,27.7-8.3C1156.8,230.4,1168.3,199,1169.6,169.2L1169.6,169.2z"/>
<path class="st4" d="M1169.6,100.4v70.6c0,0-9-56.4-24.8-63.1c-15.9-6.7-41.2-1-41.2-1s-25.4-5.8-41.2,1
	c-15.8,6.8-24.6,63.1-24.6,63.1v-70.6H1169.6z"/>
<path class="st5" d="M1170.5,111.5l-66.9-17.2l-66.9,17.2V87.4c0-31.9,24.8-57.7,55.4-57.7h22.9c30.6,0,55.4,25.8,55.4,57.7
	L1170.5,111.5z"/>
<path class="st6" d="M1170.5,111.5c0,0-3.3,17.2-31.3,6c-9.3-3.8-7.9-10.7-35.5-10.7c-27.6,0-26.2,6.9-35.5,10.7
	c-28,11.2-31.3-6-31.3-6c14.9-34.6,66.7-36.5,66.7-36.5S1155.4,77,1170.5,111.5z"/>
<path class="st4" d="M1094.2,139.8c0,0-29-11.4-35.5-10.9c0,0-5.7,5.2-7,8.8c0,0,26.4,0.5,44.3,4.3L1094.2,139.8z"/>
<path class="st0" d="M1088.7,183c0,0,6.7-24.2,4.3-31c-5.7-16.8-35.5-9.8-38.2,1.9c-2.8,12.4,1.8,29.1,8.4,30
	C1070.8,185.1,1088.7,183,1088.7,183z"/>
<path class="st7" d="M1088.6,183c1.3-5.5,2.6-11.1,3.5-16.8c0.7-5.5,2.3-11.6-0.6-16.6c-6.3-10.3-21.7-8.5-30.7-2.8
	c-5.7,3.5-6.6,8.3-6.7,14.6c0,6.5,1.8,19.9,8.8,22.3C1071.6,184.7,1080.2,183.6,1088.6,183L1088.6,183z M1088.6,183
	c-8.5,1-17.2,2.1-25.8,1.2c-7.5-2.3-9.4-16.3-9.3-23c0.1-6.3,1.3-11.5,7.1-14.9c9.2-5.5,24.8-7.4,31.3,2.9
	c3.1,5.1,1.4,11.5,0.6,17.1C1091.6,172,1090.2,177.5,1088.6,183L1088.6,183z"/>
<path class="st4" d="M1079.9,179.2c3,0,5.4-5.6,5.4-12.5s-2.4-12.5-5.4-12.5c-3,0-5.4,5.6-5.4,12.5S1077,179.2,1079.9,179.2z"/>
<path class="st2" d="M1079.1,221.5c4.1-0.8,8.3-0.8,12.4-0.1c3,0.8,6,1.9,9.1,1.6c9.1-1.6,18.2-2.4,27.4-2.4l0.1,0.4
	c-3.5,2.5-7.6,4-11.9,4.6c-4.2,0.5-8.5,0.3-12.6-0.6c-2-0.5-4.1-0.7-6.2-0.7c-4.1,0.4-8.4,1.2-12.5-0.1c-2.1-0.5-4.1-1.2-6-2.3
	L1079.1,221.5L1079.1,221.5z"/>
<path class="st2" d="M1104.6,166.6c1,8.7,0,17.7,1.1,26.1c1.1,3.4,2.5,7.1,3.5,10.5c0.1,0.5,0.2,1,0.1,1.5c-0.1,0.5-0.2,1-0.5,1.5
	c-0.8,1-1.9,1.8-3.1,2.2c-1.9,1-4.1,1.4-6.3,1.1c1.9-0.5,3.7-1.5,5.2-2.8c1-0.9,2-1.3,1.6-2.3c-1.5-3-3-6.3-4.3-9.4
	c-0.4-1.2-0.7-2.4-0.8-3.7C1100.9,183,1102,174.6,1104.6,166.6L1104.6,166.6z"/>
<path class="st4" d="M1113,139.8c0,0,29-11.4,35.5-10.9c0,0,5.7,5.2,7,8.8c0,0-26.4,0.5-44.3,4.3L1113,139.8z"/>
<path class="st0" d="M1118.6,183c0,0-6.7-24.2-4.3-31c5.7-16.8,35.5-9.8,38.2,1.9c2.8,12.4-1.9,29.1-8.4,30
	C1136.5,185.1,1118.6,183,1118.6,183z"/>
<path class="st7" d="M1118.6,183.1c-1.6-5.5-3-11.1-4-16.8c-0.8-5.5-2.5-11.9,0.6-17.1c6.5-10.4,22.1-8.5,31.3-2.9
	c5.8,3.4,7.1,8.5,7.1,14.9c0.1,6.7-1.8,20.8-9.3,23c-8.6,0.9-17.2-0.2-25.8-1.2L1118.6,183.1z M1118.6,183.1
	c8.5,0.6,17.2,1.7,25.6,0.6c7-2.4,8.8-15.8,8.8-22.3c0-6.2-1-11.1-6.7-14.6c-9-5.7-24.3-7.4-30.7,2.8c-2.8,5.1-1.2,11.2-0.6,16.6
	C1115.9,171.9,1117.2,177.5,1118.6,183.1L1118.6,183.1z"/>
<path class="st4" d="M1127.3,179.2c3,0,5.4-5.6,5.4-12.5s-2.4-12.5-5.4-12.5c-3,0-5.4,5.6-5.4,12.5S1124.3,179.2,1127.3,179.2z"/>
<path class="st0" d="M1077.7,163.8c0.7,0,1.2-0.8,1.2-1.7c0-0.9-0.5-1.7-1.2-1.7c-0.7,0-1.2,0.8-1.2,1.7
	C1076.5,163,1077,163.8,1077.7,163.8z"/>
<path class="st0" d="M1125.2,163.9c0.7,0,1.3-0.8,1.3-1.8c0-1-0.6-1.8-1.3-1.8s-1.3,0.8-1.3,1.8
	C1123.9,163.1,1124.5,163.9,1125.2,163.9z"/>
<path class="st5" d="M1002.1,424.1l-12.6-124.7c21-12.6,73.5-27.9,78.1-29.2l35.5,95.3c-0.6,2-8.4,27.8-8.4,43.6v154.5l-80.5,0.1
	L1002.1,424.1z"/>
<path class="st6" d="M1067.3,270.6l35.4,94.9c-0.8,2.7-8.4,28-8.4,43.6v154.2l-79.8,0.1l-12-139.3l-12.6-124.5
	C1010.5,287.2,1061.1,272.4,1067.3,270.6L1067.3,270.6z M1067.7,269.7c0,0-56.6,16.1-78.6,29.5l12.6,124.9l12.1,139.9h81.2V409.1
	c0-16.5,8.5-43.6,8.5-43.6L1067.7,269.7L1067.7,269.7z"/>
<path class="st5" d="M1013.8,564c0,0-13.1,53.8-13.1,90.6s24.8,397,24.8,397h66.9l11.2-372.4V564H1013.8z"/>
<path class="st6" d="M1093.7,339.3c0,0-11.1-28-16.6-47.2c-5.6-19.2,4.6-22.7,4.6-22.7v-13.5c-6.1,2.7-11.1,7.3-14.4,13
	c-5,9.4-27.7,52.2-27.7,52.2l29.6-9.9L1093.7,339.3z"/>
<path class="st5" d="M926.8,402c35.7-82,58.5-99.9,62-102.2l10.6,104.6L982,433.5L926.8,402z"/>
<path class="st6" d="M988.5,300.4L999,404.3L981.9,433l-54.5-31.1C961.4,323.4,983.8,303.8,988.5,300.4L988.5,300.4z M989.1,299.2
	c0,0-23.5,12.8-62.7,103l55.7,31.8l17.6-29.5L989.1,299.2L989.1,299.2z"/>
<path class="st2" d="M917.6,556l35.4-5.9v-63.8c0-5,1.2-10,3.5-14.4l21.2-40.4l-47.3-27l-21,55.1c-1.8,4.7-2.4,9.7-1.8,14.6
	l10.1,82.3"/>
<path class="st5" d="M1069.5,311.1c-0.2-2-2.4-30.4,2.3-39.3c3.9-7.4,8.1-10.8,9.5-11.7v9.2c-1.5,0.7-9.8,5.4-4.6,23
	c4.7,16.1,13.3,38.7,15.9,45.3L1069.5,311.1z"/>
<path class="st6" d="M1081,260.7v8.3c-2.1,1-9.7,6-4.6,23.4c4.3,14.8,12,35.1,15.2,43.5l-21.7-25c-0.2-2.8-2.3-30.3,2.3-38.9
	C1074.2,267.6,1077.3,263.8,1081,260.7L1081,260.7z M1081.7,259.3c0,0-5.2,2.8-10.2,12.2c-5,9.4-2.3,39.6-2.3,39.6l24.5,28.2
	c0,0-11.1-28-16.6-47.2c-5.6-19.2,4.6-22.7,4.6-22.7V259.3L1081.7,259.3z"/>
<path class="st5" d="M1095.4,563.6v-152c0-16.3,8.4-45.7,8.5-46l35.6-95.4c4.6,1.3,57.1,16.6,78,29.2L1205,424l-12.1,139.6
	L1095.4,563.6z"/>
<path class="st6" d="M1139.7,270.6c6.2,1.8,56.8,16.6,77.4,29L1204.5,424l-12,139.3l-96.8-0.1V411.6c0-16.2,8.3-45.6,8.4-45.9
	L1139.7,270.6L1139.7,270.6z M1139.2,269.6l-35.7,95.8c0,0-8.5,29.6-8.5,46.1V564l98.1,0.1l12.1-139.9l12.6-124.9
	c-22-13.4-78.7-29.5-78.7-29.5L1139.2,269.6z"/>
<path class="st5" d="M1193.2,564c0,0,13.1,53.8,13.1,90.6s-24.8,396.9-24.8,396.9h-66.9l-11.1-372.4V564H1193.2z"/>
<path class="st6" d="M1113.2,339.3c0,0,11.1-28,16.7-47.2c5.6-19.2-4.7-22.7-4.7-22.7v-13.5c6.1,2.7,11.1,7.3,14.4,13l27.7,52.2
	l-29.6-9.9L1113.2,339.3z"/>
<path class="st5" d="M1207.6,404.4l10.6-104.6c3.5,2.4,26.3,20.3,61.9,102.2l-55.1,31.5L1207.6,404.4z"/>
<path class="st6" d="M1218.5,300.4c4.7,3.5,27,23,61.2,101.4l-54.6,31.1l-17.2-28.7L1218.5,300.4L1218.5,300.4z M1217.9,299.2
	l-10.6,105.3l17.6,29.5l55.7-31.8C1241.4,311.9,1217.9,299.2,1217.9,299.2L1217.9,299.2z"/>
<path class="st2" d="M1289.3,556l-35.4-5.9v-63.8c0-5-1.2-10-3.5-14.4l-21.2-40.4l47.3-27l21,55c1.8,4.7,2.4,9.7,1.8,14.6l-10,82.3"
	/>
<path class="st5" d="M1114.3,337.6c2.6-6.6,11.2-29.2,15.9-45.3c5.1-17.6-3.1-22.3-4.6-23V260c1.4,1,5.6,4.3,9.5,11.7
	c4.7,8.9,2.5,37.2,2.3,39.3L1114.3,337.6z"/>
<path class="st6" d="M1126,260.7c3.7,3.1,6.8,6.9,8.9,11.2c4.6,8.6,2.5,36.1,2.3,38.9l-21.7,25c3.2-8.3,10.9-28.7,15.2-43.5
	c5.1-17.4-2.6-22.4-4.6-23.4V260.7z M1125.3,259.3v10.1c0,0,10.2,3.6,4.7,22.7c-5.6,19.2-16.7,47.2-16.7,47.2l24.6-28.2
	c0,0,2.6-30.2-2.3-39.6C1130.5,262.2,1125.3,259.4,1125.3,259.3L1125.3,259.3z"/>
<path class="st8" d="M1248.8,477.1H958.4l41.8-54.1H1207L1248.8,477.1z"/>
<path class="st8" d="M1248.1,477.8h-289v170h289V477.8z"/>
<path class="st9" d="M1247.4,478.5V647H959.8V478.5H1247.4z M1248.8,477.1H958.4v171.4h290.4V477.1z"/>
<path class="st10" d="M958.4,477.1h290.4"/>
<path class="st11" d="M1230.8,453.7H976.5l7.4-9.5h239.6L1230.8,453.7z"/>
<path class="st12" d="M1089.5,1051.3c0,0,6.6,20.2,6.6,39.5h-19c-4.4,0-8.7,0.5-12.9,1.5l-7.8,1.9c-8.8,2.1-17.9,3.2-27,3.2H979
	c0,0,0.3-30.9,34.7-34.4c0,0,12.6-2.8,18.9-11.7H1089.5z"/>
<path class="st13" d="M1095.6,1091.1v9.3h-18.5l0,0c-4.4,0-8.8,0.5-13.1,1.6l0,0l-7.8,1.9c-8.8,2.1-17.8,3.2-26.9,3.2l0,0h-49.9
	v-9.3h49.9l0,0c9.1,0,18.2-1.1,27.1-3.2l-0.1-0.5l0.1,0.5l7.8-1.9c4.2-1,8.5-1.5,12.8-1.5l0,0H1095.6z"/>
<path class="st14" d="M1049.1,1051.5l-12.6,10.2c-3.2,2.6-6.6,4.8-10.2,6.6c-3.9,1.9-9,5.3-8.7,9.7c0.5,7.1,0.6,8.1,0.6,19.2"/>
<path class="st15" d="M1045,1059.6c0,0-8.5-4.3-15.8-4.3L1045,1059.6z"/>
<path class="st16" d="M1045,1059.6c0,0-8.5-4.3-15.8-4.3"/>
<path class="st15" d="M1039.2,1065c0,0-9.8-4.7-17.2-4.8L1039.2,1065z"/>
<path class="st16" d="M1039.2,1065c0,0-9.8-4.7-17.2-4.8"/>
<path class="st15" d="M1031.6,1070.1c0,0-11.8-6.8-19.2-6.9L1031.6,1070.1z"/>
<path class="st16" d="M1031.6,1070.1c0,0-11.8-6.8-19.2-6.9"/>
<path class="st12" d="M1117.5,1051.5c0,0-6.6,20.2-6.6,39.5h19c4.3,0,8.7,0.5,12.9,1.5l7.8,1.9c8.8,2.1,17.9,3.2,27,3.2h50.5
	c0,0-0.3-30.9-34.7-34.4c0,0-12.6-2.8-19-11.7H1117.5z"/>
<path class="st14" d="M1157.9,1051.7l12.6,10.2c3.2,2.6,6.6,4.8,10.2,6.6c3.9,1.9,9,5.3,8.7,9.7c-0.5,7.1-0.6,8.1-0.6,19.2"/>
<path class="st15" d="M1162,1059.7c0,0,8.5-4.3,15.8-4.3L1162,1059.7z"/>
<path class="st16" d="M1162,1059.7c0,0,8.5-4.3,15.8-4.3"/>
<path class="st15" d="M1167.8,1065.1c0,0,9.8-4.7,17.2-4.8L1167.8,1065.1z"/>
<path class="st16" d="M1167.8,1065.1c0,0,9.8-4.7,17.2-4.8"/>
<path class="st15" d="M1175.3,1070.2c0,0,11.8-6.8,19.2-6.9L1175.3,1070.2z"/>
<path class="st16" d="M1175.3,1070.2c0,0,11.8-6.8,19.2-6.9"/>
<path class="st17" d="M1016.4,581.3c2,0,3.9,0.2,5.8,0.7c1.4,0.4,2.8,1.1,4,2c1,0.7,1.8,1.7,2.3,2.8c0.5,1.1,0.7,2.2,0.7,3.4
	c0,1-0.2,1.9-0.5,2.8c-0.3,1-0.8,1.8-1.4,2.6c-0.7,0.9-1.6,1.6-2.6,2.1c-1.2,0.7-2.5,1.2-3.9,1.4l9.3,12h-7.8l-9.1-11.6h-10.4
	c-0.7,0-1,0.2-1,0.8v10.8h-7v-11.8c-0.1-0.7,0-1.4,0.3-2s0.7-1.2,1.2-1.6c1.4-0.9,3.1-1.2,4.8-1.1h15.6c0.9,0,1.7-0.1,2.5-0.4
	c0.6-0.2,1.2-0.5,1.7-0.9c0.4-0.4,0.8-0.8,1-1.3c0.2-0.5,0.3-1,0.3-1.6c0-0.5-0.1-1.1-0.4-1.5c-0.2-0.5-0.6-0.9-1-1.2
	c-1.2-0.9-2.8-1.3-4.3-1.2h-21.9v-5.2L1016.4,581.3z"/>
<path class="st17" d="M1070.6,581.3v5.2h-20c-1.6-0.1-3.2,0.2-4.6,1c-0.4,0.3-0.8,0.7-1.1,1.2s-0.4,1-0.3,1.6c0,2.4,2,3.6,6.1,3.6
	h19.7v4.7h-19.9c-4.1,0-6.1,1.2-6.1,3.7c0,0.5,0.1,1.1,0.3,1.6c0.2,0.5,0.6,0.9,1.1,1.2c1.4,0.8,3,1.1,4.6,1h20.3v5.2h-20.2
	c-2.1,0-4.1-0.2-6.1-0.6c-1.5-0.3-2.9-0.9-4.2-1.7c-1-0.6-1.8-1.5-2.4-2.6c-0.5-1-0.8-2.1-0.7-3.3c-0.1-1.5,0.4-3.1,1.4-4.3
	c1.2-1.3,2.6-2.2,4.3-2.6c-3.8-1.2-5.7-3.4-5.7-6.8c0-1.1,0.2-2.3,0.8-3.3c0.6-1.1,1.4-2,2.4-2.6c1.3-0.8,2.7-1.4,4.2-1.7
	c2-0.4,4-0.6,6.1-0.6L1070.6,581.3z"/>
<path class="st17" d="M1085.2,611.3h-7.7l14.1-26.7c0.7-1.3,1.8-2.4,3.2-3c1.7-0.6,3.4-0.9,5.2-0.9c1.8-0.1,3.5,0.2,5.2,0.9
	c1.4,0.6,2.5,1.7,3.1,3l13.5,26.7h-7.8l-12.1-24.2c-0.2-0.3-0.5-0.6-0.8-0.8c-0.3-0.2-0.7-0.3-1.1-0.2c-0.4,0-0.8,0-1.2,0.2
	c-0.4,0.2-0.7,0.5-0.9,0.8L1085.2,611.3z"/>
<path class="st17" d="M1146.6,581.3c5.9,0,10.3,1.2,13.4,3.7c3.1,2.5,4.6,6.2,4.6,11.4c0,5.1-1.5,8.8-4.6,11.3
	c-3.1,2.5-7.5,3.7-13.4,3.7h-14.1c-2.2,0-3.3-0.8-3.3-2.4v-25.1c0-1.6,1.1-2.4,3.3-2.4H1146.6z M1136.1,605.5c0,0.4,0.2,0.5,0.8,0.5
	h9.7c3.9,0,6.7-0.8,8.4-2.3c1.7-1.5,2.6-4,2.6-7.5c0-3.4-0.9-5.9-2.6-7.4c-1.7-1.5-4.5-2.3-8.4-2.3h-9.7c-0.5,0-0.8,0.2-0.8,0.5
	V605.5z"/>
<path class="st17" d="M983.7,581.3h-7v6.1h7V581.3z"/>
<path class="st17" d="M983.7,594.8h-7v16.5h7V594.8z"/>
<path class="st17" d="M992,533.4c-1.7,11.8-4.9,21.1-11.7,27.4c-1.1-1.2-2.3-2.3-3.5-3.3c6.2-5.4,9.2-13.7,10.7-24.2H978v-4h9.9
	c0.2-1.7,0.3-3.4,0.5-5.2l4.6,0.3c-0.1,1.7-0.3,3.3-0.5,4.9h25.3v4L992,533.4z M1006.1,535.4c-0.1,3.8-0.4,7.6-1,11.3
	c2.5,6.5,7.5,11.8,13.8,14.8c-1.1,0.9-2.1,2-2.9,3.3c-5.3-2.8-9.6-7.1-12.4-12.4c-2,5.5-6,9.9-13.6,12.7c-0.7-1.3-1.5-2.4-2.6-3.3
	c13.2-4.6,13.8-14,14.2-26.3H1006.1z M991.3,549.4c1.5-2.9,2.5-5.9,3.1-9.1l3.5,1.2c-0.6,3.2-1.6,6.3-3,9.3L991.3,549.4z
	 M1008.1,548.1c1.7-2.6,3.1-5.4,4.3-8.2l3.7,1.7c-1.4,2.8-3,5.6-4.7,8.2L1008.1,548.1z"/>
<path class="st17" d="M1032.5,564.5l-4.1-1.5c1-0.9,2-1.9,2.8-3c0.8-1.1,1.6-2.2,2.2-3.4l4.2,0.8c-0.7,1.4-1.5,2.7-2.5,3.9
	C1034.4,562.5,1033.5,563.6,1032.5,564.5z M1029.2,534.9l-0.2-3.2h2.3c1.5-2,2.9-4.1,4-6.4l4,0.7c-1,2-2.3,3.9-3.7,5.6l8.1-0.4
	c-0.7-0.9-1.3-1.7-1.9-2.4l3.4-1.6c0.9,1,1.8,2.2,2.5,3.4c1.3,1.9,2.1,3.1,2.3,3.5l-3.6,1.3c-0.3-0.5-0.7-1-1-1.5
	C1041,534.1,1035.6,534.5,1029.2,534.9z M1043.6,548.5h-8.9v6.2h-4.1v-18.1h17.1v15.2c0,0.4-0.1,0.7-0.3,1.1
	c-0.2,0.3-0.4,0.6-0.7,0.9c-0.8,0.6-1.8,1-2.8,0.9h-3.4l-0.3-3.3h2.4c0.8,0,1.2-0.3,1.2-0.8L1043.6,548.5z M1043.6,541.4v-2.3h-8.9
	v2.3H1043.6z M1034.7,546h8.9v-2.3h-8.9V546z M1042.9,564.2c-0.7-2.1-1.6-4.4-2.5-6.8l4-0.7c0.6,1.1,1.1,2.2,1.5,3.4
	c0.5,1.1,0.9,2.3,1.3,3.4L1042.9,564.2z M1053.8,563.8c-1-2.1-2-4.4-3.2-6.8l4-0.8c0.2,0.3,0.8,1.4,1.8,3.4c1.1,1.9,1.7,3.1,1.8,3.4
	L1053.8,563.8z M1065.2,554c-3.5,0.3-7,0.3-10.5,0c-1-0.1-2-0.5-2.8-1.2c-0.3-0.3-0.6-0.7-0.8-1.1c-0.2-0.4-0.3-0.9-0.3-1.3v-9.2
	h4.3v2.3c4-0.6,8-1.6,11.9-3l1.7,3.3c-4.4,1.3-9,2.2-13.6,2.8v2.7c0,0.7,0.5,1.1,1.4,1.3c2.7,0.4,5.4,0.4,8.1,0
	c0.3,0,0.6-0.1,0.9-0.3c0.2-0.2,0.4-0.5,0.5-0.8c0.3-0.7,0.4-1.5,0.3-2.3l3.5,0.4v3c0,0.5-0.1,0.9-0.3,1.3c-0.2,0.4-0.5,0.7-0.9,1
	C1067.7,553.6,1066.4,554,1065.2,554z M1064.7,538.8c-3.3,0.2-6.7,0.1-10-0.1c-2.4-0.2-3.6-1.3-3.6-3.3v-9.7h4.2v3.5
	c3.9-0.6,7.7-1.6,11.4-2.8l1.7,2.9c-4.3,1.3-8.7,2.3-13.1,3v2.1c0,0.7,0.5,1.1,1.4,1.2c2.4,0.3,4.9,0.3,7.3,0c1-0.1,1.5-0.5,1.7-1.1
	c0.2-0.6,0.3-1.2,0.2-1.8l3.5,0.4v2.6c0,0.5-0.1,0.9-0.3,1.3c-0.2,0.4-0.5,0.7-0.9,1C1067.1,538.5,1065.9,538.9,1064.7,538.8
	L1064.7,538.8z M1061.9,557.5l4-0.9c0,0,0.6,0.9,2,2.8c0.9,1.3,2.3,3.4,2.7,4l-4.8,0.8c0,0-0.7-1.4-1.8-3.4
	C1063.2,559.1,1062,557.5,1061.9,557.5L1061.9,557.5z"/>
<path class="st18" d="M1070.6,478.2h-93.9v32h93.9V478.2z"/>
<path class="st18" d="M1070.6,625.3h-93.9v20.8h93.9V625.3z"/>
<path class="st17" d="M1128.8,491.9h1.2l1.1,4.3l1.5-4.3h0.8l1.5,4.3l1.1-4.3h1.2l-1.9,6h-0.9l-1.4-4.1l-1.4,4.1h-0.9L1128.8,491.9z
	"/>
<path class="st17" d="M1138.5,491.9h1.2l1.1,4.3l1.5-4.3h0.8l1.5,4.3l1.1-4.3h1.2l-1.8,6h-0.9l-1.4-4.1l-1.4,4.1h-0.9L1138.5,491.9z
	"/>
<path class="st17" d="M1148.3,491.9h1.2l1.1,4.3l1.5-4.3h0.8l1.5,4.3l1-4.3h1.2l-1.8,6h-0.9l-1.4-4.1l-1.4,4.1h-0.9L1148.3,491.9z"
	/>
<path class="st17" d="M1157.7,496.6h1.3v1.2h-1.2L1157.7,496.6z"/>
<path class="st17" d="M1161.2,489.5h1.2v1.2h-1.2V489.5z M1161.2,491.9h1.2v6h-1.2V491.9z"/>
<path class="st17" d="M1164.7,491.9h1.2v6h-1.2V491.9z M1167.6,493c-0.2-0.1-0.3-0.1-0.5-0.1c-0.2,0-0.3,0-0.5,0.1
	c-0.2,0.1-0.3,0.1-0.4,0.2c-0.1,0.1-0.2,0.2-0.2,0.4c0,0.1-0.1,0.3-0.1,0.5l-0.1-1.2c0.2-0.3,0.4-0.6,0.7-0.8c0.3-0.2,0.6-0.3,1-0.3
	c0.2,0,0.5,0,0.7,0.1c0.2,0.1,0.4,0.2,0.6,0.4l-0.8,1C1167.9,493.2,1167.8,493.1,1167.6,493L1167.6,493z"/>
<path class="st17" d="M1171.3,497.6c-0.4-0.2-0.7-0.5-0.9-0.9c-0.2-0.4-0.3-0.9-0.3-1.4v-0.7c0-0.5,0.1-1,0.3-1.5
	c0.2-0.4,0.5-0.7,0.8-1c0.4-0.2,0.9-0.3,1.4-0.3c0.5,0,0.9,0.1,1.3,0.4c0.4,0.3,0.7,0.7,0.8,1.1c0.2,0.5,0.3,1.1,0.3,1.7v0.4h-4.1
	v-1h2.9c0-0.4-0.1-0.8-0.4-1.1c-0.1-0.1-0.2-0.2-0.4-0.3s-0.3-0.1-0.5-0.1c-0.2,0-0.4,0-0.6,0.1c-0.2,0.1-0.3,0.2-0.5,0.3
	c-0.3,0.4-0.4,0.8-0.4,1.2v0.8c0,0.4,0.1,0.8,0.4,1.2c0.3,0.3,0.7,0.4,1.1,0.4c0.2,0,0.5-0.1,0.7-0.1c0.2-0.1,0.5-0.2,0.6-0.4
	l0.8,0.8c-0.3,0.3-0.6,0.5-1,0.7c-0.3,0.2-0.7,0.2-1.1,0.2C1172.3,497.9,1171.8,497.9,1171.3,497.6z"/>
<path class="st17" d="M1177.4,497.5c-0.3-0.4-0.5-0.9-0.5-1.4c0-0.5,0.2-1,0.5-1.4c0.4-0.3,1-0.5,1.5-0.4h1.7l0.1,0.9h-1.8
	c-0.2,0-0.5,0.1-0.7,0.2c-0.1,0.1-0.2,0.2-0.2,0.3c0,0.1,0,0.2,0,0.3c0,0.1,0,0.3,0.1,0.4c0.1,0.1,0.1,0.2,0.2,0.3
	c0.3,0.2,0.6,0.2,0.9,0.2c0.3,0,0.7,0,1-0.1c0.1,0,0.2-0.1,0.2-0.2s0.1-0.2,0.1-0.3l0.1,0.9c-0.1,0.2-0.2,0.3-0.4,0.4
	c-0.2,0.1-0.3,0.2-0.5,0.2c-0.2,0.1-0.5,0.1-0.7,0.1C1178.5,498,1177.9,497.8,1177.4,497.5L1177.4,497.5z M1180.5,494.1
	c0-0.3-0.1-0.7-0.3-0.9c-0.1-0.1-0.3-0.2-0.4-0.3c-0.2-0.1-0.3-0.1-0.5-0.1c-0.2,0-0.5,0-0.7,0.1c-0.2,0.1-0.4,0.2-0.6,0.3l-0.9-0.6
	c0.2-0.3,0.5-0.5,0.9-0.6c0.4-0.2,0.8-0.2,1.2-0.2c0.4,0,0.9,0.1,1.3,0.3c0.3,0.2,0.6,0.4,0.8,0.8c0.2,0.4,0.3,0.8,0.3,1.2v3.9h-1.1
	V494.1z"/>
<path class="st17" d="M1184.9,497.7c-0.3-0.2-0.6-0.5-0.7-0.8c-0.2-0.4-0.2-0.9-0.2-1.3v-1.3c0-0.5,0.1-0.9,0.2-1.3
	c0.1-0.3,0.4-0.6,0.7-0.8c0.3-0.2,0.7-0.3,1.1-0.3c0.3,0,0.7,0.1,1,0.3c0.3,0.2,0.5,0.5,0.7,0.8l-0.1,1.2c0-0.2-0.1-0.5-0.2-0.7
	c-0.1-0.2-0.2-0.3-0.4-0.4c-0.2-0.1-0.4-0.1-0.6-0.1c-0.2,0-0.3,0-0.5,0.1s-0.3,0.2-0.4,0.3c-0.2,0.3-0.3,0.7-0.3,1v1.3
	c0,0.4,0.1,0.7,0.3,1c0.1,0.1,0.2,0.2,0.4,0.3c0.2,0.1,0.3,0.1,0.5,0.1c0.2,0,0.4,0,0.6-0.1c0.2-0.1,0.3-0.2,0.4-0.4
	c0.1-0.2,0.2-0.4,0.2-0.7v1.3c-0.1,0.3-0.4,0.6-0.6,0.8c-0.3,0.2-0.6,0.3-1,0.3C1185.6,498,1185.2,497.9,1184.9,497.7L1184.9,497.7z
	 M1187.5,489.5h1.2v8.4h-1.2L1187.5,489.5z"/>
<path class="st17" d="M1190.9,496.6h1.2v1.2h-1.2V496.6z"/>
<path class="st17" d="M1195.2,497.6c-0.4-0.2-0.7-0.5-0.9-0.9c-0.2-0.4-0.3-0.9-0.3-1.4v-1c0-0.5,0.1-1,0.3-1.4
	c0.2-0.4,0.5-0.7,0.9-0.9c0.7-0.3,1.5-0.4,2.3-0.2c0.3,0.1,0.5,0.2,0.7,0.3c0.2,0.1,0.4,0.3,0.6,0.5l-0.9,0.8
	c-0.2-0.2-0.4-0.3-0.6-0.4c-0.2-0.1-0.5-0.2-0.7-0.2c-0.2,0-0.4,0-0.6,0.1c-0.2,0.1-0.3,0.2-0.5,0.3c-0.3,0.3-0.4,0.7-0.4,1.1v1
	c0,0.4,0.1,0.8,0.4,1.1c0.1,0.1,0.3,0.2,0.5,0.3c0.2,0.1,0.4,0.1,0.6,0.1c0.2,0,0.5-0.1,0.7-0.2c0.2-0.1,0.4-0.3,0.6-0.5l0.9,0.8
	c-0.2,0.2-0.3,0.4-0.6,0.5c-0.2,0.1-0.5,0.3-0.8,0.3c-0.3,0.1-0.6,0.1-0.9,0.1C1196.1,498,1195.6,497.9,1195.2,497.6L1195.2,497.6z"
	/>
<path class="st17" d="M1201.6,497.6c-0.4-0.2-0.7-0.5-0.8-0.9c-0.2-0.4-0.3-0.9-0.3-1.4v-1c0-0.5,0.1-1,0.3-1.4
	c0.2-0.4,0.5-0.7,0.8-0.9c0.4-0.2,0.9-0.3,1.3-0.3c0.5,0,0.9,0.1,1.3,0.3c0.4,0.2,0.7,0.5,0.8,0.9c0.2,0.4,0.3,0.9,0.3,1.4v1
	c0,0.5-0.1,1-0.3,1.4c-0.2,0.4-0.5,0.7-0.8,0.9c-0.4,0.2-0.9,0.3-1.3,0.3C1202.4,498,1202,497.9,1201.6,497.6z M1203.9,496.5
	c0.2-0.3,0.3-0.7,0.3-1.1v-1c0-0.4-0.1-0.8-0.3-1.1c-0.2-0.2-0.6-0.3-0.9-0.3c-0.2,0-0.4,0-0.5,0.1c-0.2,0.1-0.3,0.2-0.4,0.3
	c-0.2,0.3-0.4,0.7-0.3,1.1v1c0,0.4,0.1,0.8,0.3,1.1c0.1,0.1,0.3,0.2,0.4,0.3c0.2,0.1,0.3,0.1,0.5,0.1c0.2,0,0.3,0,0.5-0.1
	C1203.7,496.7,1203.8,496.6,1203.9,496.5L1203.9,496.5z"/>
<path class="st17" d="M1207.7,491.9h1.2v6h-1.2V491.9z M1211.3,494.2c0-0.4-0.1-0.7-0.3-1c-0.1-0.1-0.2-0.2-0.4-0.2
	c-0.1-0.1-0.3-0.1-0.5-0.1c-0.2,0-0.3,0-0.5,0.1c-0.2,0.1-0.3,0.1-0.4,0.2c-0.1,0.1-0.2,0.2-0.2,0.4c0,0.1-0.1,0.3-0.1,0.5l-0.1-1.2
	c0.2-0.3,0.4-0.6,0.7-0.8c0.3-0.2,0.6-0.3,1-0.3c0.4,0,0.8,0.1,1.1,0.3c0.3,0.2,0.5,0.5,0.7,0.8c0.2,0.4,0.2,0.9,0.2,1.3v3.7h-1.2
	L1211.3,494.2z M1214.9,494.2c0-0.4-0.1-0.7-0.3-1c-0.1-0.1-0.3-0.2-0.4-0.3c-0.2-0.1-0.3-0.1-0.5-0.1c-0.2,0-0.3,0-0.5,0.1
	c-0.2,0.1-0.3,0.1-0.4,0.3c-0.2,0.3-0.3,0.6-0.3,1l-0.2-1.2c0.2-0.4,0.4-0.7,0.8-0.9c0.3-0.2,0.7-0.3,1-0.3c0.4,0,0.8,0.1,1.1,0.3
	c0.3,0.2,0.6,0.5,0.7,0.8c0.2,0.4,0.2,0.9,0.2,1.3v3.7h-1.2V494.2z"/>
<path class="st17" d="M1218.2,496.6h1.2v1.2h-1.2V496.6z"/>
<path class="st17" d="M1221.2,491.9h2.7v1.1h-2.7V491.9z M1222.2,497.5c-0.3-0.3-0.4-0.8-0.3-1.2v-6.3h1.2v6.2c0,0.1,0,0.2,0.1,0.3
	c0,0,0.1,0.1,0.1,0.1c0.1,0,0.1,0,0.2,0h0.6v1.1h-0.7c-0.2,0-0.4,0-0.6-0.1C1222.5,497.7,1222.3,497.6,1222.2,497.5L1222.2,497.5z"
	/>
<path class="st17" d="M1225.6,491.9h1.2l1.1,4.3l1.5-4.3h0.8l1.5,4.3l1.1-4.3h1.2l-1.9,6h-0.9l-1.4-4.1l-1.4,4.1h-0.9L1225.6,491.9z
	"/>
<path class="st0" d="M971.9,661.3c-11.9,0-43.6-5.9-47.7-33c-1.5-9.7-2.1-19.5-1.8-29.4c0.1-6.8,0.1-12.2-1.7-18.1
	c-3.1-10.1-6.3-22.9-6.4-23.1l-0.1-0.5l0.4-0.3c0.5-0.4,13.2-9.6,27.2-9.6c4.2,0,8.4,0.9,12.1,2.8l0.4,0.2l1.2,19.4
	c0.1,1.5,0.6,2.9,1.5,4.1c0.9,1.2,2.1,2.1,3.4,2.6c5.5,2,16.1,7.3,25.6,19.9c13.4,17.8,14.2,22.9,11.5,25.1
	c-0.5,0.4-1.1,0.5-1.7,0.5c-3.6,0-12.1-4-25.7-10.6c-1.4-0.8-2.9-1.2-4.5-1.3c-0.5,0-1,0.1-1.5,0.3c-0.5,0.2-0.8,0.5-1.1,1
	c-2.5,3.5,0.1,13.3,1.3,16.8c0,0.3,3.4,17.1,21.4,20.5c5.6,1.1,8.2,2.6,8,4.7C993.2,657.7,979,661.3,971.9,661.3z"/>
<path class="st0" d="M941.9,548.1c4.1,0,8.1,0.9,11.8,2.7l1.2,18.9c0.1,1.6,0.6,3.1,1.6,4.4c0.9,1.3,2.3,2.3,3.8,2.9
	c5.9,2.2,16,7.5,25.2,19.7c13.9,18.5,13.6,22.5,11.6,24.2c-0.4,0.3-0.8,0.4-1.3,0.3c-3.5,0-12.2-4.1-25.3-10.5
	c-1.5-0.8-3.1-1.3-4.8-1.4c-8.5,0-2,18.9-2,18.9c1.2,5.3,4,10.1,7.9,13.8c3.9,3.7,8.8,6.2,14.2,7.2c18.7,3.5-2.6,11.4-13.6,11.4
	c-13.6,0-43.2-6.6-47.1-32.4c-3.8-25.8,0.2-35.3-3.5-47.6c-3.1-10.2-6.4-23-6.4-23S928,548.1,941.9,548.1L941.9,548.1z M941.9,546.7
	c-14.2,0-27,9.4-27.6,9.8l-0.8,0.6l0.2,0.9c0,0.1,3.3,13,6.4,23.1c1.8,5.8,1.7,11.1,1.6,17.9c-0.3,9.9,0.3,19.7,1.8,29.5
	c4.1,27.6,36.3,33.6,48.4,33.6c7.4,0,22-3.7,22.5-8.7c0.3-3.4-4.7-4.7-8.5-5.5c-5-0.9-9.7-3.3-13.4-6.8c-3.7-3.5-6.3-8-7.5-13V628
	v-0.1c-1.6-4.7-3.4-13.3-1.4-16.1c0.2-0.3,0.5-0.6,0.9-0.7c0.4-0.2,0.7-0.2,1.1-0.2c1.5,0.1,2.9,0.5,4.3,1.2
	c14.9,7.2,22.4,10.6,26,10.6c0.8,0,1.5-0.2,2.2-0.7c3.2-2.5,2.4-7.8-11.4-26.1c-9.5-12.7-20.3-18.1-25.8-20.1
	c-1.3-0.5-2.4-1.3-3.2-2.4c-0.8-1.1-1.3-2.4-1.3-3.7l-1.2-19v-0.8l-0.7-0.4C950.5,547.6,946.2,546.6,941.9,546.7L941.9,546.7z"/>
<path class="st19" d="M915.1,557.6c0,0,21.2-15.6,38.6-6.8"/>
<path class="st0" d="M1235.1,661.3c-7.1,0-21.3-3.7-21.7-8.1c-0.2-2.1,2.4-3.6,8-4.7c18-3.4,21.4-20.2,21.4-20.4
	c1.2-3.6,3.8-13.4,1.3-16.9c-0.3-0.4-0.7-0.7-1.1-1c-0.5-0.2-1-0.3-1.5-0.3c-1.6,0.1-3.1,0.5-4.5,1.3c-13.6,6.6-22.1,10.6-25.7,10.6
	c-0.6,0-1.2-0.1-1.7-0.5c-2.9-2.2-1.9-7.3,11.5-25.1c9.4-12.6,20-17.9,25.6-19.9c1.4-0.5,2.6-1.4,3.4-2.6c0.9-1.2,1.4-2.6,1.4-4.1
	l1.2-19.4l0.4-0.2c3.8-1.9,7.9-2.9,12.1-2.8c14,0,26.6,9.2,27.2,9.6l0.4,0.3l-0.1,0.5c0,0.1-3.3,13-6.4,23.1
	c-1.8,5.9-1.7,11.3-1.7,18.1c0.3,9.8-0.3,19.7-1.8,29.4C1278.7,655.4,1246.9,661.3,1235.1,661.3z"/>
<path class="st0" d="M1265.1,548.1c13.9,0,26.8,9.5,26.8,9.5s-3.2,12.9-6.3,23c-3.7,12.2,0.4,21.8-3.5,47.6
	c-3.9,25.8-33.5,32.4-47,32.4c-11,0-32.4-7.8-13.6-11.4c5.3-1,10.2-3.5,14.1-7.2c3.9-3.7,6.6-8.5,7.9-13.8c0,0,6.5-18.8-2-18.8
	c-1.7,0.1-3.3,0.6-4.8,1.4c-13.2,6.4-21.9,10.5-25.4,10.5c-0.4,0-0.9-0.1-1.3-0.3c-2-1.6-2.3-5.7,11.6-24.2
	c9.2-12.2,19.3-17.5,25.2-19.7c1.5-0.6,2.8-1.6,3.8-2.9c0.9-1.3,1.5-2.8,1.6-4.4l1.2-18.9c3.7-1.8,7.7-2.8,11.8-2.7V548.1z
	 M1265.1,546.8c-4.3-0.1-8.6,0.9-12.4,2.8l-0.7,0.4v0.8l-1.2,18.8c-0.1,1.3-0.5,2.6-1.3,3.7c-0.8,1.1-1.9,1.9-3.1,2.4
	c-5.6,2.1-16.3,7.4-25.9,20.1c-13.8,18.3-14.5,23.6-11.4,26.1c0.6,0.5,1.4,0.7,2.2,0.7c3.6,0,11-3.4,26-10.6
	c1.3-0.7,2.8-1.1,4.3-1.2c0.4,0,0.8,0,1.1,0.2c0.3,0.2,0.7,0.4,0.9,0.7c2,2.8,0.2,11.4-1.4,16.1v0.1v0.1c-1.1,5-3.7,9.5-7.5,13
	c-3.7,3.5-8.4,5.9-13.4,6.7c-3.8,0.7-8.9,2.1-8.5,5.5c0.5,5,15,8.7,22.4,8.7c12.1,0,44.2-6,48.4-33.6c1.5-9.8,2.1-19.6,1.8-29.5
	c-0.1-6.8-0.1-12.1,1.6-17.9c3.1-10.1,6.3-23,6.4-23.1l0.2-0.9l-0.8-0.6c-0.5-0.4-13.4-9.8-27.6-9.8L1265.1,546.8z"/>
<path class="st19" d="M1291.9,557.6c0,0-21.2-15.6-38.6-6.8"/>
<path class="st18" d="M1014,422.9h56.6v55.3h-93.9L1014,422.9z"/>
<path class="st13" d="M1129.9,1091.1L1129.9,1091.1c4.3,0,8.6,0.5,12.8,1.5l7.8,1.9l0.1-0.5l-0.1,0.5c8.9,2.1,18,3.2,27.1,3.2l0,0
	h49.9v9.3h-49.9l0,0c-9,0-18.1-1.1-26.9-3.2l-7.8-1.9l0,0c-4.3-1-8.7-1.6-13.1-1.6l0,0h-18.5v-9.3H1129.9z"/>
</svg>
