<svg width="200" height="26" viewBox="0 0 200 26" fill="none" xmlns="http://www.w3.org/2000/svg">
<g clip-path="url(#clip0_150_82)">
<path d="M99.2598 3.33488C100.59 3.31026 101.917 3.4783 103.198 3.83377C104.178 4.10029 105.101 4.54536 105.919 5.14665C106.596 5.65763 107.135 6.32721 107.492 7.09627C107.831 7.83103 108.008 8.63038 108.01 9.43975C108.006 10.0934 107.895 10.742 107.682 11.3598C107.458 12.0105 107.116 12.6146 106.674 13.142C106.175 13.7324 105.575 14.2292 104.902 14.6092C104.073 15.0708 103.175 15.3966 102.243 15.5742L108.568 23.7337H103.29L97.0838 15.8564H89.991C89.5347 15.8564 89.3083 16.0271 89.3083 16.3717V23.7435H84.5524V15.6661C84.5524 14.5173 84.8806 13.6967 85.56 13.188C86.2394 12.6793 87.3193 12.4331 88.8225 12.4331H99.4207C100.008 12.4451 100.593 12.3631 101.154 12.1902C101.582 12.0601 101.979 11.8446 102.322 11.5568C102.606 11.306 102.83 10.9955 102.979 10.6476C103.124 10.3143 103.199 9.95444 103.198 9.59073C103.197 9.22867 103.115 8.87151 102.958 8.5451C102.801 8.2187 102.574 7.93121 102.293 7.70347C101.689 7.16738 100.728 6.90043 99.4108 6.90262H84.513V3.33488H99.2598Z" fill="#9C8A72"/>
<path d="M136.089 3.33492V6.90266H122.471C121.021 6.90266 119.973 7.1335 119.327 7.5952C119.019 7.79972 118.767 8.07864 118.595 8.40619C118.423 8.73374 118.336 9.09937 118.343 9.46933C118.343 11.0842 119.726 11.8905 122.494 11.8883H135.873V15.1213H122.389C119.621 15.1213 118.239 15.9473 118.241 17.5993C118.229 17.9745 118.316 18.3462 118.492 18.6778C118.668 19.0093 118.928 19.2892 119.245 19.4898C119.917 19.9428 120.952 20.1693 122.35 20.1693H136.135V23.7337H122.35C120.961 23.7576 119.573 23.6154 118.218 23.3103C117.218 23.0888 116.264 22.6957 115.398 22.1484C114.712 21.714 114.156 21.1029 113.787 20.3793C113.45 19.6934 113.278 18.938 113.285 18.1737C113.248 17.1105 113.606 16.0713 114.289 15.2558C115.078 14.4103 116.086 13.7992 117.2 13.49C114.649 12.7045 113.373 11.1728 113.373 8.89494C113.366 8.11851 113.546 7.35181 113.898 6.65978C114.283 5.93757 114.848 5.32786 115.54 4.89068C116.404 4.34483 117.359 3.95697 118.359 3.74519C119.716 3.44994 121.103 3.31227 122.491 3.33492H136.089Z" fill="#9C8A72"/>
<path d="M146.005 23.7337H140.753L150.301 5.60286C150.756 4.68889 151.52 3.96561 152.458 3.56134C153.596 3.13118 154.809 2.93147 156.025 2.97383C157.228 2.93383 158.426 3.13354 159.55 3.56134C160.482 3.95935 161.234 4.68599 161.664 5.60286L170.854 23.7337H165.586L157.325 7.32272C157.198 7.09123 157.006 6.90199 156.773 6.77834C156.539 6.65469 156.275 6.60204 156.012 6.6269C155.737 6.59842 155.46 6.6491 155.213 6.77295C154.966 6.89681 154.759 7.08869 154.617 7.32601L146.005 23.7337Z" fill="#9C8A72"/>
<path d="M187.767 3.33447C191.772 3.33447 194.814 4.17143 196.895 5.84535C198.976 7.51926 200.016 10.087 200.016 13.5486C200.016 16.9949 198.976 19.5539 196.895 21.2257C194.814 22.8974 191.772 23.7333 187.767 23.7333H178.16C176.654 23.7333 175.902 23.1819 175.902 22.0725V5.00511C175.902 3.89573 176.655 3.34104 178.16 3.34104L187.767 3.33447ZM180.674 19.8078C180.674 20.0474 180.848 20.1688 181.2 20.1688H187.764C190.39 20.1688 192.297 19.6448 193.485 18.5966C194.673 17.5485 195.265 15.856 195.261 13.5191C195.261 11.1822 194.675 9.49514 193.505 8.45797C192.334 7.4208 190.421 6.90221 187.767 6.90221H181.203C180.852 6.90221 180.678 7.02365 180.678 7.26325L180.674 19.8078Z" fill="#9C8A72"/>
<path d="M77.0165 3.33447H72.2606V7.493H77.0165V3.33447Z" fill="#9C8A72"/>
<path d="M77.0165 12.4951H72.2606V23.7366H77.0165V12.4951Z" fill="#9C8A72"/>
<path d="M9.44942 5.711C8.37942 13.0172 6.38714 18.7577 2.19578 22.7127C1.53426 21.9543 0.798682 21.2638 0 20.6515C3.87298 17.3299 5.6946 12.1671 6.61689 5.711H0.810701V3.23952H6.93526C7.05014 2.19578 7.13876 1.12579 7.22409 0L10.0862 0.193649C9.99754 1.23738 9.88267 2.25158 9.75794 3.23952H25.4501V5.711H9.44942ZM18.1768 6.92213C18.1339 9.26686 17.931 11.6059 17.5695 13.923C19.2106 17.9601 22.2532 21.3933 26.1229 23.1132C25.4449 23.6979 24.8605 24.3831 24.3899 25.1448C21.1537 23.5234 18.5542 20.8058 16.6735 17.4284C15.4033 20.855 12.9745 23.5628 8.23173 25.2925C7.81945 24.5155 7.27144 23.8185 6.61361 23.2346C14.8191 20.4054 15.167 14.527 15.4296 6.92213H18.1768ZM8.98663 15.6265C9.82687 14.1429 10.5489 11.8093 10.9231 9.99754L13.1189 10.7393C12.7152 12.5773 12.108 15.0062 11.271 16.4766L8.98663 15.6265ZM19.3912 14.8289C20.4602 13.2234 21.361 11.512 22.0793 9.72184L24.3768 10.7656C23.5004 12.5198 22.5137 14.2168 21.4228 15.8464L19.3912 14.8289Z" fill="#323232"/>
<path d="M34.5187 24.9643L32.0046 24.0453C32.6425 23.5005 33.2152 22.8837 33.7113 22.2073C34.221 21.5472 34.6848 20.8531 35.0997 20.1297L37.6696 20.6121C37.2373 21.4538 36.7298 22.2546 36.1533 23.0048C35.3721 24.0858 34.8273 24.7389 34.5187 24.9643ZM32.5264 6.58406L32.382 4.57865C32.7857 4.57865 33.2584 4.57865 33.7967 4.55239C34.7521 3.32945 35.5761 2.0093 36.255 0.61377L38.756 1.02076C38.3928 1.84349 37.627 2.99664 36.4585 4.48018L41.4868 4.20448C41.0634 3.62025 40.6761 3.12464 40.3315 2.72093L42.4386 1.73628C43.0184 2.38591 43.5411 3.08432 44.001 3.82375C44.792 5.03159 45.2745 5.75696 45.4451 5.99327L43.2198 6.8171C43.0065 6.48888 42.8063 6.17707 42.6126 5.88496C39.8403 6.13878 36.476 6.3751 32.5199 6.59391L32.5264 6.58406ZM41.4277 15.0521H35.9071V18.8857H33.3929V7.67703H43.9124V17.0838C43.9088 17.3179 43.8523 17.5481 43.7471 17.7573C43.642 17.9664 43.4909 18.1491 43.3051 18.2916C42.8152 18.6854 42.2003 18.8904 41.5722 18.8693H39.4519L39.2516 16.8081H40.7057C41.1849 16.8081 41.4277 16.644 41.4277 16.3157V15.0521ZM41.4277 10.6868V9.29515H35.9071V10.6966L41.4277 10.6868ZM35.9071 13.5423H41.4277V12.1507H35.9071V13.5423ZM41.024 24.7936C40.5623 23.4808 40.0514 22.0705 39.4912 20.5629L41.9759 20.1297C42.3435 20.8064 42.6626 21.5084 42.931 22.2302C43.2449 22.9229 43.5157 23.6343 43.7417 24.3604L41.024 24.7936ZM47.7295 24.577C47.1322 23.2641 46.4757 21.8615 45.7602 20.3692L48.2186 19.8638C48.3127 20.0235 48.6879 20.7161 49.3444 21.9414C50.0008 23.1657 50.3651 23.8582 50.4439 24.019L47.7295 24.577ZM54.8387 18.482C52.6738 18.6356 50.5004 18.6269 48.3367 18.4557C47.7001 18.3994 47.1 18.134 46.63 17.7008C46.4258 17.5094 46.264 17.2773 46.1549 17.0195C46.0458 16.7618 45.9918 16.484 45.9965 16.2042V10.5489H48.6518V11.9472C52.0456 11.3432 54.5029 10.7306 56.0236 10.1091L57.0641 12.1408C55.5324 12.6725 52.7283 13.2578 48.6518 13.8968V15.5379C48.6518 15.9613 48.9538 16.2238 49.5479 16.3354C51.8432 16.5543 53.5204 16.5455 54.5795 16.3092C54.7722 16.2922 54.9554 16.2173 55.1048 16.0943C55.2542 15.9713 55.3628 15.8059 55.4164 15.6199C55.4755 15.4394 55.5411 15.4689 55.6199 14.1692L57.7894 14.4154V16.3092C57.7861 16.5929 57.7131 16.8715 57.5769 17.1205C57.4407 17.3694 57.2454 17.5811 57.0083 17.7369C56.3819 18.2081 55.6224 18.4689 54.8387 18.482ZM54.5105 9.0654C52.44 9.16133 50.3658 9.1427 48.2974 9.0096C46.8138 8.8805 46.072 8.19453 46.072 6.95167V0.909166H48.642V3.07869C51.7469 2.50978 54.0893 1.91461 55.6691 1.29318L56.7358 3.10823C54.9635 3.69246 52.2655 4.31389 48.642 4.97251V6.26569C48.642 6.68581 48.9341 6.92213 49.5118 7.00747C51.0178 7.18868 52.5397 7.19749 54.0477 7.03373C54.6484 6.97793 54.993 6.74489 55.0882 6.33134C55.2193 5.96802 55.2686 5.58026 55.2326 5.1957L57.3726 5.44187V7.00747C57.3688 7.28557 57.2986 7.55874 57.1678 7.80423C57.0371 8.04972 56.8496 8.26043 56.621 8.41881C56.003 8.85098 55.2645 9.07725 54.5105 9.0654ZM52.83 20.6154L55.3015 20.0312C55.3015 20.0312 55.6987 20.5662 56.5389 21.7511C57.1231 22.5749 57.9962 23.8845 58.18 24.2225L55.226 24.6985C55.226 24.6985 54.7698 23.7926 54.0937 22.6077C53.562 21.646 52.8399 20.6154 52.8399 20.6154H52.83Z" fill="#323232"/>
</g>
<defs>
<clipPath id="clip0_150_82">
<rect width="200" height="25.2925" fill="white"/>
</clipPath>
</defs>
</svg>
