<svg width="320" height="240" viewBox="0 0 320 240" fill="none" xmlns="http://www.w3.org/2000/svg">
<path d="M209.552 146.622C241.81 149.823 241.831 163.477 245.114 174.51C245.573 176.058 246.52 177.416 247.814 178.381C249.109 179.346 250.681 179.867 252.295 179.866H284.662C320.771 168.861 283.221 58.0045 272.389 43.5815C263.62 31.9207 223.157 31.547 208.051 31.8286C206.527 31.8556 205.073 32.4803 204.005 33.5683C202.936 34.6562 202.337 36.1204 202.337 37.6454V138.726C202.342 140.703 203.084 142.608 204.418 144.068C205.752 145.528 207.582 146.439 209.552 146.622V146.622Z" fill="#3F3D56"/>
<path d="M292.353 165.172C293.737 165.172 294.86 158.106 294.86 149.39C294.86 140.673 293.737 133.607 292.353 133.607C290.968 133.607 289.845 140.673 289.845 149.39C289.845 158.106 290.968 165.172 292.353 165.172Z" stroke="white" stroke-miterlimit="10"/>
<path d="M292.353 161.701C293.432 161.701 294.308 156.189 294.308 149.39C294.308 142.591 293.432 137.079 292.353 137.079C291.273 137.079 290.397 142.591 290.397 149.39C290.397 156.189 291.273 161.701 292.353 161.701Z" fill="white"/>
<path d="M217.08 44.2801C222.176 41.7346 235.792 41.8104 241.945 42.8936C244.187 43.289 246.408 43.2511 246.728 51.3535C247.085 60.3063 247.811 90.75 247.811 90.75C247.811 90.75 249.105 99.5024 239.188 93.5393C229.272 87.5762 215.899 79.1813 214.854 68.3058C213.771 57.0187 212 46.8094 217.08 44.2801Z" fill="white"/>
<path d="M274.604 46.9665C274.604 46.9665 258.746 42.8719 259.065 51.1748C259.385 59.4776 258.426 105.205 267.894 105.91C277.361 106.614 294.86 106.386 294.86 106.386C294.86 106.386 290.305 70.9001 274.604 46.9665Z" fill="white"/>
<path d="M250.741 42.8882L255.074 146.146C255.225 149.807 245.715 149.763 244.707 148.225C241.718 143.67 229.856 134.279 213.44 132.703C210.797 132.454 208.858 130.753 208.907 128.792L208.328 42.612C208.328 38.9886 208.544 39.4111 245.449 39.1186C248.298 39.0915 250.66 40.7759 250.741 42.8882Z" stroke="white" stroke-miterlimit="10"/>
<path d="M221.646 136.657H24.2733V146.519H221.646V136.657Z" fill="#3F3D56"/>
<path d="M180.234 176.763C180.235 177.803 180.287 178.842 180.392 179.877H24.2733V146.297H210.722C202.64 146.297 194.888 149.506 189.172 155.219C183.455 160.932 180.24 168.681 180.234 176.763V176.763Z" fill="#3F3D56"/>
<path d="M196.927 19.22H20V132.427H196.927V19.22Z" fill="#9C8A72"/>
<path d="M244.139 182.287C244.139 190.373 240.927 198.127 235.209 203.845C229.492 209.562 221.737 212.774 213.652 212.774C206.105 212.773 198.827 209.974 193.224 204.918C187.622 199.862 184.094 192.908 183.322 185.401C183.217 184.366 183.165 183.327 183.165 182.287C183.164 178.283 183.952 174.318 185.484 170.619C187.016 166.92 189.261 163.559 192.092 160.728C194.924 157.897 198.285 155.651 201.984 154.119C205.683 152.587 209.648 151.799 213.652 151.8C214.664 151.8 215.666 151.849 216.652 151.946C224.182 152.691 231.166 156.209 236.246 161.817C241.326 167.424 244.139 174.72 244.139 182.287V182.287Z" fill="#3A3734"/>
<path d="M233.529 182.287C233.529 187.559 231.434 192.614 227.707 196.342C223.979 200.07 218.923 202.164 213.652 202.164C208.727 202.162 203.979 200.334 200.326 197.032C196.673 193.73 194.375 189.19 193.878 184.291C193.813 183.625 193.775 182.948 193.775 182.265C193.774 179.655 194.288 177.069 195.286 174.657C196.285 172.245 197.749 170.053 199.595 168.207C201.44 166.36 203.632 164.896 206.044 163.897C208.456 162.897 211.041 162.383 213.652 162.383C214.305 162.382 214.957 162.415 215.607 162.48C220.521 162.966 225.078 165.263 228.391 168.925C231.703 172.586 233.535 177.349 233.529 182.287V182.287Z" fill="#B5B5B5"/>
<path d="M78.1957 212.769C95.0332 212.769 108.683 199.119 108.683 182.282C108.683 165.444 95.0332 151.795 78.1957 151.795C61.3581 151.795 47.7086 165.444 47.7086 182.282C47.7086 199.119 61.3581 212.769 78.1957 212.769Z" fill="#3A3734"/>
<path d="M98.0727 182.282C98.0727 184.892 97.5585 187.477 96.5596 189.888C95.5607 192.3 94.0966 194.491 92.2508 196.337C90.4051 198.183 88.2139 199.647 85.8023 200.646C83.3907 201.644 80.806 202.159 78.1957 202.159C73.2748 202.159 68.5286 200.335 64.8751 197.038C61.2215 193.742 58.9202 189.208 58.4162 184.313C58.3512 183.646 58.3133 182.969 58.3133 182.282C58.3147 177.009 60.4101 171.954 64.1386 168.226C67.8671 164.499 72.9235 162.405 78.1957 162.405C78.8486 162.404 79.5012 162.437 80.1509 162.502C85.06 162.987 89.6132 165.281 92.9255 168.936C96.2378 172.592 98.0724 177.349 98.0727 182.282Z" fill="#B5B5B5"/>
</svg>
