<svg width="320" height="240" viewBox="0 0 320 240" fill="none" xmlns="http://www.w3.org/2000/svg">
<g clip-path="url(#clip0_103_1559)">
<path d="M160 212.769C248.366 212.769 320 207.172 320 200.269C320 193.365 248.366 187.769 160 187.769C71.6344 187.769 0 193.365 0 200.269C0 207.172 71.6344 212.769 160 212.769Z" fill="#3F3D56"/>
<path d="M251.012 60.634H52.3731V200.172H251.012V60.634Z" fill="#F2F2F2"/>
<path d="M118.969 113.876H69.0923V200.942H118.969V113.876Z" fill="#3F3D56"/>
<path d="M91.7538 119.099H78.3192V131.623H91.7538V119.099Z" fill="#F2F2F2"/>
<path d="M109.742 119.099H96.3077V131.623H109.742V119.099Z" fill="#F2F2F2"/>
<path d="M91.7538 136.176H78.3192V149.157H91.7538V136.176Z" fill="#F2F2F2"/>
<path d="M109.742 136.176H96.3077V149.157H109.742V136.176Z" fill="#F2F2F2"/>
<path d="M112.627 166.442C114.379 166.442 115.8 165.021 115.8 163.269C115.8 161.516 114.379 160.096 112.627 160.096C110.874 160.096 109.454 161.516 109.454 163.269C109.454 165.021 110.874 166.442 112.627 166.442Z" fill="#9C8A72"/>
<path d="M234.292 105.611H135.692V188.353H234.292V105.611Z" fill="#3F3D56"/>
<path d="M271.769 86.9033H31.6154L47.6269 53.4264L51.2115 45.9302L55.9 36.1302L59.4808 28.6341L63.6385 19.9495H252.85L255.304 28.6341L257.419 36.1302L260.192 45.9302L262.312 53.4264L271.769 86.9033Z" fill="#3F3D56"/>
<path d="M142.608 139.919H139.15V161.253H142.608V139.919Z" fill="#9C8A72"/>
<path d="M142.608 143.088H139.15V145.684H142.608V143.088Z" fill="#F2F2F2"/>
<path d="M142.608 155.484H139.15V158.08H142.608V155.484Z" fill="#F2F2F2"/>
<path d="M152.704 139.919H144.342V161.253H152.704V139.919Z" fill="#9C8A72"/>
<path d="M152.704 143.088H144.342V145.684H152.704V143.088Z" fill="#F2F2F2"/>
<path d="M152.704 155.484H144.342V158.08H152.704V155.484Z" fill="#F2F2F2"/>
<path d="M158.177 139.919H154.719V161.253H158.177V139.919Z" fill="#9C8A72"/>
<path d="M158.177 143.088H154.719V145.684H158.177V143.088Z" fill="#F2F2F2"/>
<path d="M158.177 155.484H154.719V158.08H158.177V155.484Z" fill="#F2F2F2"/>
<path d="M163.365 139.919H159.908V161.253H163.365V139.919Z" fill="#9C8A72"/>
<path d="M163.365 143.088H159.908V145.684H163.365V143.088Z" fill="#F2F2F2"/>
<path d="M163.365 155.484H159.908V158.08H163.365V155.484Z" fill="#F2F2F2"/>
<path d="M166.69 140.01L163.454 141.229L170.978 161.193L174.214 159.974L166.69 140.01Z" fill="#9C8A72"/>
<path d="M167.812 142.978L164.576 144.198L165.492 146.627L168.728 145.407L167.812 142.978Z" fill="#F2F2F2"/>
<path d="M172.183 154.579L168.948 155.798L169.863 158.228L173.099 157.008L172.183 154.579Z" fill="#F2F2F2"/>
<path d="M231.119 139.919H222.758V161.253H231.119V139.919Z" fill="#9C8A72"/>
<path d="M231.119 143.088H222.758V145.684H231.119V143.088Z" fill="#F2F2F2"/>
<path d="M231.119 155.484H222.758V158.08H231.119V155.484Z" fill="#F2F2F2"/>
<path d="M220.738 139.919H217.281V161.253H220.738V139.919Z" fill="#9C8A72"/>
<path d="M220.738 143.088H217.281V145.684H220.738V143.088Z" fill="#F2F2F2"/>
<path d="M220.738 155.484H217.281V158.08H220.738V155.484Z" fill="#F2F2F2"/>
<path d="M215.55 139.919H212.092V161.253H215.55V139.919Z" fill="#9C8A72"/>
<path d="M215.55 143.088H212.092V145.684H215.55V143.088Z" fill="#F2F2F2"/>
<path d="M215.55 155.484H212.092V158.08H215.55V155.484Z" fill="#F2F2F2"/>
<path d="M208.745 139.972L201.221 159.936L204.456 161.156L211.98 141.192L208.745 139.972Z" fill="#9C8A72"/>
<path d="M207.627 142.939L206.712 145.368L209.947 146.587L210.863 144.158L207.627 142.939Z" fill="#F2F2F2"/>
<path d="M203.255 154.537L202.34 156.966L205.575 158.186L206.491 155.756L203.255 154.537Z" fill="#F2F2F2"/>
<path d="M234.292 161.253H135.692V163.273H234.292V161.253Z" fill="#F2F2F2"/>
<path d="M196.812 139.919H178.65V161.253H196.812V139.919Z" fill="#9C8A72"/>
<path d="M192.346 144.53H183.119V148.565H192.346V144.53Z" fill="#F2F2F2"/>
<path d="M185.858 105.611H184.127V124.061H185.858V105.611Z" fill="#F2F2F2"/>
<path d="M184.992 126.946C186.585 126.946 187.877 125.654 187.877 124.061C187.877 122.468 186.585 121.176 184.992 121.176C183.399 121.176 182.108 122.468 182.108 124.061C182.108 125.654 183.399 126.946 184.992 126.946Z" fill="#F2F2F2"/>
<path d="M257.419 36.1302H55.9L59.4808 28.634H255.304L257.419 36.1302Z" fill="#9C8A72"/>
<path d="M262.312 53.4263H47.6269L51.2115 45.9302H260.192L262.312 53.4263Z" fill="#9C8A72"/>
</g>
<defs>
<clipPath id="clip0_103_1559">
<rect width="320" height="192.819" fill="white" transform="translate(0 19.9495)"/>
</clipPath>
</defs>
</svg>
