<svg width="320" height="240" viewBox="0 0 320 240" fill="none" xmlns="http://www.w3.org/2000/svg">
<g clip-path="url(#clip0_103_1559)">
<path d="M151.593 46.0777C151.648 46.324 151.686 46.5739 151.705 46.8256L171.302 58.1239L176.062 55.3843L181.121 62.0433L173.166 67.7145C172.523 68.1722 171.749 68.4091 170.96 68.3896C170.171 68.3702 169.41 68.0954 168.791 67.6065L148.598 51.6449C147.708 51.9777 146.739 52.0388 145.814 51.8204C144.889 51.602 144.05 51.1139 143.402 50.418C142.755 49.7221 142.329 48.8497 142.178 47.9114C142.027 46.9731 142.159 46.0111 142.555 45.1474C142.951 44.2837 143.595 43.5572 144.405 43.0599C145.215 42.5626 146.154 42.3169 147.104 42.354C148.054 42.3911 148.971 42.7093 149.739 43.2683C150.508 43.8272 151.093 44.6018 151.421 45.4938C151.492 45.6788 151.549 45.8686 151.593 46.0617V46.0777Z" fill="#FFB6B6"/>
<path d="M171.558 56.8761C171.62 56.5876 171.743 56.316 171.92 56.0798C172.097 55.8437 172.323 55.6487 172.582 55.5083L181.617 50.581C182.823 49.7525 184.303 49.42 185.748 49.6524C187.193 49.8849 188.493 50.6645 189.379 51.8297C190.265 52.9949 190.669 54.4563 190.507 55.9111C190.345 57.3658 189.629 58.7023 188.508 59.6437L181.265 67.0066C180.879 67.391 180.357 67.6069 179.813 67.6069C179.269 67.6069 178.747 67.391 178.361 67.0066C178.29 66.9376 178.224 66.8627 178.165 66.7826L171.926 58.5078C171.753 58.2773 171.631 58.0127 171.567 57.7314C171.504 57.4501 171.501 57.1586 171.558 56.8761V56.8761Z" fill="#3F3D56"/>
<path d="M187.712 28.2403C189.012 24.093 191.967 20.2895 196.059 18.8897C200.15 17.49 206.141 19.6216 209.217 22.6892C214.844 28.2883 216.216 47.5574 212.352 53.6445C211.58 53.6045 208.929 53.5725 208.153 53.5445L207.049 49.8771V53.5085C200.978 53.3206 194.651 53.4366 188.328 53.5605C187.76 49.2452 186.416 32.3837 187.712 28.2403Z" fill="#2F2E41"/>
<path d="M185.968 202.25H180.429L177.797 180.885H185.972L185.968 202.25Z" fill="#FFB6B6"/>
<path d="M234.465 198.807L229.106 200.203L221.163 180.194L229.078 178.13L234.465 198.807Z" fill="#FFB6B6"/>
<path d="M203.937 71.014L205.193 74.2775L204.941 77.541L180.373 86.0517L181.593 71.7699L184.356 68.5063L203.937 71.014Z" fill="#FFB6B6"/>
<path d="M196.171 41.6463C201.017 41.6463 204.945 37.7177 204.945 32.8716C204.945 28.0255 201.017 24.0969 196.171 24.0969C191.324 24.0969 187.396 28.0255 187.396 32.8716C187.396 37.7177 191.324 41.6463 196.171 41.6463Z" fill="#FFB7B7"/>
<path d="M190.139 21.4454C191.824 20.4182 193.753 19.8621 195.726 19.8351C197.698 19.8082 199.642 20.3113 201.354 21.292C203.065 22.2728 204.483 23.6951 205.457 25.4105C206.431 27.1259 206.927 29.0714 206.893 31.0439C202.094 32.2678 197.014 32.7797 191.615 31.3399L190.379 28.3163L189.652 31.3399C188.001 32.5024 186.401 32.5024 184.852 31.3399C184.791 29.3722 185.247 27.4229 186.175 25.6866C187.102 23.9503 188.47 22.4879 190.139 21.4454V21.4454Z" fill="#2F2E41"/>
<path d="M188.448 212.769H184.516L183.816 209.057L182.017 212.769H171.594C171.093 212.771 170.605 212.613 170.201 212.317C169.797 212.021 169.498 211.604 169.349 211.126C169.2 210.647 169.208 210.134 169.373 209.661C169.537 209.188 169.849 208.78 170.262 208.497L178.585 202.746V198.995L187.344 199.519L188.448 212.769Z" fill="#2F2E41"/>
<path d="M240.008 208.233L236.197 209.221L234.597 205.806L233.797 209.853L223.706 212.481C223.223 212.608 222.711 212.576 222.246 212.391C221.781 212.207 221.388 211.878 221.123 211.453C220.858 211.029 220.737 210.531 220.775 210.032C220.814 209.533 221.012 209.06 221.339 208.681L227.93 201.022L226.982 197.391L235.609 195.687L240.008 208.233Z" fill="#2F2E41"/>
<path d="M233.785 185.369L217.547 151.994L212.448 111.376C215.964 104.849 209.437 91.5669 209.437 91.5669V85.9917L184.152 90.759C178.981 104.866 176.473 119.81 176.757 134.832L177.773 188.824H177.453C176.923 188.824 176.414 189.035 176.039 189.41C175.664 189.785 175.454 190.294 175.454 190.824C175.454 191.354 175.664 191.863 176.039 192.238C176.414 192.613 176.923 192.824 177.453 192.824H187.452C187.982 192.824 188.491 192.613 188.866 192.238C189.241 191.863 189.452 191.354 189.452 190.824C189.452 190.294 189.241 189.785 188.866 189.41C188.491 189.035 187.982 188.824 187.452 188.824H187.216L194.375 120.131L202.718 154.029L222.887 185.225C222.356 185.246 221.856 185.477 221.496 185.867C221.136 186.257 220.946 186.774 220.967 187.304C220.988 187.835 221.219 188.335 221.609 188.695C221.999 189.055 222.516 189.245 223.047 189.224H233.045C233.509 189.223 233.958 189.06 234.316 188.764C234.673 188.468 234.916 188.057 235.004 187.601C235.091 187.146 235.017 186.674 234.795 186.266C234.573 185.859 234.216 185.542 233.785 185.369V185.369Z" fill="#2F2E41"/>
<path d="M211.72 94.9864C211.637 94.6604 211.453 94.3689 211.194 94.1535C210.936 93.9381 210.616 93.8097 210.28 93.7865C209.948 89.9751 207.745 65.5388 207.661 64.8229V64.7909L207.025 51.1729C207.005 50.6774 206.802 50.2069 206.454 49.8529C206.107 49.4989 205.64 49.2866 205.145 49.2572L201.774 49.0373C201.727 49.0322 201.685 49.0094 201.655 48.9736C201.625 48.9378 201.61 48.8918 201.614 48.8453C201.605 48.0971 201.301 47.3826 200.767 46.8581C200.234 46.3335 199.514 46.0414 198.766 46.0457H188.816C188.17 46.0456 187.547 46.2813 187.063 46.7085C186.579 47.1356 186.268 47.7249 186.188 48.3654C186.183 48.4095 186.162 48.4503 186.129 48.4799C186.096 48.5094 186.053 48.5256 186.008 48.5253V48.5253C184.872 48.495 183.763 48.8742 182.883 49.5937C182.004 50.3133 181.412 51.3252 181.217 52.4447C179.853 60.3755 177.121 78.3768 178.473 88.3873C178.941 91.8708 178.729 97.11 178.549 100.026C178.515 100.595 178.708 101.154 179.085 101.581C178.688 101.696 178.351 101.96 178.145 102.318C177.938 102.676 177.878 103.1 177.977 103.501V103.501C178.029 103.705 178.12 103.897 178.245 104.065C178.371 104.234 178.528 104.376 178.709 104.484C178.889 104.592 179.089 104.663 179.297 104.693C179.505 104.723 179.717 104.712 179.921 104.661L210.556 96.9381C210.761 96.8872 210.954 96.7962 211.124 96.6703C211.294 96.5444 211.437 96.3862 211.545 96.2047C211.653 96.0233 211.724 95.8222 211.755 95.6131C211.785 95.404 211.773 95.1909 211.72 94.9864V94.9864Z" fill="#3F3D56"/>
<path d="M184.776 48.6413C184.771 47.9666 184.527 47.3155 184.088 46.8031C183.649 46.2908 183.043 45.9503 182.377 45.8418L141.443 39.1228C141.05 39.056 140.648 39.0737 140.263 39.1748L130.664 41.6544L125.161 43.0782L115.003 45.7058C114.39 45.865 113.847 46.2231 113.459 46.7239C113.071 47.2246 112.86 47.8399 112.859 48.4734V82.0403C112.861 82.695 113.087 83.3292 113.499 83.8382C113.91 84.3473 114.483 84.7006 115.123 84.8399L156.82 93.6946C157.017 93.7345 157.216 93.7546 157.416 93.7546C157.708 93.755 157.998 93.7105 158.276 93.6226L183.049 85.7998C183.634 85.6187 184.144 85.2533 184.505 84.7581C184.865 84.263 185.056 83.6646 185.048 83.0522L184.776 48.6413Z" fill="white"/>
<path d="M140.979 41.5863C140.95 41.5824 140.92 41.5824 140.891 41.5863L115.627 48.1293C115.55 48.1482 115.482 48.1924 115.433 48.2548C115.384 48.3172 115.358 48.3942 115.359 48.4733V82.0402C115.359 82.1223 115.388 82.2018 115.439 82.2657C115.491 82.3296 115.563 82.3742 115.643 82.3922L157.344 91.2389C157.405 91.2532 157.468 91.2532 157.528 91.2389L182.301 83.416C182.374 83.393 182.438 83.3473 182.483 83.2854C182.528 83.2235 182.553 83.1488 182.553 83.0721L182.273 48.6772C182.273 48.5929 182.242 48.5114 182.187 48.4476C182.132 48.3837 182.056 48.3417 181.973 48.3293L141.039 41.5903L140.979 41.5863Z" fill="#9C8A72"/>
<path d="M184.776 48.6413C184.771 47.9666 184.527 47.3155 184.088 46.8031C183.649 46.2908 183.043 45.9503 182.377 45.8418L141.443 39.1228C141.05 39.056 140.648 39.0737 140.263 39.1748L130.664 41.6544L125.161 43.0782L115.003 45.7058C114.39 45.865 113.847 46.2231 113.459 46.7239C113.071 47.2246 112.86 47.8399 112.859 48.4734V82.0403C112.861 82.695 113.087 83.3292 113.499 83.8382C113.91 84.3473 114.483 84.7006 115.123 84.8399L156.82 93.6946C157.017 93.7345 157.216 93.7546 157.416 93.7546C157.708 93.755 157.998 93.7105 158.276 93.6226L183.049 85.7998C183.634 85.6187 184.144 85.2533 184.505 84.7581C184.865 84.263 185.056 83.6646 185.048 83.0522L184.776 48.6413ZM182.841 85.1199L158.068 92.9427C157.715 93.0516 157.339 93.0695 156.976 92.9947L115.275 84.124C114.796 84.0187 114.367 83.7533 114.058 83.3717C113.75 82.9901 113.581 82.5149 113.579 82.0243V48.4734C113.582 48.0363 113.718 47.6105 113.97 47.2531C114.221 46.8957 114.576 46.6237 114.987 46.4737C115.052 46.4481 115.119 46.4268 115.187 46.4097L125.933 43.6341L132.288 41.9863L140.443 39.8787C140.732 39.8045 141.033 39.7909 141.327 39.8387L182.265 46.5497C182.763 46.6308 183.217 46.8857 183.546 47.2693C183.874 47.6528 184.057 48.1403 184.06 48.6453L184.34 83.0402C184.344 83.4995 184.201 83.9479 183.931 84.3194C183.661 84.6909 183.279 84.9659 182.841 85.1039V85.1199Z" fill="#3F3D56"/>
<path d="M183.82 47.6775C183.793 47.6948 183.763 47.7083 183.732 47.7175L171.69 50.973L167.943 51.9848L157.28 54.8644C157.25 54.8683 157.219 54.8683 157.188 54.8644H157.124L114.135 47.0336L113.991 47.0096C113.901 46.9921 113.821 46.9409 113.768 46.8666C113.714 46.7923 113.691 46.7004 113.703 46.6097C113.721 46.5202 113.773 46.441 113.847 46.3877C113.921 46.3343 114.012 46.3108 114.103 46.3217L114.971 46.4817L157.172 54.1525L166.371 51.6689L171.51 50.2811L183.364 47.0816L183.552 47.0336C183.631 47.0159 183.714 47.0257 183.787 47.0613C183.86 47.0969 183.918 47.1563 183.952 47.2296C183.964 47.2462 183.973 47.2654 183.976 47.2856C183.994 47.359 183.989 47.4362 183.961 47.5064C183.933 47.5767 183.884 47.6365 183.82 47.6775V47.6775Z" fill="#3F3D56"/>
<path d="M157.544 93.8386C157.45 93.8386 157.359 93.8011 157.293 93.7343C157.226 93.6676 157.188 93.577 157.188 93.4826L156.82 54.5245C156.82 54.4293 156.858 54.3379 156.924 54.2699C156.991 54.2019 157.081 54.1626 157.176 54.1605V54.1605C157.271 54.1605 157.361 54.198 157.428 54.2648C157.495 54.3315 157.532 54.4221 157.532 54.5165L157.888 93.4786C157.889 93.5254 157.88 93.5718 157.863 93.6151C157.845 93.6585 157.82 93.6981 157.787 93.7315C157.754 93.7649 157.715 93.7916 157.672 93.8099C157.629 93.8283 157.583 93.838 157.536 93.8386H157.544Z" fill="#3F3D56"/>
<path d="M171.69 89.0992L167.943 90.1111L166.363 51.6689L126.049 43.6461L125.933 43.6181C125.623 43.5285 125.353 43.3368 125.165 43.0741L130.668 41.6464L132.288 41.9663L170.538 49.5652C170.74 49.6049 170.93 49.6876 171.096 49.8077C171.263 49.9278 171.401 50.0825 171.502 50.2611C171.618 50.489 171.686 88.8393 171.69 89.0992Z" fill="#3F3D56"/>
<path d="M170.018 67.1825C170.211 67.3454 170.39 67.5233 170.554 67.7144L193.007 65.0948L195.191 60.0555L203.23 62.3552L200.222 71.6418C199.979 72.3922 199.499 73.0437 198.854 73.4986C198.21 73.9535 197.435 74.1875 196.646 74.1654L170.934 73.4335C170.418 74.2318 169.677 74.8589 168.804 75.2354C167.931 75.6118 166.966 75.7205 166.032 75.5478C165.097 75.3752 164.235 74.9288 163.554 74.2654C162.873 73.602 162.405 72.7514 162.208 71.8214C162.012 70.8915 162.095 69.9241 162.449 69.0419C162.803 68.1597 163.411 67.4024 164.196 66.8661C164.981 66.3298 165.907 66.0386 166.857 66.0294C167.808 66.0202 168.74 66.2935 169.535 66.8145C169.7 66.9238 169.859 67.0426 170.01 67.1705L170.018 67.1825Z" fill="#FFB6B6"/>
<path d="M192.475 63.931C192.352 63.6632 192.288 63.3719 192.288 63.0771C192.288 62.7823 192.352 62.491 192.475 62.2232L196.786 52.8726C197.207 51.4205 198.187 50.195 199.511 49.4655C200.836 48.7361 202.395 48.5626 203.847 48.9832C205.3 49.4038 206.525 50.384 207.254 51.7082C207.984 53.0323 208.157 54.592 207.737 56.0441L206.317 66.2786C206.244 66.8175 205.961 67.3057 205.529 67.6362C205.098 67.9668 204.553 68.1128 204.013 68.0423C203.913 68.0291 203.814 68.0077 203.717 67.9784L193.775 65.0668C193.488 64.984 193.224 64.8394 192.999 64.6432C192.774 64.4469 192.596 64.2038 192.475 63.931V63.931Z" fill="#3F3D56"/>
<path d="M95.7316 50.3066C103.603 49.5278 109.353 42.5156 108.574 34.6443C107.795 26.773 100.783 21.0233 92.9116 21.802C85.0402 22.5808 79.2906 29.593 80.0693 37.4643C80.848 45.3356 87.8603 51.0853 95.7316 50.3066Z" fill="#9C8A72"/>
<path d="M92.3661 43.5021C92.1191 43.5009 91.8758 43.4424 91.6551 43.3314C91.4345 43.2204 91.2425 43.0598 91.0943 42.8622L87.1869 37.663C87.0378 37.4983 86.9246 37.3044 86.8546 37.0936C86.7845 36.8829 86.7591 36.6598 86.78 36.4386C86.8009 36.2175 86.8676 36.0031 86.9759 35.8092C87.0842 35.6152 87.2317 35.446 87.409 35.3122C87.5863 35.1784 87.7895 35.0829 88.0057 35.032C88.2219 34.981 88.4463 34.9757 88.6647 35.0162C88.8831 35.0568 89.0907 35.1424 89.2742 35.2675C89.4577 35.3927 89.6131 35.5547 89.7305 35.7433L92.2861 39.1507L98.8532 29.3002C98.9584 29.1041 99.1034 28.932 99.2789 28.7951C99.4544 28.6582 99.6565 28.5594 99.8724 28.5051C100.088 28.4507 100.313 28.442 100.532 28.4795C100.752 28.517 100.961 28.5999 101.147 28.7229C101.332 28.8458 101.49 29.0062 101.61 29.1936C101.73 29.381 101.81 29.5915 101.844 29.8114C101.878 30.0314 101.866 30.2561 101.808 30.471C101.75 30.686 101.648 30.8866 101.509 31.06V31.06L93.6939 42.7902C93.5543 43 93.367 43.1739 93.1474 43.2976C92.9277 43.4213 92.682 43.4914 92.4301 43.5021H92.3661Z" fill="white"/>
<path d="M129.861 72.2417C129.817 72.2476 129.772 72.2476 129.729 72.2417L117.33 69.4422C117.249 69.4293 117.172 69.4 117.103 69.3559C117.033 69.3119 116.974 69.2542 116.928 69.1862C116.882 69.1183 116.85 69.0416 116.835 68.961C116.82 68.8804 116.821 68.7975 116.839 68.7174C116.857 68.6374 116.892 68.5619 116.94 68.4956C116.988 68.4294 117.05 68.3738 117.121 68.3322C117.192 68.2907 117.27 68.2641 117.352 68.2542C117.433 68.2442 117.516 68.2511 117.594 68.2743L129.993 71.0739C130.152 71.0914 130.297 71.1714 130.397 71.2963C130.498 71.4212 130.544 71.5807 130.526 71.7398C130.509 71.8989 130.429 72.0446 130.304 72.1447C130.179 72.2448 130.02 72.2912 129.861 72.2737V72.2417Z" fill="white"/>
</g>
<defs>
<clipPath id="clip0_103_1559">
<rect width="160" height="194.319" fill="white" transform="translate(80 18.4498)"/>
</clipPath>
</defs>
</svg>
