<svg width="320" height="240" viewBox="0 0 320 240" fill="none" xmlns="http://www.w3.org/2000/svg">
<g clip-path="url(#clip0_103_1559)">
<path d="M122.844 58.2473H121.814V30.2208C121.814 25.92 120.106 21.7952 117.065 18.7534C114.025 15.7116 109.901 14.0018 105.6 14H46.2208C41.9188 14 37.793 15.709 34.751 18.751C31.709 21.793 30 25.9188 30 30.2208V183.976C30 188.279 31.709 192.404 34.751 195.446C37.793 198.488 41.9188 200.197 46.2208 200.197H105.6C109.902 200.197 114.028 198.488 117.07 195.446C120.112 192.404 121.82 188.279 121.82 183.976V78.196H122.851L122.844 58.2473Z" fill="#3F3D56"/>
<path d="M106.256 18.2192H98.5046C98.8605 19.0933 98.9961 20.0413 98.8995 20.9801C98.8029 21.9188 98.4771 22.8194 97.9508 23.6026C97.4244 24.3859 96.7136 25.0278 95.881 25.4719C95.0483 25.9159 94.1192 26.1485 93.1756 26.1493H59.1603C58.4043 26.1497 57.6555 26.0012 56.9569 25.7122C56.2583 25.4231 55.6234 24.9993 55.0886 24.4648C54.5539 23.9304 54.1296 23.2958 53.8402 22.5973C53.5508 21.8989 53.4018 21.1502 53.4018 20.3942C53.4037 19.6486 53.5483 18.9104 53.8278 18.2192H46.5884C43.376 18.2201 40.2954 19.4969 38.0241 21.7688C35.7529 24.0407 34.477 27.1217 34.477 30.3342V30.3342V183.863C34.4765 185.454 34.7894 187.029 35.3979 188.499C36.0064 189.969 36.8984 191.304 38.0231 192.429C39.1478 193.554 40.4831 194.447 41.9528 195.056C43.4224 195.665 44.9977 195.978 46.5884 195.978H106.256C107.847 195.978 109.422 195.665 110.892 195.056C112.361 194.447 113.697 193.554 114.821 192.429C115.946 191.304 116.838 189.969 117.447 188.499C118.055 187.029 118.368 185.454 118.367 183.863V183.863V30.3342C118.367 27.1217 117.092 24.0407 114.82 21.7688C112.549 19.4969 109.468 18.2201 106.256 18.2192V18.2192Z" fill="white"/>
<path d="M76.4222 132.772C92.4473 132.772 105.438 119.781 105.438 103.756C105.438 87.7304 92.4473 74.7395 76.4222 74.7395C60.3971 74.7395 47.4062 87.7304 47.4062 103.756C47.4062 119.781 60.3971 132.772 76.4222 132.772Z" fill="#9C8A72"/>
<path d="M73.5464 114.826C72.8936 114.827 72.2583 114.616 71.7357 114.225L71.7047 114.201L64.8845 108.982C64.5638 108.741 64.294 108.44 64.0906 108.094C63.8872 107.749 63.7543 107.367 63.6996 106.97C63.645 106.573 63.6695 106.169 63.772 105.782C63.8744 105.394 64.0527 105.031 64.2965 104.713C64.5403 104.395 64.8447 104.128 65.1922 103.929C65.5396 103.729 65.9233 103.6 66.3208 103.55C66.7184 103.5 67.122 103.529 67.5082 103.635C67.8945 103.742 68.2558 103.924 68.5712 104.171L72.9898 107.556L83.428 93.9393C83.9156 93.3006 84.6369 92.8817 85.4332 92.7748C86.2296 92.6678 87.0359 92.8815 87.6747 93.3689V93.3689L87.6094 93.4617L87.6747 93.3689C88.312 93.8586 88.7289 94.5813 88.8339 95.3781C88.9389 96.175 88.7234 96.981 88.2348 97.6191L75.9584 113.641C75.6746 114.008 75.3102 114.306 74.8932 114.511C74.4762 114.716 74.0178 114.823 73.5532 114.823L73.5464 114.826Z" fill="white"/>
<path d="M249.158 203.077C249.512 202.506 249.928 201.976 250.398 201.496C250.594 201.297 250.797 201.108 251.006 200.922C252.288 199.782 253.851 199.004 255.533 198.667C257.215 198.33 258.956 198.447 260.579 199.006C262.201 199.564 263.645 200.544 264.763 201.846C265.881 203.147 266.633 204.722 266.942 206.409C268.357 201.17 264.667 196.005 260.96 192.04C257.253 188.075 253.009 183.729 253.03 178.297C253.03 175.277 254.518 172.58 256.751 170.58L256.957 170.401C259.656 168.09 263.126 166.88 266.677 167.014C273.274 167.357 279.046 171.803 283.035 177.06C289.474 185.523 292.312 197.4 287.787 207.031C283.822 215.504 275.367 220.534 266.736 224.578C265.533 225.146 264.331 225.694 263.128 226.221H263.104L262.936 226.3L262.193 226.626L262.307 226.698L262.65 226.928L262.283 226.709C262.248 226.684 262.207 226.664 262.173 226.643C257.933 224.097 253.638 221.407 250.707 217.439C247.701 213.34 246.471 207.44 249.158 203.077Z" fill="#F1F1F1"/>
<path d="M277.438 193.504C278.378 195.642 278.999 197.907 279.283 200.225C279.509 202.287 279.425 204.372 279.033 206.409C278.191 210.599 276.355 214.525 273.68 217.858C271.663 220.389 269.333 222.654 266.746 224.599C265.543 225.167 264.341 225.714 263.138 226.241H263.114L262.946 226.32L262.204 226.647L262.317 226.719L262.661 226.949L262.293 226.729C262.259 226.705 262.217 226.684 262.183 226.664C263.612 221.752 263.202 216.488 261.031 211.856C258.861 207.224 255.077 203.541 250.388 201.496C250.584 201.293 250.786 201.104 250.996 200.919C253.705 202.16 256.134 203.94 258.134 206.149C260.135 208.358 261.665 210.95 262.633 213.769C263.974 217.782 264.141 222.095 263.114 226.2C263.327 226.063 263.54 225.918 263.75 225.777C267.698 223.115 271.336 219.916 274.078 215.995C276.441 212.681 277.954 208.837 278.483 204.801C279.009 200.39 277.906 196.054 275.937 192.119C273.763 187.91 271.023 184.018 267.794 180.551C264.551 176.987 260.884 173.835 256.875 171.164C256.785 171.102 256.722 171.008 256.699 170.902C256.677 170.795 256.695 170.684 256.751 170.59C256.794 170.506 256.868 170.442 256.957 170.412C257.003 170.4 257.051 170.399 257.097 170.408C257.144 170.418 257.188 170.438 257.225 170.467C257.72 170.81 258.211 171.13 258.696 171.473C262.732 174.33 266.399 177.677 269.611 181.437C272.724 185.073 275.549 189.103 277.438 193.504Z" fill="white"/>
<path d="M197.033 22.6181C197.757 19.2935 195.648 16.0119 192.324 15.2882C188.999 14.5646 185.718 16.673 184.994 19.9975C184.27 23.322 186.379 26.6037 189.703 27.3274C193.028 28.051 196.309 25.9426 197.033 22.6181Z" fill="#F1F1F1"/>
<path d="M267.643 109.933C269.717 109.933 271.398 108.252 271.398 106.178C271.398 104.104 269.717 102.422 267.643 102.422C265.569 102.422 263.887 104.104 263.887 106.178C263.887 108.252 265.569 109.933 267.643 109.933Z" fill="#F1F1F1"/>
<path d="M157.695 120.241C159.769 120.241 161.45 118.56 161.45 116.486C161.45 114.411 159.769 112.73 157.695 112.73C155.62 112.73 153.939 114.411 153.939 116.486C153.939 118.56 155.62 120.241 157.695 120.241Z" fill="#F1F1F1"/>
<path d="M276.277 47.2009C276.463 45.9734 276.188 44.7206 275.506 43.6832C274.824 42.6459 273.783 41.8972 272.582 41.5809C271.382 41.2647 270.107 41.4033 269.002 41.9701C267.898 42.5369 267.041 43.4918 266.598 44.6515L255.978 56.8282L259.105 65.5382L269.787 51.3068C270.413 51.5083 271.072 51.5842 271.728 51.5304C272.383 51.4765 273.022 51.2939 273.606 50.9929C274.191 50.6919 274.711 50.2785 275.135 49.7764C275.56 49.2743 275.881 48.6933 276.081 48.0667C276.174 47.7851 276.24 47.4951 276.277 47.2009Z" fill="#FFB7B7"/>
<path d="M232.243 94.5887L267.505 56.9554L262.75 49.3931L218.52 86.7995L232.243 94.5887Z" fill="#3F3D56"/>
<path d="M224.375 71.7228C231.206 71.7228 236.744 66.185 236.744 59.3537C236.744 52.5224 231.206 46.9845 224.375 46.9845C217.543 46.9845 212.005 52.5224 212.005 59.3537C212.005 66.185 217.543 71.7228 224.375 71.7228Z" fill="#2F2E41"/>
<path d="M225.368 52.3651C228.03 49.6679 231.251 47.5853 234.803 46.2629C237.084 45.4177 239.568 44.8886 241.953 45.3765C244.337 45.8644 246.591 47.5067 247.258 49.8431C247.801 51.7569 247.24 53.815 246.395 55.6188C245.55 57.4227 244.423 59.0891 243.743 60.9548C243.047 62.8612 242.838 64.9112 243.134 66.9189C243.431 68.9265 244.225 70.8283 245.443 72.4517C246.661 74.0751 248.265 75.3688 250.109 76.2153C251.954 77.0618 253.98 77.4344 256.005 77.2993C253.662 77.6119 251.501 78.7148 249.209 79.2989C246.917 79.883 244.217 79.8452 242.516 78.2063C240.716 76.4678 240.678 73.6469 240.767 71.1456C240.893 67.4303 241.023 63.7149 241.156 59.9996C241.221 58.103 241.276 56.148 240.592 54.3785C239.908 52.609 238.287 51.0629 236.39 51.08C234.954 51.08 233.679 51.9596 232.528 52.8186C231.377 53.6776 230.157 54.595 228.725 54.7221C227.292 54.8492 225.66 53.791 225.766 52.3582L225.368 52.3651Z" fill="#2F2E41"/>
<path d="M177.396 142.406C176.21 142.728 174.948 142.606 173.846 142.062C172.745 141.518 171.88 140.59 171.416 139.453C170.951 138.315 170.918 137.047 171.324 135.888C171.729 134.728 172.544 133.756 173.616 133.156L184.302 121.031L193.338 122.986L180.626 135.438C180.905 136.033 181.065 136.678 181.096 137.335C181.126 137.992 181.027 138.649 180.804 139.267C180.58 139.886 180.237 140.455 179.794 140.941C179.351 141.427 178.816 141.821 178.22 142.1C177.954 142.227 177.677 142.329 177.392 142.406H177.396Z" fill="#FFB7B7"/>
<path d="M212.552 99.0072L185.917 132.435L177.798 128.71L209.102 79.9724L212.552 99.0072Z" fill="#3F3D56"/>
<path d="M191.301 199.953L184.951 199.854L185.714 221.49H191.297L191.301 199.953Z" fill="#FFB7B7"/>
<path d="M192.727 219.665H181.732C180.81 219.664 179.898 219.845 179.046 220.197C178.195 220.55 177.421 221.066 176.77 221.718C176.119 222.37 175.602 223.144 175.25 223.995C174.898 224.847 174.718 225.76 174.719 226.681V226.911H192.727V219.665Z" fill="#2F2E41"/>
<path d="M233.325 194.215L226.392 198.668L240.262 215.353L244.959 212.336L233.325 194.215Z" fill="#FFB7B7"/>
<path d="M245.175 210.034L235.923 215.975C234.361 216.979 233.261 218.561 232.865 220.375C232.469 222.189 232.808 224.087 233.81 225.65L233.933 225.843L249.075 216.123L245.175 210.034Z" fill="#2F2E41"/>
<path d="M235.796 128.154C235.796 128.154 220.392 76.9831 215.438 76.2925C210.483 75.6019 202.512 89.421 202.512 89.421C192.167 102.618 181.502 145.364 181.502 145.364C181.502 145.364 199.282 146.477 212.28 153.394C225.278 160.31 240.613 153.05 240.613 153.05L235.796 128.154Z" fill="#3F3D56"/>
<path opacity="0.1" d="M235.796 128.154C235.796 128.154 220.392 76.9831 215.438 76.2925C210.483 75.6019 204.536 89.5619 204.536 89.5619C199.382 110.864 181.516 145.364 181.516 145.364C181.516 145.364 199.296 146.477 212.294 153.394C225.292 160.31 240.626 153.05 240.626 153.05L235.796 128.154Z" fill="black"/>
<path d="M223.158 112.843V138.558L226.182 175.803L241.3 203.977L234.084 209.131L213.469 182.331L205.316 155.72L192.51 214.628L182.89 213.941L189.573 132.266L202.251 109.277L223.158 112.843Z" fill="#2F2E41"/>
<path d="M207.625 87.9745C202.815 92.7847 207.281 97.9385 207.281 97.9385L201.784 110.308L223.43 116.149L230.989 82.3465L225.835 76.8491C215.527 76.5055 215.527 76.2925 215.527 76.2925C213.72 78.0585 207.625 87.9745 207.625 87.9745Z" fill="#9C8A72"/>
<path d="M231.865 78.8454C229.894 77.3906 227.427 76.7782 225.004 77.1429C222.582 77.5076 220.404 78.8195 218.949 80.7901L218.884 80.876C213.445 88.4521 208.412 100.687 215.345 115.946C226.477 140.447 236.163 152.992 240.084 152.988C240.256 152.991 240.428 152.964 240.592 152.909C242.997 152.088 246.519 147.986 247.155 144.371C247.381 143.079 247.326 141.279 245.78 140.038C241.334 136.482 233.356 125.415 230.869 110.833C229.494 102.787 232.16 95.451 234.648 90.7164C235.692 88.7606 235.998 86.4942 235.509 84.3316C235.02 82.1689 233.769 80.2545 231.985 78.9382V78.9382L231.865 78.8454Z" fill="#3F3D56"/>
<path d="M220.643 71.6231C225.672 71.6231 229.748 67.5467 229.748 62.5181C229.748 57.4895 225.672 53.413 220.643 53.413C215.615 53.413 211.538 57.4895 211.538 62.5181C211.538 67.5467 215.615 71.6231 220.643 71.6231Z" fill="#FFB7B7"/>
<path d="M207.845 61.8309H220.994L221.128 59.9411L221.815 61.8309H223.839L224.107 58.0892L225.443 61.8309H229.36V61.6453C229.357 59.0391 228.32 56.5406 226.476 54.6987C224.633 52.8568 222.133 51.8221 219.527 51.8221H217.671C215.066 51.824 212.568 52.8594 210.726 54.7011C208.884 56.5428 207.847 59.0403 207.845 61.6453V61.8309Z" fill="#2F2E41"/>
<path d="M227.354 68.6305L232.964 66.813V53.1691H222.365L222.629 53.4302C226.278 57.0757 230.339 70.0049 227.354 68.6305Z" fill="#2F2E41"/>
</g>
<defs>
<clipPath id="clip0_103_1559">
<rect width="260" height="212.952" fill="white" transform="translate(30 14)"/>
</clipPath>
</defs>
</svg>
