<svg width="2015" height="973" viewBox="0 0 2015 973" fill="none" xmlns="http://www.w3.org/2000/svg">
<path d="M16.5 660.707L2010 289.707" stroke="#B9AEA3" stroke-width="6" stroke-miterlimit="10" stroke-linecap="round" style="mix-blend-mode:multiply"/>
<path d="M3 969.207L2012 321.207" stroke="#B9AEA3" stroke-width="6" stroke-miterlimit="10" stroke-linecap="round" style="mix-blend-mode:multiply"/>
<g style="mix-blend-mode:multiply">
<path d="M1940.03 154.092C1940.03 220.253 1901.97 243.354 1855.02 243.354C1808.06 243.354 1770 220.253 1770 154.092C1770 87.9313 1855.02 3.76436 1855.02 3.76436C1855.02 3.76436 1940.03 87.9313 1940.03 154.092Z" fill="#DBCEC2"/>
<path d="M1851.92 233.233L1852.79 177.863L1889.02 109.361L1852.93 169.177L1853.32 144.28L1878.29 94.7198L1853.42 137.691L1854.12 92.913L1880.87 53.457L1854.24 85.8716L1854.68 3.76436L1851.91 112.46L1852.14 107.976L1824.95 64.9712L1851.7 116.583L1849.17 166.593L1849.09 165.266L1817.75 120.01L1849 169.955L1848.68 176.209L1848.63 176.303L1848.65 176.817L1842.22 303.695H1850.81L1851.84 238.16L1883.01 188.337L1851.92 233.233Z" fill="#A69C92"/>
</g>
<g style="mix-blend-mode:multiply">
<path d="M1289.37 275.428C1289.37 344.055 1249.89 368.017 1201.18 368.017C1152.48 368.017 1113 344.055 1113 275.428C1113 206.802 1201.18 119.498 1201.18 119.498C1201.18 119.498 1289.37 206.802 1289.37 275.428Z" fill="#DBCEC2"/>
<path d="M1197.97 357.519L1198.87 300.085L1236.46 229.03L1199.02 291.075L1199.42 265.25L1225.33 213.843L1199.53 258.416L1200.26 211.969L1228 171.042L1200.37 204.665L1200.83 119.498L1197.96 232.244L1198.2 227.593L1170 182.986L1197.75 236.521L1195.12 288.395L1195.04 287.018L1162.53 240.076L1194.94 291.882L1194.61 298.369L1194.56 298.467L1194.58 299L1187.92 430.607H1196.82L1197.89 362.629L1230.23 310.949L1197.97 357.519Z" fill="#A69C92"/>
</g>
<g style="mix-blend-mode:multiply">
<path d="M880 275.597C880 375.066 822.775 409.797 752.184 409.797C681.594 409.797 624.369 375.066 624.369 275.597C624.369 176.129 752.184 49.5888 752.184 49.5888C752.184 49.5888 880 176.129 880 275.597Z" fill="#DBCEC2"/>
<path d="M747.528 394.581L748.837 311.335L803.315 208.347L749.042 298.276L749.631 260.845L787.177 186.335L749.786 250.94L750.845 183.618L791.05 124.299L751.011 173.032L751.673 49.5888L747.517 213.005L747.858 206.264L706.981 141.61L747.203 219.205L743.394 294.391L743.281 292.396L696.156 224.357L743.138 299.446L742.661 308.849L742.576 308.99L742.615 309.762L732.952 500.516H745.862L747.412 401.988L794.277 327.082L747.528 394.581Z" fill="#A69C92"/>
</g>
<g style="mix-blend-mode:multiply">
<path d="M390.244 331.503C390.244 450.276 321.913 491.748 237.622 491.748C153.331 491.748 85 450.276 85 331.503C85 212.73 237.622 61.631 237.622 61.631C237.622 61.631 390.244 212.73 390.244 331.503Z" fill="#DBCEC2"/>
<path d="M232.062 473.579L233.625 374.177L298.677 251.201L233.87 358.583L234.573 313.888L279.407 224.916L234.759 302.06L236.023 221.673L284.031 150.84L236.221 209.032L237.011 61.631L232.049 256.763L232.457 248.713L183.647 171.511L231.674 264.166L227.126 353.944L226.991 351.562L170.721 270.318L226.82 359.98L226.251 371.208L226.15 371.377L226.196 372.298L214.657 600.074H230.073L231.924 482.423L287.885 392.98L232.062 473.579Z" fill="#A69C92"/>
</g>
<g style="mix-blend-mode:multiply">
<path d="M1526.03 190.777C1526.03 274.448 1477.89 303.663 1418.52 303.663C1359.14 303.663 1311 274.448 1311 190.777C1311 107.107 1418.52 0.664383 1418.52 0.664383C1418.52 0.664383 1526.03 107.107 1526.03 190.777Z" fill="#DBCEC2"/>
<path d="M1414.6 290.864L1415.7 220.839L1461.53 134.208L1415.87 209.854L1416.37 178.368L1447.95 115.692L1416.5 170.036L1417.39 113.407L1451.21 63.5085L1417.53 104.502L1418.09 0.664383L1414.59 138.127L1414.88 132.456L1380.49 78.07L1414.33 143.342L1411.12 206.586L1411.03 204.908L1371.39 147.675L1410.91 210.838L1410.51 218.748L1410.43 218.867L1410.47 219.516L1402.34 379.974H1413.2L1414.5 297.094L1453.92 234.085L1414.6 290.864Z" fill="#A69C92"/>
</g>
<g style="mix-blend-mode:multiply">
<path d="M1751.56 217.492C1751.56 273.354 1719.43 292.859 1679.78 292.859C1640.14 292.859 1608 273.354 1608 217.492C1608 161.63 1679.78 90.5644 1679.78 90.5644C1679.78 90.5644 1751.56 161.63 1751.56 217.492Z" fill="#DBCEC2"/>
<path d="M1677.17 284.314L1677.9 237.562L1708.5 179.724L1678.02 230.228L1678.35 209.207L1699.43 167.361L1678.44 203.644L1679.03 165.836L1701.61 132.522L1679.12 159.891L1679.49 90.5644L1677.16 182.34L1677.35 178.554L1654.4 142.244L1676.98 185.822L1674.85 228.046L1674.78 226.926L1648.32 188.715L1674.7 230.885L1674.43 236.166L1674.39 236.245L1674.41 236.679L1668.98 343.807H1676.23L1677.1 288.473L1703.42 246.406L1677.17 284.314Z" fill="#A69C92"/>
</g>
</svg>
