<svg width="1299" height="111" viewBox="0 0 1299 111" fill="none" xmlns="http://www.w3.org/2000/svg">
<g filter="url(#filter0_d_6_2)">
<path d="M31.7578 47.3238L32.3438 40.6441L23.0859 42.6363L24.0234 31.855L77.5781 20.1363L129.492 31.855L128.555 42.6363L118.945 40.4097L118.359 47.3238H87.4219L86.3672 59.5113H119.297L118.711 66.5425H85.7812L84.2578 83.4175H123.516L122.93 90.4488H83.6719H59.2969H20.0391L20.625 83.4175H59.8828L61.4062 66.5425H28.4766L29.0625 59.5113H61.9922L63.0469 47.3238H31.7578ZM118.125 40.2925L76.6406 30.9175L33.75 40.2925H118.125ZM152.859 73.5738L153.445 66.5425H163.289L165.281 43.5738H187.781H205.594L206.648 31.3863H185.32L181.219 38.4175H157.781L168.328 20.1363H191.766L189.305 24.355H261.492L260.906 31.3863H231.023L229.969 43.5738H256.336L255.75 50.605H229.266L227.859 66.5425H257.977L257.391 73.5738H227.273L225.75 90.4488H201.375L202.898 73.5738H152.859ZM187.195 50.605L185.789 66.5425H203.484L204.891 50.605H187.195ZM286.383 50.1363L286.969 43.105H294.117L295.055 31.855H287.906L290.602 20.1363H313.102L312.047 24.8238H393.844L393.258 31.855H386.227L385.289 43.105H392.32L391.734 50.1363H384.703L383.648 61.3863H388.805L388.219 68.4175H286.617L287.203 61.3863H292.477L293.531 50.1363H286.383ZM282.75 90.4488L289.781 72.8707H308.062L301.031 90.4488H282.75ZM370.055 90.4488L365.719 72.8707H384L388.336 90.4488H370.055ZM313.102 90.4488L314.625 72.8707H332.906L331.383 90.4488H313.102ZM339.82 90.4488L341.344 72.8707H359.625L358.102 90.4488H339.82ZM318.258 43.105L319.195 31.855H313.805L312.867 43.105H318.258ZM342.633 43.105L343.57 31.855H337.945L337.008 43.105H342.633ZM366.539 43.105L367.477 31.855H362.32L361.383 43.105H366.539ZM360.797 50.1363L359.742 61.3863H364.898L365.953 50.1363H360.797ZM336.422 50.1363L335.367 61.3863H340.992L342.047 50.1363H336.422ZM312.281 50.1363L311.227 61.3863H316.617L317.672 50.1363H312.281ZM417.797 55.4097L431.391 20.1363H452.016L444.633 39.355L440.18 90.4488H420.492L423.539 55.4097H417.797ZM453.305 33.73L453.891 26.6988H477.094L477.68 20.1363H498.305L497.719 26.6988H525.609L525.023 33.73H499.594L521.156 81.5425H504.281L494.789 60.566L492.211 90.4488H471.586L474.164 60.6832L460.688 81.5425H443.812L474.633 33.73H453.305ZM589.641 72.8707L592.336 20.1363H618.82L612.375 72.8707H589.641ZM586.125 90.4488L586.945 81.6597H613.43L612.609 90.4488H586.125ZM684.609 90.4488L690.82 21.0738H692.695H715.195H760.195H784.57L778.359 90.4488H777.188H753.984H708.984H687.07H684.609ZM757.031 56.6988H712.031L709.57 83.4175H754.57L757.031 56.6988ZM759.609 28.105H714.609L712.617 49.6675H757.617L759.609 28.105ZM816.609 90.4488L822.82 21.0738H824.695H847.195H892.195H916.57L910.359 90.4488H909.188H885.984H840.984H819.07H816.609ZM889.031 56.6988H844.031L841.57 83.4175H886.57L889.031 56.6988ZM891.609 28.105H846.609L844.617 49.6675H889.617L891.609 28.105ZM990.445 20.1363H1012.95L1010.6 46.855H1025.84L1027.83 23.8863H1049.39L1046.81 53.8863H1025.25H1010.02L1007.32 83.4175H1024.08L1026.07 60.4488H1048.57L1045.99 90.4488H1023.49H1006.73H984.234H967.594H945.094L947.672 60.4488H970.172L968.18 83.4175H984.82L987.516 53.8863H972.281H950.719L953.297 23.8863H974.859L972.867 46.855H988.102L990.445 20.1363ZM1081.55 82.9488L1084.71 44.98H1093.97H1106.27H1156.43H1169.55H1177.99L1174.83 82.9488H1168.5L1176.7 90.4488H1154.2L1146 82.9488H1111.2L1100.77 90.4488H1078.27L1088.7 82.9488H1081.55ZM1080.84 36.6597L1096.31 20.1363H1118.81L1112.84 26.4644H1117.05L1115.65 42.1675H1094.09L1094.55 36.6597H1080.84ZM1126.78 42.1675L1128.77 20.1363H1150.34L1150.1 23.3004L1184.67 20.605L1183.85 27.6363L1149.4 30.2144L1148.93 35.1363H1183.62L1183.03 42.1675H1148.34H1133.81H1126.78ZM1105.45 55.0582H1155.61L1155.84 52.0113H1105.69L1105.45 55.0582ZM1104.63 65.3707H1154.79L1155.02 62.0894H1104.87L1104.63 65.3707ZM1103.7 75.9175H1153.85L1154.2 72.4019H1104.05L1103.7 75.9175ZM1249.64 72.8707L1252.34 20.1363H1278.82L1272.38 72.8707H1249.64ZM1246.12 90.4488L1246.95 81.6597H1273.43L1272.61 90.4488H1246.12Z" fill="#9C8A72"/>
<path d="M31.7578 47.3238L30.7616 47.2364L30.6663 48.3238H31.7578V47.3238ZM32.3438 40.6441L33.3399 40.7315L33.4584 39.3814L32.1334 39.6665L32.3438 40.6441ZM23.0859 42.6363L22.0897 42.5497L21.9724 43.8988L23.2963 43.6139L23.0859 42.6363ZM24.0234 31.855L23.8097 30.8782L23.0909 31.0354L23.0272 31.7684L24.0234 31.855ZM77.5781 20.1363L77.7983 19.1608L77.5815 19.1119L77.3644 19.1594L77.5781 20.1363ZM129.492 31.855L130.488 31.9417L130.564 31.0718L129.712 30.8796L129.492 31.855ZM128.555 42.6363L128.329 43.6105L129.451 43.8705L129.551 42.7229L128.555 42.6363ZM118.945 40.4097L119.171 39.4355L118.046 39.1749L117.949 40.3253L118.945 40.4097ZM118.359 47.3238V48.3238H119.278L119.356 47.4082L118.359 47.3238ZM87.4219 47.3238V46.3238H86.5047L86.4256 47.2376L87.4219 47.3238ZM86.3672 59.5113L85.3709 59.4251L85.2769 60.5113H86.3672V59.5113ZM119.297 59.5113L120.293 59.5943L120.384 58.5113H119.297V59.5113ZM118.711 66.5425V67.5425H119.631L119.707 66.6256L118.711 66.5425ZM85.7812 66.5425V65.5425H84.8675L84.7853 66.4526L85.7812 66.5425ZM84.2578 83.4175L83.2619 83.3276L83.1635 84.4175H84.2578V83.4175ZM123.516 83.4175L124.512 83.5006L124.602 82.4175H123.516V83.4175ZM122.93 90.4488V91.4488H123.85L123.926 90.5318L122.93 90.4488ZM20.0391 90.4488L19.0425 90.3657L18.9523 91.4488H20.0391V90.4488ZM20.625 83.4175V82.4175H19.7049L19.6285 83.3345L20.625 83.4175ZM59.8828 83.4175V84.4175H60.7966L60.8788 83.5075L59.8828 83.4175ZM61.4062 66.5425L62.4022 66.6325L62.5006 65.5425H61.4062V66.5425ZM28.4766 66.5425L27.48 66.4595L27.3898 67.5425H28.4766V66.5425ZM29.0625 59.5113V58.5113H28.1424L28.066 59.4282L29.0625 59.5113ZM61.9922 59.5113V60.5113H62.9094L62.9885 59.5975L61.9922 59.5113ZM63.0469 47.3238L64.0432 47.41L64.1371 46.3238H63.0469V47.3238ZM118.125 40.2925V41.2925L118.345 39.3171L118.125 40.2925ZM76.6406 30.9175L76.8611 29.9421L76.6442 29.8931L76.4271 29.9406L76.6406 30.9175ZM33.75 40.2925L33.5365 39.3156L33.75 41.2925V40.2925ZM32.754 47.4112L33.3399 40.7315L31.3476 40.5567L30.7616 47.2364L32.754 47.4112ZM32.1334 39.6665L22.8756 41.6587L23.2963 43.6139L32.5541 41.6217L32.1334 39.6665ZM24.0822 42.7229L25.0197 31.9417L23.0272 31.7684L22.0897 42.5497L24.0822 42.7229ZM24.2372 32.8319L77.7919 21.1132L77.3644 19.1594L23.8097 30.8782L24.2372 32.8319ZM77.3579 21.1117L129.272 32.8305L129.712 30.8796L77.7983 19.1608L77.3579 21.1117ZM128.496 31.7684L127.558 42.5497L129.551 42.7229L130.488 31.9417L128.496 31.7684ZM128.78 41.6621L119.171 39.4355L118.72 41.3839L128.329 43.6105L128.78 41.6621ZM117.949 40.3253L117.363 47.2393L119.356 47.4082L119.942 40.4942L117.949 40.3253ZM118.359 46.3238H87.4219V48.3238H118.359V46.3238ZM86.4256 47.2376L85.3709 59.4251L87.3635 59.5975L88.4182 47.41L86.4256 47.2376ZM86.3672 60.5113H119.297V58.5113H86.3672V60.5113ZM118.3 59.4282L117.714 66.4595L119.707 66.6256L120.293 59.5943L118.3 59.4282ZM118.711 65.5425H85.7812V67.5425H118.711V65.5425ZM84.7853 66.4526L83.2619 83.3276L85.2538 83.5075L86.7772 66.6325L84.7853 66.4526ZM84.2578 84.4175H123.516V82.4175H84.2578V84.4175ZM122.519 83.3345L121.933 90.3657L123.926 90.5318L124.512 83.5006L122.519 83.3345ZM122.93 89.4488H83.6719V91.4488H122.93V89.4488ZM83.6719 89.4488H59.2969V91.4488H83.6719V89.4488ZM59.2969 89.4488H20.0391V91.4488H59.2969V89.4488ZM21.0356 90.5318L21.6215 83.5006L19.6285 83.3345L19.0425 90.3657L21.0356 90.5318ZM20.625 84.4175H59.8828V82.4175H20.625V84.4175ZM60.8788 83.5075L62.4022 66.6325L60.4103 66.4526L58.8869 83.3276L60.8788 83.5075ZM61.4062 65.5425H28.4766V67.5425H61.4062V65.5425ZM29.4731 66.6256L30.059 59.5943L28.066 59.4282L27.48 66.4595L29.4731 66.6256ZM29.0625 60.5113H61.9922V58.5113H29.0625V60.5113ZM62.9885 59.5975L64.0432 47.41L62.0506 47.2376L60.9959 59.4251L62.9885 59.5975ZM63.0469 46.3238H31.7578V48.3238H63.0469V46.3238ZM118.345 39.3171L76.8611 29.9421L76.4202 31.8929L117.905 41.2679L118.345 39.3171ZM76.4271 29.9406L33.5365 39.3156L33.9635 41.2695L76.8542 31.8945L76.4271 29.9406ZM33.75 41.2925H118.125V39.2925H33.75V41.2925ZM152.859 73.5738L151.863 73.4907L151.773 74.5738H152.859V73.5738ZM153.445 66.5425V65.5425H152.525L152.449 66.4595L153.445 66.5425ZM163.289 66.5425V67.5425H164.206L164.285 66.629L163.289 66.5425ZM165.281 43.5738V42.5738H164.364L164.285 43.4874L165.281 43.5738ZM205.594 43.5738V44.5738H206.511L206.59 43.66L205.594 43.5738ZM206.648 31.3863L207.645 31.4725L207.739 30.3863H206.648V31.3863ZM185.32 31.3863V30.3863H184.746L184.457 30.8824L185.32 31.3863ZM181.219 38.4175V39.4175H181.793L182.083 38.9214L181.219 38.4175ZM157.781 38.4175L156.915 37.9178L156.05 39.4175H157.781V38.4175ZM168.328 20.1363V19.1363H167.751L167.462 19.6366L168.328 20.1363ZM191.766 20.1363L192.629 20.6402L193.507 19.1363H191.766V20.1363ZM189.305 24.355L188.441 23.8512L187.564 25.355H189.305V24.355ZM261.492 24.355L262.489 24.4381L262.579 23.355H261.492V24.355ZM260.906 31.3863V32.3863H261.826L261.903 31.4693L260.906 31.3863ZM231.023 31.3863V30.3863H230.106L230.027 31.3001L231.023 31.3863ZM229.969 43.5738L228.972 43.4876L228.878 44.5738H229.969V43.5738ZM256.336 43.5738L257.332 43.6568L257.423 42.5738H256.336V43.5738ZM255.75 50.605V51.605H256.67L256.747 50.6881L255.75 50.605ZM229.266 50.605V49.605H228.35L228.27 50.5171L229.266 50.605ZM227.859 66.5425L226.863 66.4547L226.767 67.5425H227.859V66.5425ZM257.977 66.5425L258.973 66.6256L259.063 65.5425H257.977V66.5425ZM257.391 73.5738V74.5738H258.311L258.387 73.6568L257.391 73.5738ZM227.273 73.5738V72.5738H226.36L226.277 73.4839L227.273 73.5738ZM225.75 90.4488V91.4488H226.664L226.746 90.5387L225.75 90.4488ZM201.375 90.4488L200.379 90.3589L200.281 91.4488H201.375V90.4488ZM202.898 73.5738L203.894 73.6637L203.993 72.5738H202.898V73.5738ZM187.195 50.605V49.605H186.28L186.199 50.5171L187.195 50.605ZM185.789 66.5425L184.793 66.4547L184.697 67.5425H185.789V66.5425ZM203.484 66.5425V67.5425H204.4L204.48 66.6304L203.484 66.5425ZM204.891 50.605L205.887 50.6929L205.983 49.605H204.891V50.605ZM153.856 73.6568L154.442 66.6256L152.449 66.4595L151.863 73.4907L153.856 73.6568ZM153.445 67.5425H163.289V65.5425H153.445V67.5425ZM164.285 66.629L166.278 43.6602L164.285 43.4874L162.293 66.4561L164.285 66.629ZM165.281 44.5738H187.781V42.5738H165.281V44.5738ZM187.781 44.5738H205.594V42.5738H187.781V44.5738ZM206.59 43.66L207.645 31.4725L205.652 31.3001L204.597 43.4876L206.59 43.66ZM206.648 30.3863H185.32V32.3863H206.648V30.3863ZM184.457 30.8824L180.355 37.9137L182.083 38.9214L186.184 31.8902L184.457 30.8824ZM181.219 37.4175H157.781V39.4175H181.219V37.4175ZM158.647 38.9173L169.194 20.636L167.462 19.6366L156.915 37.9178L158.647 38.9173ZM168.328 21.1363H191.766V19.1363H168.328V21.1363ZM190.902 19.6324L188.441 23.8512L190.168 24.8589L192.629 20.6402L190.902 19.6324ZM189.305 25.355H261.492V23.355H189.305V25.355ZM260.496 24.272L259.91 31.3032L261.903 31.4693L262.489 24.4381L260.496 24.272ZM260.906 30.3863H231.023V32.3863H260.906V30.3863ZM230.027 31.3001L228.972 43.4876L230.965 43.66L232.02 31.4725L230.027 31.3001ZM229.969 44.5738H256.336V42.5738H229.969V44.5738ZM255.339 43.4907L254.753 50.522L256.747 50.6881L257.332 43.6568L255.339 43.4907ZM255.75 49.605H229.266V51.605H255.75V49.605ZM228.27 50.5171L226.863 66.4547L228.855 66.6304L230.262 50.6929L228.27 50.5171ZM227.859 67.5425H257.977V65.5425H227.859V67.5425ZM256.98 66.4595L256.394 73.4907L258.387 73.6568L258.973 66.6256L256.98 66.4595ZM257.391 72.5738H227.273V74.5738H257.391V72.5738ZM226.277 73.4839L224.754 90.3589L226.746 90.5387L228.269 73.6637L226.277 73.4839ZM225.75 89.4488H201.375V91.4488H225.75V89.4488ZM202.371 90.5387L203.894 73.6637L201.902 73.4839L200.379 90.3589L202.371 90.5387ZM202.898 72.5738H152.859V74.5738H202.898V72.5738ZM186.199 50.5171L184.793 66.4547L186.785 66.6304L188.191 50.6929L186.199 50.5171ZM185.789 67.5425H203.484V65.5425H185.789V67.5425ZM204.48 66.6304L205.887 50.6929L203.895 50.5171L202.488 66.4547L204.48 66.6304ZM204.891 49.605H187.195V51.605H204.891V49.605ZM286.383 50.1363L285.386 50.0532L285.296 51.1363H286.383V50.1363ZM286.969 43.105V42.105H286.049L285.972 43.022L286.969 43.105ZM294.117 43.105V44.105H295.037L295.114 43.1881L294.117 43.105ZM295.055 31.855L296.051 31.9381L296.141 30.855H295.055V31.855ZM287.906 31.855L286.932 31.6309L286.65 32.855H287.906V31.855ZM290.602 20.1363V19.1363H289.805L289.627 19.9121L290.602 20.1363ZM313.102 20.1363L314.077 20.3558L314.352 19.1363H313.102V20.1363ZM312.047 24.8238L311.071 24.6043L310.797 25.8238H312.047V24.8238ZM393.844 24.8238L394.84 24.9068L394.931 23.8238H393.844V24.8238ZM393.258 31.855V32.855H394.178L394.254 31.9381L393.258 31.855ZM386.227 31.855V30.855H385.306L385.23 31.772L386.227 31.855ZM385.289 43.105L384.293 43.022L384.202 44.105H385.289V43.105ZM392.32 43.105L393.317 43.1881L393.407 42.105H392.32V43.105ZM391.734 50.1363V51.1363H392.655L392.731 50.2193L391.734 50.1363ZM384.703 50.1363V49.1363H383.792L383.707 50.0429L384.703 50.1363ZM383.648 61.3863L382.653 61.2929L382.55 62.3863H383.648V61.3863ZM388.805 61.3863L389.801 61.4693L389.891 60.3863H388.805V61.3863ZM388.219 68.4175V69.4175H389.139L389.215 68.5006L388.219 68.4175ZM286.617 68.4175L285.621 68.3345L285.53 69.4175H286.617V68.4175ZM287.203 61.3863V60.3863H286.283L286.207 61.3032L287.203 61.3863ZM292.477 61.3863V62.3863H293.387L293.472 61.4796L292.477 61.3863ZM293.531 50.1363L294.527 50.2296L294.629 49.1363H293.531V50.1363ZM282.75 90.4488L281.822 90.0774L281.273 91.4488H282.75V90.4488ZM289.781 72.8707V71.8707H289.104L288.853 72.4993L289.781 72.8707ZM308.062 72.8707L308.991 73.2421L309.54 71.8707H308.062V72.8707ZM301.031 90.4488V91.4488H301.708L301.96 90.8202L301.031 90.4488ZM370.055 90.4488L369.084 90.6883L369.271 91.4488H370.055V90.4488ZM365.719 72.8707V71.8707H364.442L364.748 73.1102L365.719 72.8707ZM384 72.8707L384.971 72.6312L384.783 71.8707H384V72.8707ZM388.336 90.4488V91.4488H389.613L389.307 90.2093L388.336 90.4488ZM313.102 90.4488L312.105 90.3624L312.011 91.4488H313.102V90.4488ZM314.625 72.8707V71.8707H313.708L313.629 72.7843L314.625 72.8707ZM332.906 72.8707L333.903 72.957L333.997 71.8707H332.906V72.8707ZM331.383 90.4488V91.4488H332.3L332.379 90.5351L331.383 90.4488ZM339.82 90.4488L338.824 90.3624L338.73 91.4488H339.82V90.4488ZM341.344 72.8707V71.8707H340.427L340.347 72.7843L341.344 72.8707ZM359.625 72.8707L360.621 72.957L360.715 71.8707H359.625V72.8707ZM358.102 90.4488V91.4488H359.019L359.098 90.5351L358.102 90.4488ZM318.258 43.105V44.105H319.178L319.254 43.1881L318.258 43.105ZM319.195 31.855L320.192 31.9381L320.282 30.855H319.195V31.855ZM313.805 31.855V30.855H312.885L312.808 31.772L313.805 31.855ZM312.867 43.105L311.871 43.022L311.78 44.105H312.867V43.105ZM342.633 43.105V44.105H343.553L343.629 43.1881L342.633 43.105ZM343.57 31.855L344.567 31.9381L344.657 30.855H343.57V31.855ZM337.945 31.855V30.855H337.025L336.949 31.772L337.945 31.855ZM337.008 43.105L336.011 43.022L335.921 44.105H337.008V43.105ZM366.539 43.105V44.105H367.459L367.536 43.1881L366.539 43.105ZM367.477 31.855L368.473 31.9381L368.563 30.855H367.477V31.855ZM362.32 31.855V30.855H361.4L361.324 31.772L362.32 31.855ZM361.383 43.105L360.386 43.022L360.296 44.105H361.383V43.105ZM360.797 50.1363V49.1363H359.886L359.801 50.0429L360.797 50.1363ZM359.742 61.3863L358.747 61.2929L358.644 62.3863H359.742V61.3863ZM364.898 61.3863V62.3863H365.809L365.894 61.4796L364.898 61.3863ZM365.953 50.1363L366.949 50.2296L367.051 49.1363H365.953V50.1363ZM336.422 50.1363V49.1363H335.511L335.426 50.0429L336.422 50.1363ZM335.367 61.3863L334.372 61.2929L334.269 62.3863H335.367V61.3863ZM340.992 61.3863V62.3863H341.903L341.988 61.4796L340.992 61.3863ZM342.047 50.1363L343.043 50.2296L343.145 49.1363H342.047V50.1363ZM312.281 50.1363V49.1363H311.371L311.286 50.0429L312.281 50.1363ZM311.227 61.3863L310.231 61.2929L310.128 62.3863H311.227V61.3863ZM316.617 61.3863V62.3863H317.528L317.613 61.4796L316.617 61.3863ZM317.672 50.1363L318.668 50.2296L318.77 49.1363H317.672V50.1363ZM287.379 50.2193L287.965 43.1881L285.972 43.022L285.386 50.0532L287.379 50.2193ZM286.969 44.105H294.117V42.105H286.969V44.105ZM295.114 43.1881L296.051 31.9381L294.058 31.772L293.121 43.022L295.114 43.1881ZM295.055 30.855H287.906V32.855H295.055V30.855ZM288.881 32.0792L291.576 20.3604L289.627 19.9121L286.932 31.6309L288.881 32.0792ZM290.602 21.1363H313.102V19.1363H290.602V21.1363ZM312.126 19.9168L311.071 24.6043L313.022 25.0433L314.077 20.3558L312.126 19.9168ZM312.047 25.8238H393.844V23.8238H312.047V25.8238ZM392.847 24.7407L392.261 31.772L394.254 31.9381L394.84 24.9068L392.847 24.7407ZM393.258 30.855H386.227V32.855H393.258V30.855ZM385.23 31.772L384.293 43.022L386.286 43.1881L387.223 31.9381L385.23 31.772ZM385.289 44.105H392.32V42.105H385.289V44.105ZM391.324 43.022L390.738 50.0532L392.731 50.2193L393.317 43.1881L391.324 43.022ZM391.734 49.1363H384.703V51.1363H391.734V49.1363ZM383.707 50.0429L382.653 61.2929L384.644 61.4796L385.699 50.2296L383.707 50.0429ZM383.648 62.3863H388.805V60.3863H383.648V62.3863ZM387.808 61.3032L387.222 68.3345L389.215 68.5006L389.801 61.4693L387.808 61.3032ZM388.219 67.4175H286.617V69.4175H388.219V67.4175ZM287.614 68.5006L288.2 61.4693L286.207 61.3032L285.621 68.3345L287.614 68.5006ZM287.203 62.3863H292.477V60.3863H287.203V62.3863ZM293.472 61.4796L294.527 50.2296L292.536 50.0429L291.481 61.2929L293.472 61.4796ZM293.531 49.1363H286.383V51.1363H293.531V49.1363ZM283.678 90.8202L290.71 73.2421L288.853 72.4993L281.822 90.0774L283.678 90.8202ZM289.781 73.8707H308.062V71.8707H289.781V73.8707ZM307.134 72.4993L300.103 90.0774L301.96 90.8202L308.991 73.2421L307.134 72.4993ZM301.031 89.4488H282.75V91.4488H301.031V89.4488ZM371.026 90.2093L366.69 72.6312L364.748 73.1102L369.084 90.6883L371.026 90.2093ZM365.719 73.8707H384V71.8707H365.719V73.8707ZM383.029 73.1102L387.365 90.6883L389.307 90.2093L384.971 72.6312L383.029 73.1102ZM388.336 89.4488H370.055V91.4488H388.336V89.4488ZM314.098 90.5351L315.621 72.957L313.629 72.7843L312.105 90.3624L314.098 90.5351ZM314.625 73.8707H332.906V71.8707H314.625V73.8707ZM331.91 72.7843L330.387 90.3624L332.379 90.5351L333.903 72.957L331.91 72.7843ZM331.383 89.4488H313.102V91.4488H331.383V89.4488ZM340.817 90.5351L342.34 72.957L340.347 72.7843L338.824 90.3624L340.817 90.5351ZM341.344 73.8707H359.625V71.8707H341.344V73.8707ZM358.629 72.7843L357.105 90.3624L359.098 90.5351L360.621 72.957L358.629 72.7843ZM358.102 89.4488H339.82V91.4488H358.102V89.4488ZM319.254 43.1881L320.192 31.9381L318.199 31.772L317.261 43.022L319.254 43.1881ZM319.195 30.855H313.805V32.855H319.195V30.855ZM312.808 31.772L311.871 43.022L313.864 43.1881L314.801 31.9381L312.808 31.772ZM312.867 44.105H318.258V42.105H312.867V44.105ZM343.629 43.1881L344.567 31.9381L342.574 31.772L341.636 43.022L343.629 43.1881ZM343.57 30.855H337.945V32.855H343.57V30.855ZM336.949 31.772L336.011 43.022L338.004 43.1881L338.942 31.9381L336.949 31.772ZM337.008 44.105H342.633V42.105H337.008V44.105ZM367.536 43.1881L368.473 31.9381L366.48 31.772L365.543 43.022L367.536 43.1881ZM367.477 30.855H362.32V32.855H367.477V30.855ZM361.324 31.772L360.386 43.022L362.379 43.1881L363.317 31.9381L361.324 31.772ZM361.383 44.105H366.539V42.105H361.383V44.105ZM359.801 50.0429L358.747 61.2929L360.738 61.4796L361.793 50.2296L359.801 50.0429ZM359.742 62.3863H364.898V60.3863H359.742V62.3863ZM365.894 61.4796L366.949 50.2296L364.957 50.0429L363.903 61.2929L365.894 61.4796ZM365.953 49.1363H360.797V51.1363H365.953V49.1363ZM335.426 50.0429L334.372 61.2929L336.363 61.4796L337.418 50.2296L335.426 50.0429ZM335.367 62.3863H340.992V60.3863H335.367V62.3863ZM341.988 61.4796L343.043 50.2296L341.051 50.0429L339.997 61.2929L341.988 61.4796ZM342.047 49.1363H336.422V51.1363H342.047V49.1363ZM311.286 50.0429L310.231 61.2929L312.222 61.4796L313.277 50.2296L311.286 50.0429ZM311.227 62.3863H316.617V60.3863H311.227V62.3863ZM317.613 61.4796L318.668 50.2296L316.676 50.0429L315.622 61.2929L317.613 61.4796ZM317.672 49.1363H312.281V51.1363H317.672V49.1363ZM417.797 55.4097L416.864 55.0501L416.34 56.4097H417.797V55.4097ZM431.391 20.1363V19.1363H430.704L430.458 19.7767L431.391 20.1363ZM452.016 20.1363L452.949 20.4949L453.471 19.1363H452.016V20.1363ZM444.633 39.355L443.699 38.9964L443.649 39.1279L443.637 39.2682L444.633 39.355ZM440.18 90.4488V91.4488H441.096L441.176 90.5356L440.18 90.4488ZM420.492 90.4488L419.496 90.3622L419.401 91.4488H420.492V90.4488ZM423.539 55.4097L424.535 55.4964L424.63 54.4097H423.539V55.4097ZM453.305 33.73L452.308 33.647L452.218 34.73H453.305V33.73ZM453.891 26.6988V25.6988H452.97L452.894 26.6157L453.891 26.6988ZM477.094 26.6988V27.6988H478.008L478.09 26.7877L477.094 26.6988ZM477.68 20.1363V19.1363H476.765L476.684 20.0474L477.68 20.1363ZM498.305 20.1363L499.301 20.2252L499.398 19.1363H498.305V20.1363ZM497.719 26.6988L496.723 26.6099L496.625 27.6988H497.719V26.6988ZM525.609 26.6988L526.606 26.7818L526.696 25.6988H525.609V26.6988ZM525.023 33.73V34.73H525.944L526.02 33.8131L525.023 33.73ZM499.594 33.73V32.73H498.046L498.682 34.1411L499.594 33.73ZM521.156 81.5425V82.5425H522.704L522.068 81.1314L521.156 81.5425ZM504.281 81.5425L503.37 81.9548L503.636 82.5425H504.281V81.5425ZM494.789 60.566L495.7 60.1537L494.122 56.6659L493.793 60.48L494.789 60.566ZM492.211 90.4488V91.4488H493.128L493.207 90.5347L492.211 90.4488ZM471.586 90.4488L470.59 90.3625L470.496 91.4488H471.586V90.4488ZM474.164 60.6832L475.16 60.7695L473.324 60.1405L474.164 60.6832ZM460.688 81.5425V82.5425H461.232L461.527 82.0852L460.688 81.5425ZM443.812 81.5425L442.972 81.0007L441.978 82.5425H443.812V81.5425ZM474.633 33.73L475.473 34.2718L476.467 32.73H474.633V33.73ZM418.73 55.7693L432.324 20.4959L430.458 19.7767L416.864 55.0501L418.73 55.7693ZM431.391 21.1363H452.016V19.1363H431.391V21.1363ZM451.082 19.7777L443.699 38.9964L445.566 39.7136L452.949 20.4949L451.082 19.7777ZM443.637 39.2682L439.183 90.362L441.176 90.5356L445.629 39.4419L443.637 39.2682ZM440.18 89.4488H420.492V91.4488H440.18V89.4488ZM421.488 90.5354L424.535 55.4964L422.543 55.3231L419.496 90.3622L421.488 90.5354ZM423.539 54.4097H417.797V56.4097H423.539V54.4097ZM454.301 33.8131L454.887 26.7818L452.894 26.6157L452.308 33.647L454.301 33.8131ZM453.891 27.6988H477.094V25.6988H453.891V27.6988ZM478.09 26.7877L478.676 20.2252L476.684 20.0474L476.098 26.6099L478.09 26.7877ZM477.68 21.1363H498.305V19.1363H477.68V21.1363ZM497.309 20.0474L496.723 26.6099L498.715 26.7877L499.301 20.2252L497.309 20.0474ZM497.719 27.6988H525.609V25.6988H497.719V27.6988ZM524.613 26.6157L524.027 33.647L526.02 33.8131L526.606 26.7818L524.613 26.6157ZM525.023 32.73H499.594V34.73H525.023V32.73ZM498.682 34.1411L520.245 81.9537L522.068 81.1314L500.505 33.3189L498.682 34.1411ZM521.156 80.5425H504.281V82.5425H521.156V80.5425ZM505.192 81.1303L495.7 60.1537L493.878 60.9782L503.37 81.9548L505.192 81.1303ZM493.793 60.48L491.215 90.3628L493.207 90.5347L495.785 60.6519L493.793 60.48ZM492.211 89.4488H471.586V91.4488H492.211V89.4488ZM472.582 90.5351L475.16 60.7695L473.168 60.5969L470.59 90.3625L472.582 90.5351ZM473.324 60.1405L459.848 80.9999L461.527 82.0852L475.004 61.2258L473.324 60.1405ZM460.688 80.5425H443.812V82.5425H460.688V80.5425ZM444.653 82.0843L475.473 34.2718L473.792 33.1882L442.972 81.0007L444.653 82.0843ZM474.633 32.73H453.305V34.73H474.633V32.73ZM589.641 72.8707L588.642 72.8196L588.588 73.8707H589.641V72.8707ZM592.336 20.1363V19.1363H591.386L591.337 20.0852L592.336 20.1363ZM618.82 20.1363L619.813 20.2576L619.95 19.1363H618.82V20.1363ZM612.375 72.8707V73.8707H613.26L613.368 72.992L612.375 72.8707ZM586.125 90.4488L585.129 90.3559L585.027 91.4488H586.125V90.4488ZM586.945 81.6597V80.6597H586.034L585.95 81.5668L586.945 81.6597ZM613.43 81.6597L614.425 81.7527L614.527 80.6597H613.43V81.6597ZM612.609 90.4488V91.4488H613.52L613.605 90.5417L612.609 90.4488ZM590.639 72.9217L593.335 20.1873L591.337 20.0852L588.642 72.8196L590.639 72.9217ZM592.336 21.1363H618.82V19.1363H592.336V21.1363ZM617.828 20.015L611.382 72.7493L613.368 72.992L619.813 20.2576L617.828 20.015ZM612.375 71.8707H589.641V73.8707H612.375V71.8707ZM587.121 90.5417L587.941 81.7527L585.95 81.5668L585.129 90.3559L587.121 90.5417ZM586.945 82.6597H613.43V80.6597H586.945V82.6597ZM612.434 81.5668L611.614 90.3559L613.605 90.5417L614.425 81.7527L612.434 81.5668ZM612.609 89.4488H586.125V91.4488H612.609V89.4488ZM684.609 90.4488L683.613 90.3596L683.516 91.4488H684.609V90.4488ZM690.82 21.0738V20.0738H689.906L689.824 20.9846L690.82 21.0738ZM784.57 21.0738L785.566 21.163L785.664 20.0738H784.57V21.0738ZM778.359 90.4488V91.4488H779.274L779.355 90.538L778.359 90.4488ZM757.031 56.6988L758.027 56.7905L758.128 55.6988H757.031V56.6988ZM712.031 56.6988V55.6988H711.119L711.035 56.6071L712.031 56.6988ZM709.57 83.4175L708.575 83.3258L708.474 84.4175H709.57V83.4175ZM754.57 83.4175V84.4175H755.482L755.566 83.5093L754.57 83.4175ZM759.609 28.105L760.605 28.197L760.706 27.105H759.609V28.105ZM714.609 28.105V27.105H713.698L713.614 28.013L714.609 28.105ZM712.617 49.6675L711.621 49.5755L711.521 50.6675H712.617V49.6675ZM757.617 49.6675V50.6675H758.529L758.613 49.7595L757.617 49.6675ZM685.605 90.538L691.816 21.163L689.824 20.9846L683.613 90.3596L685.605 90.538ZM690.82 22.0738H692.695V20.0738H690.82V22.0738ZM692.695 22.0738H715.195V20.0738H692.695V22.0738ZM715.195 22.0738H760.195V20.0738H715.195V22.0738ZM760.195 22.0738H784.57V20.0738H760.195V22.0738ZM783.574 20.9846L777.363 90.3596L779.355 90.538L785.566 21.163L783.574 20.9846ZM778.359 89.4488H777.188V91.4488H778.359V89.4488ZM777.188 89.4488H753.984V91.4488H777.188V89.4488ZM753.984 89.4488H708.984V91.4488H753.984V89.4488ZM708.984 89.4488H687.07V91.4488H708.984V89.4488ZM687.07 89.4488H684.609V91.4488H687.07V89.4488ZM757.031 55.6988H712.031V57.6988H757.031V55.6988ZM711.035 56.6071L708.575 83.3258L710.566 83.5093L713.027 56.7905L711.035 56.6071ZM709.57 84.4175H754.57V82.4175H709.57V84.4175ZM755.566 83.5093L758.027 56.7905L756.035 56.6071L753.575 83.3258L755.566 83.5093ZM759.609 27.105H714.609V29.105H759.609V27.105ZM713.614 28.013L711.621 49.5755L713.613 49.7595L715.605 28.197L713.614 28.013ZM712.617 50.6675H757.617V48.6675H712.617V50.6675ZM758.613 49.7595L760.605 28.197L758.614 28.013L756.621 49.5755L758.613 49.7595ZM816.609 90.4488L815.613 90.3596L815.516 91.4488H816.609V90.4488ZM822.82 21.0738V20.0738H821.906L821.824 20.9846L822.82 21.0738ZM916.57 21.0738L917.566 21.163L917.664 20.0738H916.57V21.0738ZM910.359 90.4488V91.4488H911.274L911.355 90.538L910.359 90.4488ZM889.031 56.6988L890.027 56.7905L890.128 55.6988H889.031V56.6988ZM844.031 56.6988V55.6988H843.119L843.035 56.6071L844.031 56.6988ZM841.57 83.4175L840.575 83.3258L840.474 84.4175H841.57V83.4175ZM886.57 83.4175V84.4175H887.482L887.566 83.5093L886.57 83.4175ZM891.609 28.105L892.605 28.197L892.706 27.105H891.609V28.105ZM846.609 28.105V27.105H845.698L845.614 28.013L846.609 28.105ZM844.617 49.6675L843.621 49.5755L843.521 50.6675H844.617V49.6675ZM889.617 49.6675V50.6675H890.529L890.613 49.7595L889.617 49.6675ZM817.605 90.538L823.816 21.163L821.824 20.9846L815.613 90.3596L817.605 90.538ZM822.82 22.0738H824.695V20.0738H822.82V22.0738ZM824.695 22.0738H847.195V20.0738H824.695V22.0738ZM847.195 22.0738H892.195V20.0738H847.195V22.0738ZM892.195 22.0738H916.57V20.0738H892.195V22.0738ZM915.574 20.9846L909.363 90.3596L911.355 90.538L917.566 21.163L915.574 20.9846ZM910.359 89.4488H909.188V91.4488H910.359V89.4488ZM909.188 89.4488H885.984V91.4488H909.188V89.4488ZM885.984 89.4488H840.984V91.4488H885.984V89.4488ZM840.984 89.4488H819.07V91.4488H840.984V89.4488ZM819.07 89.4488H816.609V91.4488H819.07V89.4488ZM889.031 55.6988H844.031V57.6988H889.031V55.6988ZM843.035 56.6071L840.575 83.3258L842.566 83.5093L845.027 56.7905L843.035 56.6071ZM841.57 84.4175H886.57V82.4175H841.57V84.4175ZM887.566 83.5093L890.027 56.7905L888.035 56.6071L885.575 83.3258L887.566 83.5093ZM891.609 27.105H846.609V29.105H891.609V27.105ZM845.614 28.013L843.621 49.5755L845.613 49.7595L847.605 28.197L845.614 28.013ZM844.617 50.6675H889.617V48.6675H844.617V50.6675ZM890.613 49.7595L892.605 28.197L890.614 28.013L888.621 49.5755L890.613 49.7595ZM990.445 20.1363V19.1363H989.529L989.449 20.0489L990.445 20.1363ZM1012.95 20.1363L1013.94 20.2237L1014.04 19.1363H1012.95V20.1363ZM1010.6 46.855L1009.61 46.7677L1009.51 47.855H1010.6V46.855ZM1025.84 46.855V47.855H1026.75L1026.83 46.9415L1025.84 46.855ZM1027.83 23.8863V22.8863H1026.91L1026.83 23.7999L1027.83 23.8863ZM1049.39 23.8863L1050.39 23.9719L1050.48 22.8863H1049.39V23.8863ZM1046.81 53.8863V54.8863H1047.73L1047.81 53.9719L1046.81 53.8863ZM1010.02 53.8863V52.8863H1009.1L1009.02 53.7954L1010.02 53.8863ZM1007.32 83.4175L1006.32 83.3267L1006.22 84.4175H1007.32V83.4175ZM1024.08 83.4175V84.4175H1025L1025.07 83.504L1024.08 83.4175ZM1026.07 60.4488V59.4488H1025.15L1025.07 60.3624L1026.07 60.4488ZM1048.57 60.4488L1049.57 60.5344L1049.66 59.4488H1048.57V60.4488ZM1045.99 90.4488V91.4488H1046.91L1046.99 90.5344L1045.99 90.4488ZM945.094 90.4488L944.097 90.3632L944.004 91.4488H945.094V90.4488ZM947.672 60.4488V59.4488H946.754L946.676 60.3632L947.672 60.4488ZM970.172 60.4488L971.168 60.5352L971.262 59.4488H970.172V60.4488ZM968.18 83.4175L967.183 83.3311L967.089 84.4175H968.18V83.4175ZM984.82 83.4175V84.4175H985.733L985.816 83.5084L984.82 83.4175ZM987.516 53.8863L988.511 53.9772L988.611 52.8863H987.516V53.8863ZM950.719 53.8863L949.722 53.8007L949.629 54.8863H950.719V53.8863ZM953.297 23.8863V22.8863H952.379L952.301 23.8007L953.297 23.8863ZM974.859 23.8863L975.856 23.9727L975.95 22.8863H974.859V23.8863ZM972.867 46.855L971.871 46.7686L971.777 47.855H972.867V46.855ZM988.102 46.855V47.855H989.018L989.098 46.9424L988.102 46.855ZM990.445 21.1363H1012.95V19.1363H990.445V21.1363ZM1011.95 20.0489L1009.61 46.7677L1011.6 46.9424L1013.94 20.2237L1011.95 20.0489ZM1010.6 47.855H1025.84V45.855H1010.6V47.855ZM1026.83 46.9415L1028.82 23.9727L1026.83 23.7999L1024.84 46.7686L1026.83 46.9415ZM1027.83 24.8863H1049.39V22.8863H1027.83V24.8863ZM1048.39 23.8007L1045.82 53.8007L1047.81 53.9719L1050.39 23.9719L1048.39 23.8007ZM1046.81 52.8863H1025.25V54.8863H1046.81V52.8863ZM1025.25 52.8863H1010.02V54.8863H1025.25V52.8863ZM1009.02 53.7954L1006.32 83.3267L1008.32 83.5084L1011.01 53.9772L1009.02 53.7954ZM1007.32 84.4175H1024.08V82.4175H1007.32V84.4175ZM1025.07 83.504L1027.07 60.5352L1025.07 60.3624L1023.08 83.3311L1025.07 83.504ZM1026.07 61.4488H1048.57V59.4488H1026.07V61.4488ZM1047.57 60.3632L1045 90.3632L1046.99 90.5344L1049.57 60.5344L1047.57 60.3632ZM1045.99 89.4488H1023.49V91.4488H1045.99V89.4488ZM1023.49 89.4488H1006.73V91.4488H1023.49V89.4488ZM1006.73 89.4488H984.234V91.4488H1006.73V89.4488ZM984.234 89.4488H967.594V91.4488H984.234V89.4488ZM967.594 89.4488H945.094V91.4488H967.594V89.4488ZM946.09 90.5344L948.668 60.5344L946.676 60.3632L944.097 90.3632L946.09 90.5344ZM947.672 61.4488H970.172V59.4488H947.672V61.4488ZM969.176 60.3624L967.183 83.3311L969.176 83.504L971.168 60.5352L969.176 60.3624ZM968.18 84.4175H984.82V82.4175H968.18V84.4175ZM985.816 83.5084L988.511 53.9772L986.52 53.7954L983.824 83.3267L985.816 83.5084ZM987.516 52.8863H972.281V54.8863H987.516V52.8863ZM972.281 52.8863H950.719V54.8863H972.281V52.8863ZM951.715 53.9719L954.293 23.9719L952.301 23.8007L949.722 53.8007L951.715 53.9719ZM953.297 24.8863H974.859V22.8863H953.297V24.8863ZM973.863 23.7999L971.871 46.7686L973.863 46.9415L975.856 23.9727L973.863 23.7999ZM972.867 47.855H988.102V45.855H972.867V47.855ZM989.098 46.9424L991.441 20.2237L989.449 20.0489L987.105 46.7677L989.098 46.9424ZM1081.55 82.9488L1080.55 82.8657L1080.46 83.9488H1081.55V82.9488ZM1084.71 44.98V43.98H1083.79L1083.71 44.897L1084.71 44.98ZM1177.99 44.98L1178.99 45.0631L1179.08 43.98H1177.99V44.98ZM1174.83 82.9488V83.9488H1175.75L1175.82 83.0318L1174.83 82.9488ZM1168.5 82.9488V81.9488H1165.92L1167.83 83.6868L1168.5 82.9488ZM1176.7 90.4488V91.4488H1179.28L1177.38 89.7108L1176.7 90.4488ZM1154.2 90.4488L1153.53 91.1868L1153.81 91.4488H1154.2V90.4488ZM1146 82.9488L1146.67 82.2108L1146.39 81.9488H1146V82.9488ZM1111.2 82.9488V81.9488H1110.87L1110.61 82.1369L1111.2 82.9488ZM1100.77 90.4488V91.4488H1101.09L1101.35 91.2607L1100.77 90.4488ZM1078.27 90.4488L1077.68 89.6369L1075.16 91.4488H1078.27V90.4488ZM1088.7 82.9488L1089.28 83.7607L1091.8 81.9488H1088.7V82.9488ZM1080.84 36.6597L1080.11 35.9763L1078.54 37.6597H1080.84V36.6597ZM1096.31 20.1363V19.1363H1095.88L1095.58 19.4529L1096.31 20.1363ZM1118.81 20.1363L1119.54 20.8229L1121.13 19.1363H1118.81V20.1363ZM1112.84 26.4644L1112.11 25.7778L1110.52 27.4644H1112.84V26.4644ZM1117.05 26.4644L1118.05 26.5536L1118.15 25.4644H1117.05V26.4644ZM1115.65 42.1675V43.1675H1116.56L1116.64 42.2567L1115.65 42.1675ZM1094.09 42.1675L1093.09 42.0827L1093 43.1675H1094.09V42.1675ZM1094.55 36.6597L1095.55 36.7445L1095.64 35.6597H1094.55V36.6597ZM1126.78 42.1675L1125.79 42.0775L1125.69 43.1675H1126.78V42.1675ZM1128.77 20.1363V19.1363H1127.86L1127.78 20.0462L1128.77 20.1363ZM1150.34 20.1363L1151.33 20.2102L1151.41 19.1363H1150.34V20.1363ZM1150.1 23.3004L1149.1 23.2265L1149.02 24.3878L1150.18 24.2973L1150.1 23.3004ZM1184.67 20.605L1185.67 20.7209L1185.81 19.5136L1184.59 19.6081L1184.67 20.605ZM1183.85 27.6363L1183.93 28.6335L1184.75 28.5719L1184.84 27.7522L1183.85 27.6363ZM1149.4 30.2144L1149.32 29.2172L1148.48 29.2801L1148.4 30.1196L1149.4 30.2144ZM1148.93 35.1363L1147.93 35.0415L1147.83 36.1363H1148.93V35.1363ZM1183.62 35.1363L1184.61 35.2193L1184.7 34.1363H1183.62V35.1363ZM1183.03 42.1675V43.1675H1183.95L1184.03 42.2506L1183.03 42.1675ZM1105.45 55.0582L1104.46 54.9815L1104.37 56.0582H1105.45V55.0582ZM1155.61 55.0582V56.0582H1156.54L1156.61 55.1349L1155.61 55.0582ZM1155.84 52.0113L1156.84 52.088L1156.92 51.0113H1155.84V52.0113ZM1105.69 52.0113V51.0113H1104.76L1104.69 51.9346L1105.69 52.0113ZM1104.63 65.3707L1103.64 65.2994L1103.56 66.3707H1104.63V65.3707ZM1154.79 65.3707V66.3707H1155.72L1155.79 65.4419L1154.79 65.3707ZM1155.02 62.0894L1156.02 62.1607L1156.1 61.0894H1155.02V62.0894ZM1104.87 62.0894V61.0894H1103.94L1103.87 62.0182L1104.87 62.0894ZM1103.7 75.9175L1102.7 75.818L1102.59 76.9175H1103.7V75.9175ZM1153.85 75.9175V76.9175H1154.76L1154.85 76.017L1153.85 75.9175ZM1154.2 72.4019L1155.2 72.5014L1155.31 71.4019H1154.2V72.4019ZM1104.05 72.4019V71.4019H1103.14L1103.05 72.3024L1104.05 72.4019ZM1082.54 83.0318L1085.71 45.0631L1083.71 44.897L1080.55 82.8657L1082.54 83.0318ZM1084.71 45.98H1093.97V43.98H1084.71V45.98ZM1093.97 45.98H1106.27V43.98H1093.97V45.98ZM1106.27 45.98H1156.43V43.98H1106.27V45.98ZM1156.43 45.98H1169.55V43.98H1156.43V45.98ZM1169.55 45.98H1177.99V43.98H1169.55V45.98ZM1177 44.897L1173.83 82.8657L1175.82 83.0318L1178.99 45.0631L1177 44.897ZM1174.83 81.9488H1168.5V83.9488H1174.83V81.9488ZM1167.83 83.6868L1176.03 91.1868L1177.38 89.7108L1169.17 82.2108L1167.83 83.6868ZM1176.7 89.4488H1154.2V91.4488H1176.7V89.4488ZM1154.88 89.7108L1146.67 82.2108L1145.33 83.6868L1153.53 91.1868L1154.88 89.7108ZM1146 81.9488H1111.2V83.9488H1146V81.9488ZM1110.61 82.1369L1100.18 89.6369L1101.35 91.2607L1111.78 83.7607L1110.61 82.1369ZM1100.77 89.4488H1078.27V91.4488H1100.77V89.4488ZM1078.85 91.2607L1089.28 83.7607L1088.11 82.1369L1077.68 89.6369L1078.85 91.2607ZM1088.7 81.9488H1081.55V83.9488H1088.7V81.9488ZM1081.57 37.3432L1097.04 20.8197L1095.58 19.4529L1080.11 35.9763L1081.57 37.3432ZM1096.31 21.1363H1118.81V19.1363H1096.31V21.1363ZM1118.09 19.4497L1112.11 25.7778L1113.56 27.151L1119.54 20.8229L1118.09 19.4497ZM1112.84 27.4644H1117.05V25.4644H1112.84V27.4644ZM1116.06 26.3752L1114.65 42.0783L1116.64 42.2567L1118.05 26.5536L1116.06 26.3752ZM1115.65 41.1675H1094.09V43.1675H1115.65V41.1675ZM1095.08 42.2523L1095.55 36.7445L1093.56 36.5749L1093.09 42.0827L1095.08 42.2523ZM1094.55 35.6597H1080.84V37.6597H1094.55V35.6597ZM1127.78 42.2576L1129.77 20.2263L1127.78 20.0462L1125.79 42.0775L1127.78 42.2576ZM1128.77 21.1363H1150.34V19.1363H1128.77V21.1363ZM1149.34 20.0624L1149.1 23.2265L1151.1 23.3742L1151.33 20.2102L1149.34 20.0624ZM1150.18 24.2973L1184.75 21.602L1184.59 19.6081L1150.02 22.3034L1150.18 24.2973ZM1183.68 20.4892L1182.86 27.5204L1184.84 27.7522L1185.67 20.7209L1183.68 20.4892ZM1183.78 26.6391L1149.32 29.2172L1149.47 31.2116L1183.93 28.6335L1183.78 26.6391ZM1148.4 30.1196L1147.93 35.0415L1149.93 35.2311L1150.39 30.3092L1148.4 30.1196ZM1148.93 36.1363H1183.62V34.1363H1148.93V36.1363ZM1182.62 35.0532L1182.03 42.0845L1184.03 42.2506L1184.61 35.2193L1182.62 35.0532ZM1183.03 41.1675H1148.34V43.1675H1183.03V41.1675ZM1148.34 41.1675H1133.81V43.1675H1148.34V41.1675ZM1133.81 41.1675H1126.78V43.1675H1133.81V41.1675ZM1105.45 56.0582H1155.61V54.0582H1105.45V56.0582ZM1156.61 55.1349L1156.84 52.088L1154.85 51.9346L1154.61 54.9815L1156.61 55.1349ZM1155.84 51.0113H1105.69V53.0113H1155.84V51.0113ZM1104.69 51.9346L1104.46 54.9815L1106.45 55.1349L1106.68 52.088L1104.69 51.9346ZM1104.63 66.3707H1154.79V64.3707H1104.63V66.3707ZM1155.79 65.4419L1156.02 62.1607L1154.03 62.0182L1153.79 65.2994L1155.79 65.4419ZM1155.02 61.0894H1104.87V63.0894H1155.02V61.0894ZM1103.87 62.0182L1103.64 65.2994L1105.63 65.4419L1105.86 62.1607L1103.87 62.0182ZM1103.7 76.9175H1153.85V74.9175H1103.7V76.9175ZM1154.85 76.017L1155.2 72.5014L1153.21 72.3024L1152.86 75.818L1154.85 76.017ZM1154.2 71.4019H1104.05V73.4019H1154.2V71.4019ZM1103.05 72.3024L1102.7 75.818L1104.69 76.017L1105.04 72.5014L1103.05 72.3024ZM1249.64 72.8707L1248.64 72.8196L1248.59 73.8707H1249.64V72.8707ZM1252.34 20.1363V19.1363H1251.39L1251.34 20.0852L1252.34 20.1363ZM1278.82 20.1363L1279.81 20.2576L1279.95 19.1363H1278.82V20.1363ZM1272.38 72.8707V73.8707H1273.26L1273.37 72.992L1272.38 72.8707ZM1246.12 90.4488L1245.13 90.3559L1245.03 91.4488H1246.12V90.4488ZM1246.95 81.6597V80.6597H1246.03L1245.95 81.5668L1246.95 81.6597ZM1273.43 81.6597L1274.43 81.7527L1274.53 80.6597H1273.43V81.6597ZM1272.61 90.4488V91.4488H1273.52L1273.61 90.5417L1272.61 90.4488ZM1250.64 72.9217L1253.33 20.1873L1251.34 20.0852L1248.64 72.8196L1250.64 72.9217ZM1252.34 21.1363H1278.82V19.1363H1252.34V21.1363ZM1277.83 20.015L1271.38 72.7493L1273.37 72.992L1279.81 20.2576L1277.83 20.015ZM1272.38 71.8707H1249.64V73.8707H1272.38V71.8707ZM1247.12 90.5417L1247.94 81.7527L1245.95 81.5668L1245.13 90.3559L1247.12 90.5417ZM1246.95 82.6597H1273.43V80.6597H1246.95V82.6597ZM1272.43 81.5668L1271.61 90.3559L1273.61 90.5417L1274.43 81.7527L1272.43 81.5668ZM1272.61 89.4488H1246.12V91.4488H1272.61V89.4488Z" fill="white"/>
</g>
<defs>
<filter id="filter0_d_6_2" x="0.0390625" y="0.136292" width="1298.78" height="110.312" filterUnits="userSpaceOnUse" color-interpolation-filters="sRGB">
<feFlood flood-opacity="0" result="BackgroundImageFix"/>
<feColorMatrix in="SourceAlpha" type="matrix" values="0 0 0 0 0 0 0 0 0 0 0 0 0 0 0 0 0 0 127 0" result="hardAlpha"/>
<feOffset/>
<feGaussianBlur stdDeviation="10"/>
<feComposite in2="hardAlpha" operator="out"/>
<feColorMatrix type="matrix" values="0 0 0 0 1 0 0 0 0 1 0 0 0 0 1 0 0 0 1 0"/>
<feBlend mode="normal" in2="BackgroundImageFix" result="effect1_dropShadow_6_2"/>
<feBlend mode="normal" in="SourceGraphic" in2="effect1_dropShadow_6_2" result="shape"/>
</filter>
</defs>
</svg>
