<svg width="360" height="152" viewBox="0 0 360 152" fill="none" xmlns="http://www.w3.org/2000/svg">
<g filter="url(#filter0_d_59_13)">
<path d="M26.6375 35.0425L26.95 31.48L22.0125 32.5425L22.5125 26.7925L51.075 20.5425L78.7625 26.7925L78.2625 32.5425L73.1375 31.355L72.825 35.0425H56.325L55.7625 41.5425H73.325L73.0125 45.2925H55.45L54.6375 54.2925H75.575L75.2625 58.0425H54.325H41.325H20.3875L20.7 54.2925H41.6375L42.45 45.2925H24.8875L25.2 41.5425H42.7625L43.325 35.0425H26.6375ZM72.7 31.2925L50.575 26.2925L27.7 31.2925H72.7ZM91.225 49.0425L91.5375 45.2925H96.7875L97.85 33.0425H109.85H119.35L119.912 26.5425H108.537L106.35 30.2925H93.85L99.475 20.5425H111.975L110.662 22.7925H149.162L148.85 26.5425H132.912L132.35 33.0425H146.412L146.1 36.7925H131.975L131.225 45.2925H147.287L146.975 49.0425H130.912L130.1 58.0425H117.1L117.912 49.0425H91.225ZM109.537 36.7925L108.787 45.2925H118.225L118.975 36.7925H109.537ZM162.438 36.5425L162.75 32.7925H166.562L167.062 26.7925H163.25L164.688 20.5425H176.688L176.125 23.0425H219.75L219.438 26.7925H215.688L215.188 32.7925H218.938L218.625 36.5425H214.875L214.312 42.5425H217.062L216.75 46.2925H162.562L162.875 42.5425H165.688L166.25 36.5425H162.438ZM160.5 58.0425L164.25 48.6675H174L170.25 58.0425H160.5ZM207.062 58.0425L204.75 48.6675H214.5L216.812 58.0425H207.062ZM176.688 58.0425L177.5 48.6675H187.25L186.438 58.0425H176.688ZM190.938 58.0425L191.75 48.6675H201.5L200.688 58.0425H190.938ZM179.438 32.7925L179.938 26.7925H177.062L176.562 32.7925H179.438ZM192.438 32.7925L192.938 26.7925H189.938L189.438 32.7925H192.438ZM205.188 32.7925L205.688 26.7925H202.938L202.438 32.7925H205.188ZM202.125 36.5425L201.562 42.5425H204.312L204.875 36.5425H202.125ZM189.125 36.5425L188.562 42.5425H191.562L192.125 36.5425H189.125ZM176.25 36.5425L175.688 42.5425H178.562L179.125 36.5425H176.25ZM232.525 39.355L239.775 20.5425H250.775L246.837 30.7925L244.462 58.0425H233.962L235.587 39.355H232.525ZM251.462 27.7925L251.775 24.0425H264.15L264.462 20.5425H275.462L275.15 24.0425H290.025L289.712 27.7925H276.15L287.65 53.2925H278.65L273.587 42.105L272.212 58.0425H261.212L262.587 42.1675L255.4 53.2925H246.4L262.837 27.7925H251.462ZM324.175 48.6675L325.612 20.5425H339.737L336.3 48.6675H324.175ZM322.3 58.0425L322.737 53.355H336.862L336.425 58.0425H322.3ZM22.825 131.043L26.1375 94.0425H27.1375H39.1375H63.1375H76.1375L72.825 131.043H72.2H59.825H35.825H24.1375H22.825ZM61.45 113.043H37.45L36.1375 127.293H60.1375L61.45 113.043ZM62.825 97.7925H38.825L37.7625 109.293H61.7625L62.825 97.7925ZM93.225 131.043L96.5375 94.0425H97.5375H109.537H133.537H146.537L143.225 131.043H142.6H130.225H106.225H94.5375H93.225ZM131.85 113.043H107.85L106.537 127.293H130.537L131.85 113.043ZM133.225 97.7925H109.225L108.162 109.293H132.162L133.225 97.7925ZM185.938 93.5425H197.938L196.688 107.793H204.812L205.875 95.5425H217.375L216 111.543H204.5H196.375L194.938 127.293H203.875L204.938 115.043H216.938L215.562 131.043H203.562H194.625H182.625H173.75H161.75L163.125 115.043H175.125L174.062 127.293H182.938L184.375 111.543H176.25H164.75L166.125 95.5425H177.625L176.562 107.793H184.688L185.938 93.5425ZM234.525 127.043L236.212 106.793H241.15H247.712H274.462H281.462H285.962L284.275 127.043H280.9L285.275 131.043H273.275L268.9 127.043H250.337L244.775 131.043H232.775L238.337 127.043H234.525ZM234.15 102.355L242.4 93.5425H254.4L251.212 96.9175H253.462L252.712 105.293H241.212L241.462 102.355H234.15ZM258.65 105.293L259.712 93.5425H271.212L271.087 95.23L289.525 93.7925L289.087 97.5425L270.712 98.9175L270.462 101.543H288.962L288.65 105.293H270.15H262.4H258.65ZM247.275 112.168H274.025L274.15 110.543H247.4L247.275 112.168ZM246.837 117.668H273.587L273.712 115.918H246.962L246.837 117.668ZM246.337 123.293H273.087L273.275 121.418H246.525L246.337 123.293ZM324.175 121.668L325.612 93.5425H339.737L336.3 121.668H324.175ZM322.3 131.043L322.737 126.355H336.862L336.425 131.043H322.3Z" fill="#9C8A72"/>
<path d="M26.6375 35.0425L25.6413 34.9552L25.5459 36.0425H26.6375V35.0425ZM26.95 31.48L27.9462 31.5674L28.0646 30.2173L26.7396 30.5024L26.95 31.48ZM22.0125 32.5425L21.0163 32.4559L20.8989 33.8051L22.2229 33.5202L22.0125 32.5425ZM22.5125 26.7925L22.2987 25.8157L21.58 25.9729L21.5163 26.7059L22.5125 26.7925ZM51.075 20.5425L51.2952 19.5671L51.0784 19.5181L50.8612 19.5657L51.075 20.5425ZM78.7625 26.7925L79.7587 26.8792L79.8344 26.0093L78.9827 25.8171L78.7625 26.7925ZM78.2625 32.5425L78.0368 33.5167L79.1589 33.7767L79.2587 32.6292L78.2625 32.5425ZM73.1375 31.355L73.3632 30.3809L72.2386 30.1203L72.1411 31.2706L73.1375 31.355ZM72.825 35.0425V36.0425H73.7438L73.8214 35.127L72.825 35.0425ZM56.325 35.0425V34.0425H55.4078L55.3287 34.9563L56.325 35.0425ZM55.7625 41.5425L54.7662 41.4563L54.6722 42.5425H55.7625V41.5425ZM73.325 41.5425L74.3215 41.6256L74.4118 40.5425H73.325V41.5425ZM73.0125 45.2925V46.2925H73.9326L74.009 45.3756L73.0125 45.2925ZM55.45 45.2925V44.2925H54.5362L54.454 45.2026L55.45 45.2925ZM54.6375 54.2925L53.6415 54.2026L53.5432 55.2925H54.6375V54.2925ZM75.575 54.2925L76.5715 54.3756L76.6618 53.2925H75.575V54.2925ZM75.2625 58.0425V59.0425H76.1826L76.259 58.1256L75.2625 58.0425ZM20.3875 58.0425L19.391 57.9595L19.3007 59.0425H20.3875V58.0425ZM20.7 54.2925V53.2925H19.7799L19.7035 54.2095L20.7 54.2925ZM41.6375 54.2925V55.2925H42.5513L42.6334 54.3825L41.6375 54.2925ZM42.45 45.2925L43.4459 45.3825L43.5443 44.2925H42.45V45.2925ZM24.8875 45.2925L23.891 45.2095L23.8007 46.2925H24.8875V45.2925ZM25.2 41.5425V40.5425H24.2799L24.2035 41.4595L25.2 41.5425ZM42.7625 41.5425V42.5425H43.6797L43.7588 41.6288L42.7625 41.5425ZM43.325 35.0425L44.3213 35.1288L44.4153 34.0425H43.325V35.0425ZM72.7 31.2925V32.2925L72.9204 30.3171L72.7 31.2925ZM50.575 26.2925L50.7954 25.3171L50.5786 25.2681L50.3615 25.3156L50.575 26.2925ZM27.7 31.2925L27.4865 30.3156L27.7 32.2925V31.2925ZM27.6337 35.1299L27.9462 31.5674L25.9538 31.3927L25.6413 34.9552L27.6337 35.1299ZM26.7396 30.5024L21.8021 31.5649L22.2229 33.5202L27.1604 32.4577L26.7396 30.5024ZM23.0087 32.6292L23.5087 26.8792L21.5163 26.7059L21.0163 32.4559L23.0087 32.6292ZM22.7263 27.7694L51.2888 21.5194L50.8612 19.5657L22.2987 25.8157L22.7263 27.7694ZM50.8548 21.518L78.5423 27.768L78.9827 25.8171L51.2952 19.5671L50.8548 21.518ZM77.7663 26.7059L77.2663 32.4559L79.2587 32.6292L79.7587 26.8792L77.7663 26.7059ZM78.4882 31.5684L73.3632 30.3809L72.9118 32.3292L78.0368 33.5167L78.4882 31.5684ZM72.1411 31.2706L71.8286 34.9581L73.8214 35.127L74.1339 31.4395L72.1411 31.2706ZM72.825 34.0425H56.325V36.0425H72.825V34.0425ZM55.3287 34.9563L54.7662 41.4563L56.7588 41.6288L57.3213 35.1288L55.3287 34.9563ZM55.7625 42.5425H73.325V40.5425H55.7625V42.5425ZM72.3285 41.4595L72.016 45.2095L74.009 45.3756L74.3215 41.6256L72.3285 41.4595ZM73.0125 44.2925H55.45V46.2925H73.0125V44.2925ZM54.454 45.2026L53.6415 54.2026L55.6334 54.3825L56.4459 45.3825L54.454 45.2026ZM54.6375 55.2925H75.575V53.2925H54.6375V55.2925ZM74.5785 54.2095L74.266 57.9595L76.259 58.1256L76.5715 54.3756L74.5785 54.2095ZM75.2625 57.0425H54.325V59.0425H75.2625V57.0425ZM54.325 57.0425H41.325V59.0425H54.325V57.0425ZM41.325 57.0425H20.3875V59.0425H41.325V57.0425ZM21.384 58.1256L21.6965 54.3756L19.7035 54.2095L19.391 57.9595L21.384 58.1256ZM20.7 55.2925H41.6375V53.2925H20.7V55.2925ZM42.6334 54.3825L43.4459 45.3825L41.454 45.2026L40.6415 54.2026L42.6334 54.3825ZM42.45 44.2925H24.8875V46.2925H42.45V44.2925ZM25.884 45.3756L26.1965 41.6256L24.2035 41.4595L23.891 45.2095L25.884 45.3756ZM25.2 42.5425H42.7625V40.5425H25.2V42.5425ZM43.7588 41.6288L44.3213 35.1288L42.3287 34.9563L41.7662 41.4563L43.7588 41.6288ZM43.325 34.0425H26.6375V36.0425H43.325V34.0425ZM72.9204 30.3171L50.7954 25.3171L50.3546 27.2679L72.4796 32.2679L72.9204 30.3171ZM50.3615 25.3156L27.4865 30.3156L27.9135 32.2695L50.7885 27.2695L50.3615 25.3156ZM27.7 32.2925H72.7V30.2925H27.7V32.2925ZM91.225 49.0425L90.2285 48.9595L90.1382 50.0425H91.225V49.0425ZM91.5375 45.2925V44.2925H90.6174L90.541 45.2095L91.5375 45.2925ZM96.7875 45.2925V46.2925H97.7045L97.7838 45.379L96.7875 45.2925ZM97.85 33.0425V32.0425H96.933L96.8537 32.9561L97.85 33.0425ZM119.35 33.0425V34.0425H120.267L120.346 33.1288L119.35 33.0425ZM119.912 26.5425L120.909 26.6288L121.003 25.5425H119.912V26.5425ZM108.537 26.5425V25.5425H107.963L107.674 26.0387L108.537 26.5425ZM106.35 30.2925V31.2925H106.924L107.214 30.7964L106.35 30.2925ZM93.85 30.2925L92.9838 29.7928L92.1186 31.2925H93.85V30.2925ZM99.475 20.5425V19.5425H98.8974L98.6088 20.0428L99.475 20.5425ZM111.975 20.5425L112.839 21.0464L113.716 19.5425H111.975V20.5425ZM110.662 22.7925L109.799 22.2887L108.921 23.7925H110.662V22.7925ZM149.163 22.7925L150.159 22.8756L150.249 21.7925H149.163V22.7925ZM148.85 26.5425V27.5425H149.77L149.847 26.6256L148.85 26.5425ZM132.912 26.5425V25.5425H131.995L131.916 26.4563L132.912 26.5425ZM132.35 33.0425L131.354 32.9563L131.26 34.0425H132.35V33.0425ZM146.413 33.0425L147.409 33.1256L147.499 32.0425H146.413V33.0425ZM146.1 36.7925V37.7925H147.02L147.097 36.8756L146.1 36.7925ZM131.975 36.7925V35.7925H131.059L130.979 36.7046L131.975 36.7925ZM131.225 45.2925L130.229 45.2046L130.133 46.2925H131.225V45.2925ZM147.288 45.2925L148.284 45.3756L148.374 44.2925H147.288V45.2925ZM146.975 49.0425V50.0425H147.895L147.972 49.1256L146.975 49.0425ZM130.912 49.0425V48.0425H129.999L129.917 48.9526L130.912 49.0425ZM130.1 58.0425V59.0425H131.014L131.096 58.1325L130.1 58.0425ZM117.1 58.0425L116.104 57.9526L116.006 59.0425H117.1V58.0425ZM117.912 49.0425L118.908 49.1325L119.007 48.0425H117.912V49.0425ZM109.537 36.7925V35.7925H108.622L108.541 36.7046L109.537 36.7925ZM108.787 45.2925L107.791 45.2046L107.695 46.2925H108.787V45.2925ZM118.225 45.2925V46.2925H119.141L119.221 45.3804L118.225 45.2925ZM118.975 36.7925L119.971 36.8804L120.067 35.7925H118.975V36.7925ZM92.2215 49.1256L92.534 45.3756L90.541 45.2095L90.2285 48.9595L92.2215 49.1256ZM91.5375 46.2925H96.7875V44.2925H91.5375V46.2925ZM97.7838 45.379L98.8463 33.129L96.8537 32.9561L95.7912 45.2061L97.7838 45.379ZM97.85 34.0425H109.85V32.0425H97.85V34.0425ZM109.85 34.0425H119.35V32.0425H109.85V34.0425ZM120.346 33.1288L120.909 26.6288L118.916 26.4563L118.354 32.9563L120.346 33.1288ZM119.912 25.5425H108.537V27.5425H119.912V25.5425ZM107.674 26.0387L105.486 29.7887L107.214 30.7964L109.401 27.0464L107.674 26.0387ZM106.35 29.2925H93.85V31.2925H106.35V29.2925ZM94.7162 30.7923L100.341 21.0423L98.6088 20.0428L92.9838 29.7928L94.7162 30.7923ZM99.475 21.5425H111.975V19.5425H99.475V21.5425ZM111.111 20.0387L109.799 22.2887L111.526 23.2964L112.839 21.0464L111.111 20.0387ZM110.662 23.7925H149.163V21.7925H110.662V23.7925ZM148.166 22.7095L147.853 26.4595L149.847 26.6256L150.159 22.8756L148.166 22.7095ZM148.85 25.5425H132.912V27.5425H148.85V25.5425ZM131.916 26.4563L131.354 32.9563L133.346 33.1288L133.909 26.6288L131.916 26.4563ZM132.35 34.0425H146.413V32.0425H132.35V34.0425ZM145.416 32.9595L145.103 36.7095L147.097 36.8756L147.409 33.1256L145.416 32.9595ZM146.1 35.7925H131.975V37.7925H146.1V35.7925ZM130.979 36.7046L130.229 45.2046L132.221 45.3804L132.971 36.8804L130.979 36.7046ZM131.225 46.2925H147.288V44.2925H131.225V46.2925ZM146.291 45.2095L145.978 48.9595L147.972 49.1256L148.284 45.3756L146.291 45.2095ZM146.975 48.0425H130.912V50.0425H146.975V48.0425ZM129.917 48.9526L129.104 57.9526L131.096 58.1325L131.908 49.1325L129.917 48.9526ZM130.1 57.0425H117.1V59.0425H130.1V57.0425ZM118.096 58.1325L118.908 49.1325L116.917 48.9526L116.104 57.9526L118.096 58.1325ZM117.912 48.0425H91.225V50.0425H117.912V48.0425ZM108.541 36.7046L107.791 45.2046L109.784 45.3804L110.534 36.8804L108.541 36.7046ZM108.787 46.2925H118.225V44.2925H108.787V46.2925ZM119.221 45.3804L119.971 36.8804L117.979 36.7046L117.229 45.2046L119.221 45.3804ZM118.975 35.7925H109.537V37.7925H118.975V35.7925ZM162.438 36.5425L161.441 36.4595L161.351 37.5425H162.438V36.5425ZM162.75 32.7925V31.7925H161.83L161.753 32.7095L162.75 32.7925ZM166.562 32.7925V33.7925H167.483L167.559 32.8756L166.562 32.7925ZM167.062 26.7925L168.059 26.8756L168.149 25.7925H167.062V26.7925ZM163.25 26.7925L162.275 26.5684L161.994 27.7925H163.25V26.7925ZM164.688 20.5425V19.5425H163.891L163.713 20.3184L164.688 20.5425ZM176.688 20.5425L177.663 20.7621L177.938 19.5425H176.688V20.5425ZM176.125 23.0425L175.149 22.823L174.875 24.0425H176.125V23.0425ZM219.75 23.0425L220.747 23.1256L220.837 22.0425H219.75V23.0425ZM219.438 26.7925V27.7925H220.358L220.434 26.8756L219.438 26.7925ZM215.688 26.7925V25.7925H214.767L214.691 26.7095L215.688 26.7925ZM215.188 32.7925L214.191 32.7095L214.101 33.7925H215.188V32.7925ZM218.938 32.7925L219.934 32.8756L220.024 31.7925H218.938V32.7925ZM218.625 36.5425V37.5425H219.545L219.622 36.6256L218.625 36.5425ZM214.875 36.5425V35.5425H213.964L213.879 36.4492L214.875 36.5425ZM214.312 42.5425L213.317 42.4492L213.214 43.5425H214.312V42.5425ZM217.062 42.5425L218.059 42.6256L218.149 41.5425H217.062V42.5425ZM216.75 46.2925V47.2925H217.67L217.747 46.3756L216.75 46.2925ZM162.562 46.2925L161.566 46.2095L161.476 47.2925H162.562V46.2925ZM162.875 42.5425V41.5425H161.955L161.878 42.4595L162.875 42.5425ZM165.688 42.5425V43.5425H166.598L166.683 42.6359L165.688 42.5425ZM166.25 36.5425L167.246 36.6359L167.348 35.5425H166.25V36.5425ZM160.5 58.0425L159.572 57.6712L159.023 59.0425H160.5V58.0425ZM164.25 48.6675V47.6675H163.573L163.322 48.2962L164.25 48.6675ZM174 48.6675L174.928 49.0389L175.477 47.6675H174V48.6675ZM170.25 58.0425V59.0425H170.927L171.178 58.4139L170.25 58.0425ZM207.062 58.0425L206.092 58.282L206.279 59.0425H207.062V58.0425ZM204.75 48.6675V47.6675H203.473L203.779 48.907L204.75 48.6675ZM214.5 48.6675L215.471 48.4281L215.283 47.6675H214.5V48.6675ZM216.812 58.0425V59.0425H218.089L217.783 57.8031L216.812 58.0425ZM176.688 58.0425L175.691 57.9562L175.597 59.0425H176.688V58.0425ZM177.5 48.6675V47.6675H176.583L176.504 48.5812L177.5 48.6675ZM187.25 48.6675L188.246 48.7539L188.34 47.6675H187.25V48.6675ZM186.438 58.0425V59.0425H187.355L187.434 58.1289L186.438 58.0425ZM190.938 58.0425L189.941 57.9562L189.847 59.0425H190.938V58.0425ZM191.75 48.6675V47.6675H190.833L190.754 48.5812L191.75 48.6675ZM201.5 48.6675L202.496 48.7539L202.59 47.6675H201.5V48.6675ZM200.688 58.0425V59.0425H201.605L201.684 58.1289L200.688 58.0425ZM179.438 32.7925V33.7925H180.358L180.434 32.8756L179.438 32.7925ZM179.938 26.7925L180.934 26.8756L181.024 25.7925H179.938V26.7925ZM177.062 26.7925V25.7925H176.142L176.066 26.7095L177.062 26.7925ZM176.562 32.7925L175.566 32.7095L175.476 33.7925H176.562V32.7925ZM192.438 32.7925V33.7925H193.358L193.434 32.8756L192.438 32.7925ZM192.938 26.7925L193.934 26.8756L194.024 25.7925H192.938V26.7925ZM189.938 26.7925V25.7925H189.017L188.941 26.7095L189.938 26.7925ZM189.438 32.7925L188.441 32.7095L188.351 33.7925H189.438V32.7925ZM205.188 32.7925V33.7925H206.108L206.184 32.8756L205.188 32.7925ZM205.688 26.7925L206.684 26.8756L206.774 25.7925H205.688V26.7925ZM202.938 26.7925V25.7925H202.017L201.941 26.7095L202.938 26.7925ZM202.438 32.7925L201.441 32.7095L201.351 33.7925H202.438V32.7925ZM202.125 36.5425V35.5425H201.214L201.129 36.4492L202.125 36.5425ZM201.562 42.5425L200.567 42.4492L200.464 43.5425H201.562V42.5425ZM204.312 42.5425V43.5425H205.223L205.308 42.6359L204.312 42.5425ZM204.875 36.5425L205.871 36.6359L205.973 35.5425H204.875V36.5425ZM189.125 36.5425V35.5425H188.214L188.129 36.4492L189.125 36.5425ZM188.562 42.5425L187.567 42.4492L187.464 43.5425H188.562V42.5425ZM191.562 42.5425V43.5425H192.473L192.558 42.6359L191.562 42.5425ZM192.125 36.5425L193.121 36.6359L193.223 35.5425H192.125V36.5425ZM176.25 36.5425V35.5425H175.339L175.254 36.4492L176.25 36.5425ZM175.688 42.5425L174.692 42.4492L174.589 43.5425H175.688V42.5425ZM178.562 42.5425V43.5425H179.473L179.558 42.6359L178.562 42.5425ZM179.125 36.5425L180.121 36.6359L180.223 35.5425H179.125V36.5425ZM163.434 36.6256L163.747 32.8756L161.753 32.7095L161.441 36.4595L163.434 36.6256ZM162.75 33.7925H166.562V31.7925H162.75V33.7925ZM167.559 32.8756L168.059 26.8756L166.066 26.7095L165.566 32.7095L167.559 32.8756ZM167.062 25.7925H163.25V27.7925H167.062V25.7925ZM164.225 27.0167L165.662 20.7667L163.713 20.3184L162.275 26.5684L164.225 27.0167ZM164.688 21.5425H176.688V19.5425H164.688V21.5425ZM175.712 20.323L175.149 22.823L177.101 23.2621L177.663 20.7621L175.712 20.323ZM176.125 24.0425H219.75V22.0425H176.125V24.0425ZM218.753 22.9595L218.441 26.7095L220.434 26.8756L220.747 23.1256L218.753 22.9595ZM219.438 25.7925H215.688V27.7925H219.438V25.7925ZM214.691 26.7095L214.191 32.7095L216.184 32.8756L216.684 26.8756L214.691 26.7095ZM215.188 33.7925H218.938V31.7925H215.188V33.7925ZM217.941 32.7095L217.628 36.4595L219.622 36.6256L219.934 32.8756L217.941 32.7095ZM218.625 35.5425H214.875V37.5425H218.625V35.5425ZM213.879 36.4492L213.317 42.4492L215.308 42.6359L215.871 36.6359L213.879 36.4492ZM214.312 43.5425H217.062V41.5425H214.312V43.5425ZM216.066 42.4595L215.753 46.2095L217.747 46.3756L218.059 42.6256L216.066 42.4595ZM216.75 45.2925H162.562V47.2925H216.75V45.2925ZM163.559 46.3756L163.872 42.6256L161.878 42.4595L161.566 46.2095L163.559 46.3756ZM162.875 43.5425H165.688V41.5425H162.875V43.5425ZM166.683 42.6359L167.246 36.6359L165.254 36.4492L164.692 42.4492L166.683 42.6359ZM166.25 35.5425H162.438V37.5425H166.25V35.5425ZM161.428 58.4139L165.178 49.0389L163.322 48.2962L159.572 57.6712L161.428 58.4139ZM164.25 49.6675H174V47.6675H164.25V49.6675ZM173.072 48.2962L169.322 57.6712L171.178 58.4139L174.928 49.0389L173.072 48.2962ZM170.25 57.0425H160.5V59.0425H170.25V57.0425ZM208.033 57.8031L205.721 48.4281L203.779 48.907L206.092 58.282L208.033 57.8031ZM204.75 49.6675H214.5V47.6675H204.75V49.6675ZM213.529 48.907L215.842 58.282L217.783 57.8031L215.471 48.4281L213.529 48.907ZM216.812 57.0425H207.062V59.0425H216.812V57.0425ZM177.684 58.1289L178.496 48.7539L176.504 48.5812L175.691 57.9562L177.684 58.1289ZM177.5 49.6675H187.25V47.6675H177.5V49.6675ZM186.254 48.5812L185.441 57.9562L187.434 58.1289L188.246 48.7539L186.254 48.5812ZM186.438 57.0425H176.688V59.0425H186.438V57.0425ZM191.934 58.1289L192.746 48.7539L190.754 48.5812L189.941 57.9562L191.934 58.1289ZM191.75 49.6675H201.5V47.6675H191.75V49.6675ZM200.504 48.5812L199.691 57.9562L201.684 58.1289L202.496 48.7539L200.504 48.5812ZM200.688 57.0425H190.938V59.0425H200.688V57.0425ZM180.434 32.8756L180.934 26.8756L178.941 26.7095L178.441 32.7095L180.434 32.8756ZM179.938 25.7925H177.062V27.7925H179.938V25.7925ZM176.066 26.7095L175.566 32.7095L177.559 32.8756L178.059 26.8756L176.066 26.7095ZM176.562 33.7925H179.438V31.7925H176.562V33.7925ZM193.434 32.8756L193.934 26.8756L191.941 26.7095L191.441 32.7095L193.434 32.8756ZM192.938 25.7925H189.938V27.7925H192.938V25.7925ZM188.941 26.7095L188.441 32.7095L190.434 32.8756L190.934 26.8756L188.941 26.7095ZM189.438 33.7925H192.438V31.7925H189.438V33.7925ZM206.184 32.8756L206.684 26.8756L204.691 26.7095L204.191 32.7095L206.184 32.8756ZM205.688 25.7925H202.938V27.7925H205.688V25.7925ZM201.941 26.7095L201.441 32.7095L203.434 32.8756L203.934 26.8756L201.941 26.7095ZM202.438 33.7925H205.188V31.7925H202.438V33.7925ZM201.129 36.4492L200.567 42.4492L202.558 42.6359L203.121 36.6359L201.129 36.4492ZM201.562 43.5425H204.312V41.5425H201.562V43.5425ZM205.308 42.6359L205.871 36.6359L203.879 36.4492L203.317 42.4492L205.308 42.6359ZM204.875 35.5425H202.125V37.5425H204.875V35.5425ZM188.129 36.4492L187.567 42.4492L189.558 42.6359L190.121 36.6359L188.129 36.4492ZM188.562 43.5425H191.562V41.5425H188.562V43.5425ZM192.558 42.6359L193.121 36.6359L191.129 36.4492L190.567 42.4492L192.558 42.6359ZM192.125 35.5425H189.125V37.5425H192.125V35.5425ZM175.254 36.4492L174.692 42.4492L176.683 42.6359L177.246 36.6359L175.254 36.4492ZM175.688 43.5425H178.562V41.5425H175.688V43.5425ZM179.558 42.6359L180.121 36.6359L178.129 36.4492L177.567 42.4492L179.558 42.6359ZM179.125 35.5425H176.25V37.5425H179.125V35.5425ZM232.525 39.355L231.592 38.9954L231.068 40.355H232.525V39.355ZM239.775 20.5425V19.5425H239.089L238.842 20.1829L239.775 20.5425ZM250.775 20.5425L251.708 20.9011L252.23 19.5425H250.775V20.5425ZM246.837 30.7925L245.904 30.4339L245.854 30.5654L245.841 30.7057L246.837 30.7925ZM244.462 58.0425V59.0425H245.379L245.459 58.1294L244.462 58.0425ZM233.962 58.0425L232.966 57.9559L232.872 59.0425H233.962V58.0425ZM235.587 39.355L236.584 39.4417L236.678 38.355H235.587V39.355ZM251.462 27.7925L250.466 27.7095L250.376 28.7925H251.462V27.7925ZM251.775 24.0425V23.0425H250.855L250.778 23.9595L251.775 24.0425ZM264.15 24.0425V25.0425H265.065L265.146 24.1315L264.15 24.0425ZM264.462 20.5425V19.5425H263.548L263.466 20.4536L264.462 20.5425ZM275.462 20.5425L276.459 20.6315L276.556 19.5425H275.462V20.5425ZM275.15 24.0425L274.154 23.9536L274.057 25.0425H275.15V24.0425ZM290.025 24.0425L291.022 24.1256L291.112 23.0425H290.025V24.0425ZM289.712 27.7925V28.7925H290.633L290.709 27.8756L289.712 27.7925ZM276.15 27.7925V26.7925H274.602L275.238 28.2036L276.15 27.7925ZM287.65 53.2925V54.2925H289.198L288.562 52.8814L287.65 53.2925ZM278.65 53.2925L277.739 53.7048L278.005 54.2925H278.65V53.2925ZM273.587 42.105L274.499 41.6928L272.92 38.2049L272.591 42.0191L273.587 42.105ZM272.212 58.0425V59.0425H273.13L273.209 58.1285L272.212 58.0425ZM261.212 58.0425L260.216 57.9562L260.122 59.0425H261.212V58.0425ZM262.587 42.1675L263.584 42.2538L261.748 41.6249L262.587 42.1675ZM255.4 53.2925V54.2925H255.944L256.24 53.8352L255.4 53.2925ZM246.4 53.2925L245.559 52.7507L244.566 54.2925H246.4V53.2925ZM262.837 27.7925L263.678 28.3343L264.672 26.7925H262.837V27.7925ZM233.458 39.7146L240.708 20.9021L238.842 20.1829L231.592 38.9954L233.458 39.7146ZM239.775 21.5425H250.775V19.5425H239.775V21.5425ZM249.842 20.1839L245.904 30.4339L247.771 31.1511L251.708 20.9011L249.842 20.1839ZM245.841 30.7057L243.466 57.9557L245.459 58.1294L247.834 30.8794L245.841 30.7057ZM244.462 57.0425H233.962V59.0425H244.462V57.0425ZM234.959 58.1292L236.584 39.4417L234.591 39.2684L232.966 57.9559L234.959 58.1292ZM235.587 38.355H232.525V40.355H235.587V38.355ZM252.459 27.8756L252.772 24.1256L250.778 23.9595L250.466 27.7095L252.459 27.8756ZM251.775 25.0425H264.15V23.0425H251.775V25.0425ZM265.146 24.1315L265.459 20.6315L263.466 20.4536L263.154 23.9536L265.146 24.1315ZM264.462 21.5425H275.462V19.5425H264.462V21.5425ZM274.466 20.4536L274.154 23.9536L276.146 24.1315L276.459 20.6315L274.466 20.4536ZM275.15 25.0425H290.025V23.0425H275.15V25.0425ZM289.028 23.9595L288.716 27.7095L290.709 27.8756L291.022 24.1256L289.028 23.9595ZM289.712 26.7925H276.15V28.7925H289.712V26.7925ZM275.238 28.2036L286.738 53.7036L288.562 52.8814L277.062 27.3814L275.238 28.2036ZM287.65 52.2925H278.65V54.2925H287.65V52.2925ZM279.561 52.8803L274.499 41.6928L272.676 42.5173L277.739 53.7048L279.561 52.8803ZM272.591 42.0191L271.216 57.9566L273.209 58.1285L274.584 42.191L272.591 42.0191ZM272.212 57.0425H261.212V59.0425H272.212V57.0425ZM262.209 58.1288L263.584 42.2538L261.591 42.0812L260.216 57.9562L262.209 58.1288ZM261.748 41.6249L254.56 52.7499L256.24 53.8352L263.427 42.7102L261.748 41.6249ZM255.4 52.2925H246.4V54.2925H255.4V52.2925ZM247.241 53.8343L263.678 28.3343L261.997 27.2507L245.559 52.7507L247.241 53.8343ZM262.837 26.7925H251.462V28.7925H262.837V26.7925ZM324.175 48.6675L323.176 48.6165L323.123 49.6675H324.175V48.6675ZM325.612 20.5425V19.5425H324.662L324.614 20.4915L325.612 20.5425ZM339.737 20.5425L340.73 20.6639L340.867 19.5425H339.737V20.5425ZM336.3 48.6675V49.6675H337.185L337.293 48.7889L336.3 48.6675ZM322.3 58.0425L321.304 57.9496L321.202 59.0425H322.3V58.0425ZM322.737 53.355V52.355H321.826L321.742 53.2621L322.737 53.355ZM336.862 53.355L337.858 53.448L337.96 52.355H336.862V53.355ZM336.425 58.0425V59.0425H337.336L337.421 58.1355L336.425 58.0425ZM325.174 48.7186L326.611 20.5936L324.614 20.4915L323.176 48.6165L325.174 48.7186ZM325.612 21.5425H339.737V19.5425H325.612V21.5425ZM338.745 20.4212L335.307 48.5462L337.293 48.7889L340.73 20.6639L338.745 20.4212ZM336.3 47.6675H324.175V49.6675H336.3V47.6675ZM323.296 58.1355L323.733 53.448L321.742 53.2621L321.304 57.9496L323.296 58.1355ZM322.737 54.355H336.862V52.355H322.737V54.355ZM335.867 53.2621L335.429 57.9496L337.421 58.1355L337.858 53.448L335.867 53.2621ZM336.425 57.0425H322.3V59.0425H336.425V57.0425ZM22.825 131.043L21.829 130.953L21.7315 132.043H22.825V131.043ZM26.1375 94.0425V93.0425H25.223L25.1415 93.9534L26.1375 94.0425ZM76.1375 94.0425L77.1335 94.1317L77.231 93.0425H76.1375V94.0425ZM72.825 131.043V132.043H73.7395L73.821 131.132L72.825 131.043ZM61.45 113.043L62.4458 113.134L62.5463 112.043H61.45V113.043ZM37.45 113.043V112.043H36.5379L36.4542 112.951L37.45 113.043ZM36.1375 127.293L35.1417 127.201L35.0412 128.293H36.1375V127.293ZM60.1375 127.293V128.293H61.0496L61.1333 127.384L60.1375 127.293ZM62.825 97.7925L63.8208 97.8845L63.9216 96.7925H62.825V97.7925ZM38.825 97.7925V96.7925H37.9131L37.8292 97.7005L38.825 97.7925ZM37.7625 109.293L36.7667 109.201L36.6658 110.293H37.7625V109.293ZM61.7625 109.293V110.293H62.6744L62.7583 109.385L61.7625 109.293ZM23.821 131.132L27.1335 94.1317L25.1415 93.9534L21.829 130.953L23.821 131.132ZM26.1375 95.0425H27.1375V93.0425H26.1375V95.0425ZM27.1375 95.0425H39.1375V93.0425H27.1375V95.0425ZM39.1375 95.0425H63.1375V93.0425H39.1375V95.0425ZM63.1375 95.0425H76.1375V93.0425H63.1375V95.0425ZM75.1415 93.9534L71.829 130.953L73.821 131.132L77.1335 94.1317L75.1415 93.9534ZM72.825 130.043H72.2V132.043H72.825V130.043ZM72.2 130.043H59.825V132.043H72.2V130.043ZM59.825 130.043H35.825V132.043H59.825V130.043ZM35.825 130.043H24.1375V132.043H35.825V130.043ZM24.1375 130.043H22.825V132.043H24.1375V130.043ZM61.45 112.043H37.45V114.043H61.45V112.043ZM36.4542 112.951L35.1417 127.201L37.1333 127.384L38.4458 113.134L36.4542 112.951ZM36.1375 128.293H60.1375V126.293H36.1375V128.293ZM61.1333 127.384L62.4458 113.134L60.4542 112.951L59.1417 127.201L61.1333 127.384ZM62.825 96.7925H38.825V98.7925H62.825V96.7925ZM37.8292 97.7005L36.7667 109.201L38.7583 109.385L39.8208 97.8845L37.8292 97.7005ZM37.7625 110.293H61.7625V108.293H37.7625V110.293ZM62.7583 109.385L63.8208 97.8845L61.8292 97.7005L60.7667 109.201L62.7583 109.385ZM93.225 131.043L92.229 130.953L92.1315 132.043H93.225V131.043ZM96.5375 94.0425V93.0425H95.623L95.5415 93.9534L96.5375 94.0425ZM146.538 94.0425L147.534 94.1317L147.631 93.0425H146.538V94.0425ZM143.225 131.043V132.043H144.139L144.221 131.132L143.225 131.043ZM131.85 113.043L132.846 113.134L132.946 112.043H131.85V113.043ZM107.85 113.043V112.043H106.938L106.854 112.951L107.85 113.043ZM106.537 127.293L105.542 127.201L105.441 128.293H106.537V127.293ZM130.537 127.293V128.293H131.45L131.533 127.384L130.537 127.293ZM133.225 97.7925L134.221 97.8845L134.322 96.7925H133.225V97.7925ZM109.225 97.7925V96.7925H108.313L108.229 97.7005L109.225 97.7925ZM108.162 109.293L107.167 109.201L107.066 110.293H108.162V109.293ZM132.162 109.293V110.293H133.074L133.158 109.385L132.162 109.293ZM94.221 131.132L97.5335 94.1317L95.5415 93.9534L92.229 130.953L94.221 131.132ZM96.5375 95.0425H97.5375V93.0425H96.5375V95.0425ZM97.5375 95.0425H109.537V93.0425H97.5375V95.0425ZM109.537 95.0425H133.537V93.0425H109.537V95.0425ZM133.537 95.0425H146.538V93.0425H133.537V95.0425ZM145.541 93.9534L142.229 130.953L144.221 131.132L147.534 94.1317L145.541 93.9534ZM143.225 130.043H142.6V132.043H143.225V130.043ZM142.6 130.043H130.225V132.043H142.6V130.043ZM130.225 130.043H106.225V132.043H130.225V130.043ZM106.225 130.043H94.5375V132.043H106.225V130.043ZM94.5375 130.043H93.225V132.043H94.5375V130.043ZM131.85 112.043H107.85V114.043H131.85V112.043ZM106.854 112.951L105.542 127.201L107.533 127.384L108.846 113.134L106.854 112.951ZM106.537 128.293H130.537V126.293H106.537V128.293ZM131.533 127.384L132.846 113.134L130.854 112.951L129.542 127.201L131.533 127.384ZM133.225 96.7925H109.225V98.7925H133.225V96.7925ZM108.229 97.7005L107.167 109.201L109.158 109.385L110.221 97.8845L108.229 97.7005ZM108.162 110.293H132.162V108.293H108.162V110.293ZM133.158 109.385L134.221 97.8845L132.229 97.7005L131.167 109.201L133.158 109.385ZM185.938 93.5425V92.5425H185.021L184.941 93.4552L185.938 93.5425ZM197.938 93.5425L198.934 93.6299L199.029 92.5425H197.938V93.5425ZM196.688 107.793L195.691 107.705L195.596 108.793H196.688V107.793ZM204.812 107.793V108.793H205.73L205.809 107.879L204.812 107.793ZM205.875 95.5425V94.5425H204.958L204.879 95.4561L205.875 95.5425ZM217.375 95.5425L218.371 95.6282L218.465 94.5425H217.375V95.5425ZM216 111.543V112.543H216.918L216.996 111.628L216 111.543ZM196.375 111.543V110.543H195.462L195.379 111.452L196.375 111.543ZM194.938 127.293L193.942 127.202L193.842 128.293H194.938V127.293ZM203.875 127.293V128.293H204.792L204.871 127.379L203.875 127.293ZM204.938 115.043V114.043H204.02L203.941 114.956L204.938 115.043ZM216.938 115.043L217.934 115.128L218.027 114.043H216.938V115.043ZM215.562 131.043V132.043H216.48L216.559 131.128L215.562 131.043ZM161.75 131.043L160.754 130.957L160.66 132.043H161.75V131.043ZM163.125 115.043V114.043H162.207L162.129 114.957L163.125 115.043ZM175.125 115.043L176.121 115.129L176.215 114.043H175.125V115.043ZM174.062 127.293L173.066 127.206L172.972 128.293H174.062V127.293ZM182.938 127.293V128.293H183.85L183.933 127.383L182.938 127.293ZM184.375 111.543L185.371 111.633L185.47 110.543H184.375V111.543ZM164.75 111.543L163.754 111.457L163.66 112.543H164.75V111.543ZM166.125 95.5425V94.5425H165.207L165.129 95.4569L166.125 95.5425ZM177.625 95.5425L178.621 95.629L178.715 94.5425H177.625V95.5425ZM176.562 107.793L175.566 107.706L175.472 108.793H176.562V107.793ZM184.688 107.793V108.793H185.604L185.684 107.88L184.688 107.793ZM185.938 94.5425H197.938V92.5425H185.938V94.5425ZM196.941 93.4552L195.691 107.705L197.684 107.88L198.934 93.6299L196.941 93.4552ZM196.688 108.793H204.812V106.793H196.688V108.793ZM205.809 107.879L206.871 95.629L204.879 95.4561L203.816 107.706L205.809 107.879ZM205.875 96.5425H217.375V94.5425H205.875V96.5425ZM216.379 95.4569L215.004 111.457L216.996 111.628L218.371 95.6282L216.379 95.4569ZM216 110.543H204.5V112.543H216V110.543ZM204.5 110.543H196.375V112.543H204.5V110.543ZM195.379 111.452L193.942 127.202L195.933 127.383L197.371 111.633L195.379 111.452ZM194.938 128.293H203.875V126.293H194.938V128.293ZM204.871 127.379L205.934 115.129L203.941 114.956L202.879 127.206L204.871 127.379ZM204.938 116.043H216.938V114.043H204.938V116.043ZM215.941 114.957L214.566 130.957L216.559 131.128L217.934 115.128L215.941 114.957ZM215.562 130.043H203.562V132.043H215.562V130.043ZM203.562 130.043H194.625V132.043H203.562V130.043ZM194.625 130.043H182.625V132.043H194.625V130.043ZM182.625 130.043H173.75V132.043H182.625V130.043ZM173.75 130.043H161.75V132.043H173.75V130.043ZM162.746 131.128L164.121 115.128L162.129 114.957L160.754 130.957L162.746 131.128ZM163.125 116.043H175.125V114.043H163.125V116.043ZM174.129 114.956L173.066 127.206L175.059 127.379L176.121 115.129L174.129 114.956ZM174.062 128.293H182.938V126.293H174.062V128.293ZM183.933 127.383L185.371 111.633L183.379 111.452L181.942 127.202L183.933 127.383ZM184.375 110.543H176.25V112.543H184.375V110.543ZM176.25 110.543H164.75V112.543H176.25V110.543ZM165.746 111.628L167.121 95.6282L165.129 95.4569L163.754 111.457L165.746 111.628ZM166.125 96.5425H177.625V94.5425H166.125V96.5425ZM176.629 95.4561L175.566 107.706L177.559 107.879L178.621 95.629L176.629 95.4561ZM176.562 108.793H184.688V106.793H176.562V108.793ZM185.684 107.88L186.934 93.6299L184.941 93.4552L183.691 107.705L185.684 107.88ZM234.525 127.043L233.528 126.959L233.438 128.043H234.525V127.043ZM236.212 106.793V105.793H235.292L235.216 106.709L236.212 106.793ZM285.962 106.793L286.959 106.876L287.049 105.793H285.962V106.793ZM284.275 127.043V128.043H285.195L285.272 127.126L284.275 127.043ZM280.9 127.043V126.043H278.324L280.225 127.781L280.9 127.043ZM285.275 131.043V132.043H287.851L285.95 130.305L285.275 131.043ZM273.275 131.043L272.6 131.781L272.887 132.043H273.275V131.043ZM268.9 127.043L269.575 126.305L269.288 126.043H268.9V127.043ZM250.337 127.043V126.043H250.015L249.754 126.231L250.337 127.043ZM244.775 131.043V132.043H245.097L245.359 131.854L244.775 131.043ZM232.775 131.043L232.191 130.231L229.672 132.043H232.775V131.043ZM238.337 127.043L238.921 127.854L241.441 126.043H238.337V127.043ZM234.15 102.355L233.42 101.672L231.844 103.355H234.15V102.355ZM242.4 93.5425V92.5425H241.966L241.67 92.8591L242.4 93.5425ZM254.4 93.5425L255.127 94.2292L256.72 92.5425H254.4V93.5425ZM251.212 96.9175L250.485 96.2309L248.893 97.9175H251.212V96.9175ZM253.462 96.9175L254.459 97.0067L254.556 95.9175H253.462V96.9175ZM252.712 105.293V106.293H253.627L253.709 105.382L252.712 105.293ZM241.212 105.293L240.216 105.208L240.124 106.293H241.212V105.293ZM241.462 102.355L242.459 102.44L242.551 101.355H241.462V102.355ZM258.65 105.293L257.654 105.202L257.555 106.293H258.65V105.293ZM259.712 93.5425V92.5425H258.799L258.717 93.4525L259.712 93.5425ZM271.212 93.5425L272.21 93.6164L272.289 92.5425H271.212V93.5425ZM271.087 95.23L270.09 95.1562L270.004 96.3175L271.165 96.227L271.087 95.23ZM289.525 93.7925L290.518 93.9084L290.659 92.7011L289.447 92.7956L289.525 93.7925ZM289.087 97.5425L289.162 98.5398L289.985 98.4782L290.081 97.6584L289.087 97.5425ZM270.712 98.9175L270.638 97.9203L269.797 97.9833L269.717 98.8227L270.712 98.9175ZM270.462 101.543L269.467 101.448L269.363 102.543H270.462V101.543ZM288.962 101.543L289.959 101.626L290.049 100.543H288.962V101.543ZM288.65 105.293V106.293H289.57L289.647 105.376L288.65 105.293ZM247.275 112.168L246.278 112.091L246.195 113.168H247.275V112.168ZM274.025 112.168V113.168H274.951L275.022 112.244L274.025 112.168ZM274.15 110.543L275.147 110.619L275.23 109.543H274.15V110.543ZM247.4 110.543V109.543H246.474L246.403 110.466L247.4 110.543ZM246.837 117.668L245.84 117.596L245.764 118.668H246.837V117.668ZM273.587 117.668V118.668H274.519L274.585 117.739L273.587 117.668ZM273.712 115.918L274.71 115.989L274.786 114.918H273.712V115.918ZM246.962 115.918V114.918H246.031L245.965 115.846L246.962 115.918ZM246.337 123.293L245.342 123.193L245.233 124.293H246.337V123.293ZM273.087 123.293V124.293H273.992L274.083 123.392L273.087 123.293ZM273.275 121.418L274.27 121.517L274.38 120.418H273.275V121.418ZM246.525 121.418V120.418H245.62L245.53 121.318L246.525 121.418ZM235.522 127.126L237.209 106.876L235.216 106.709L233.528 126.959L235.522 127.126ZM236.212 107.793H241.15V105.793H236.212V107.793ZM241.15 107.793H247.712V105.793H241.15V107.793ZM247.712 107.793H274.462V105.793H247.712V107.793ZM274.462 107.793H281.462V105.793H274.462V107.793ZM281.462 107.793H285.962V105.793H281.462V107.793ZM284.966 106.709L283.278 126.959L285.272 127.126L286.959 106.876L284.966 106.709ZM284.275 126.043H280.9V128.043H284.275V126.043ZM280.225 127.781L284.6 131.781L285.95 130.305L281.575 126.305L280.225 127.781ZM285.275 130.043H273.275V132.043H285.275V130.043ZM273.95 130.305L269.575 126.305L268.225 127.781L272.6 131.781L273.95 130.305ZM268.9 126.043H250.337V128.043H268.9V126.043ZM249.754 126.231L244.191 130.231L245.359 131.854L250.921 127.854L249.754 126.231ZM244.775 130.043H232.775V132.043H244.775V130.043ZM233.359 131.854L238.921 127.854L237.754 126.231L232.191 130.231L233.359 131.854ZM238.337 126.043H234.525V128.043H238.337V126.043ZM234.88 103.038L243.13 94.226L241.67 92.8591L233.42 101.672L234.88 103.038ZM242.4 94.5425H254.4V92.5425H242.4V94.5425ZM253.673 92.8559L250.485 96.2309L251.94 97.6042L255.127 94.2292L253.673 92.8559ZM251.212 97.9175H253.462V95.9175H251.212V97.9175ZM252.466 96.8283L251.716 105.203L253.709 105.382L254.459 97.0067L252.466 96.8283ZM252.712 104.293H241.212V106.293H252.712V104.293ZM242.209 105.377L242.459 102.44L240.466 102.27L240.216 105.208L242.209 105.377ZM241.462 101.355H234.15V103.355H241.462V101.355ZM259.646 105.383L260.708 93.6326L258.717 93.4525L257.654 105.202L259.646 105.383ZM259.712 94.5425H271.212V92.5425H259.712V94.5425ZM270.215 93.4687L270.09 95.1562L272.085 95.3039L272.21 93.6164L270.215 93.4687ZM271.165 96.227L289.603 94.7895L289.447 92.7956L271.01 94.2331L271.165 96.227ZM288.532 93.6767L288.094 97.4267L290.081 97.6584L290.518 93.9084L288.532 93.6767ZM289.013 96.5453L270.638 97.9203L270.787 99.9148L289.162 98.5398L289.013 96.5453ZM269.717 98.8227L269.467 101.448L271.458 101.637L271.708 99.0124L269.717 98.8227ZM270.462 102.543H288.962V100.543H270.462V102.543ZM287.966 101.459L287.653 105.209L289.647 105.376L289.959 101.626L287.966 101.459ZM288.65 104.293H270.15V106.293H288.65V104.293ZM270.15 104.293H262.4V106.293H270.15V104.293ZM262.4 104.293H258.65V106.293H262.4V104.293ZM247.275 113.168H274.025V111.168H247.275V113.168ZM275.022 112.244L275.147 110.619L273.153 110.466L273.028 112.091L275.022 112.244ZM274.15 109.543H247.4V111.543H274.15V109.543ZM246.403 110.466L246.278 112.091L248.272 112.244L248.397 110.619L246.403 110.466ZM246.837 118.668H273.587V116.668H246.837V118.668ZM274.585 117.739L274.71 115.989L272.715 115.846L272.59 117.596L274.585 117.739ZM273.712 114.918H246.962V116.918H273.712V114.918ZM245.965 115.846L245.84 117.596L247.835 117.739L247.96 115.989L245.965 115.846ZM246.337 124.293H273.087V122.293H246.337V124.293ZM274.083 123.392L274.27 121.517L272.28 121.318L272.092 123.193L274.083 123.392ZM273.275 120.418H246.525V122.418H273.275V120.418ZM245.53 121.318L245.342 123.193L247.333 123.392L247.52 121.517L245.53 121.318ZM324.175 121.668L323.176 121.616L323.123 122.668H324.175V121.668ZM325.612 93.5425V92.5425H324.662L324.614 93.4915L325.612 93.5425ZM339.737 93.5425L340.73 93.6639L340.867 92.5425H339.737V93.5425ZM336.3 121.668V122.668H337.185L337.293 121.789L336.3 121.668ZM322.3 131.043L321.304 130.95L321.202 132.043H322.3V131.043ZM322.737 126.355V125.355H321.826L321.742 126.262L322.737 126.355ZM336.862 126.355L337.858 126.448L337.96 125.355H336.862V126.355ZM336.425 131.043V132.043H337.336L337.421 131.135L336.425 131.043ZM325.174 121.719L326.611 93.5936L324.614 93.4915L323.176 121.616L325.174 121.719ZM325.612 94.5425H339.737V92.5425H325.612V94.5425ZM338.745 93.4212L335.307 121.546L337.293 121.789L340.73 93.6639L338.745 93.4212ZM336.3 120.668H324.175V122.668H336.3V120.668ZM323.296 131.135L323.733 126.448L321.742 126.262L321.304 130.95L323.296 131.135ZM322.737 127.355H336.862V125.355H322.737V127.355ZM335.867 126.262L335.429 130.95L337.421 131.135L337.858 126.448L335.867 126.262ZM336.425 130.043H322.3V132.043H336.425V130.043Z" fill="white"/>
</g>
<defs>
<filter id="filter0_d_59_13" x="0.387451" y="0.542542" width="359.35" height="150.5" filterUnits="userSpaceOnUse" color-interpolation-filters="sRGB">
<feFlood flood-opacity="0" result="BackgroundImageFix"/>
<feColorMatrix in="SourceAlpha" type="matrix" values="0 0 0 0 0 0 0 0 0 0 0 0 0 0 0 0 0 0 127 0" result="hardAlpha"/>
<feOffset/>
<feGaussianBlur stdDeviation="10"/>
<feComposite in2="hardAlpha" operator="out"/>
<feColorMatrix type="matrix" values="0 0 0 0 1 0 0 0 0 1 0 0 0 0 1 0 0 0 1 0"/>
<feBlend mode="normal" in2="BackgroundImageFix" result="effect1_dropShadow_59_13"/>
<feBlend mode="normal" in="SourceGraphic" in2="effect1_dropShadow_59_13" result="shape"/>
</filter>
</defs>
</svg>
